<?xml version="1.0" encoding="UTF-8" standalone="no"?>
<svg id="svg8869" xmlns:rdf="http://www.w3.org/1999/02/22-rdf-syntax-ns#" xmlns="http://www.w3.org/2000/svg" height="862" viewBox="0 0 1423 862" width="1423" version="1.1" xmlns:cc="http://creativecommons.org/ns#" xmlns:dc="http://purl.org/dc/elements/1.1/">
<path id="path8879" d="m590.78 861.44c-0.30619-0.30619-4.0937-0.96194-8.4167-1.4572-40.658-4.6582-54.728-12.785-66.813-38.59-3.5216-7.5199-3.607-7.6084-6.8068-7.0476-3.543 0.62092-29.07 1.5174-54.24 1.9048-17.222 0.2651-65.934-0.79783-105.5-2.3021-38.211-1.4528-36.905-1.5237-38.158 2.0703-11.686 33.524-114.43 27.307-135.2-8.181-3.4218-5.8468-2.7482-5.6401-18.829-5.7768-7.4185-0.063-17.274-0.57081-21.901-1.1284-17.18-2.06-23.75-2.84-37.41-4.41-28.397-3.26-39.366-4.66-50-6.4-3.3-0.54-9.375-1.47-13.5-2.07-34.583-5.01-33.136-1.77-33.037-73.97l0.071131-51.894 2.5767-4.6102c1.4172-2.5356 3.4291-5.0664 4.471-5.624 4.419-2.365 22.756-6.8923 28.143-6.9484 1.6179-0.0169-0.67177-6.6791-3.1101-9.0497-1.4382-1.3982-4.0204-4.593-5.7383-7.0997-2.1284-3.1057-4.0483-4.7425-6.0266-5.1382-1.7688-0.35375-4.2012-2.1958-6.225-4.7142l-3.3218-4.1336 0.13571-51.058c0.14739-55.452-0.11072-52.765 5.8299-60.695l2.5326-3.3808-0.66545-20.619c-0.60728-18.817-0.49931-21.053 1.2352-25.583 1.4041-3.6667 1.7637-6.4739 1.3764-10.745-0.5572-6.145 1.6977-15.594 4.3556-18.252 1.9782-1.9782 1.7389-3.2875-0.853-4.667-2.913-1.55-9.88-6.94-11.458-8.87-0.67552-0.825-1.2425-4.2124-1.26-7.5275-0.02-3.7908-0.60936-6.8521-1.5882-8.2495-2.7456-3.92-2.4146-31.02 0.406-33.3 2.781-2.25 2.71-3.32-0.35-5.33l-2.5-1.64v-42c0-57.18 0.93-59.95 20.093-59.95h6.8489l-0.221-8.25-0.221-8.25 2.5312 0.29289c1.3922 0.16109 11.067-0.59695 21.5-1.6845 10.433-1.09 26.169-2.27 34.969-2.62 8.8-0.35048 18.155-0.81494 20.79-1.0321 2.6343-0.2172 10.059-0.64615 16.5-0.95324 6.4407-0.30708 18.685-0.98477 27.21-1.506 8.525-0.5212 20-1.1946 25.5-1.4965 5.5-0.30186 21.25-1.1977 35-1.9908 13.75-0.79309 30.4-1.6869 37-1.9862 42.709-1.9368 52.042-2.443 65.54-3.5545 16.03-1.32 87.983-1.2938 98.723 0.0359 10.208 1.2639 18.911 2.8669 21.737 4.0037 1.1 0.44254 2.7875 1.0563 3.75 1.3639 1.9676 0.62882 2.3274 3.6446 0.6367 5.3354-1.2651 1.2651-0.85948 5.43 1.5727 16.151 1.4887 6.5619 1.5547 10.148 0.60563 32.927-0.59 14.06-1.07 35.25-1.07 47.09 0 17.503-1.475 42.389-2.6056 43.961-0.13557 0.18849-4.2173-0.78372-9.0704-2.1605-41.563-11.791-69.88-7.8346-71.789 10.029-0.34035 3.1837-0.8464 7.257-1.1245 9.0517-0.37285 2.4057-0.0814 3.4259 1.1092 3.8828 2.5607 0.98262 3.6076-0.94854 4.2178-7.7802 0.9066-10.149 3.2008-12.25 16.133-14.772 11.551-2.2522 61.13 5.4889 61.13 9.5446 0 9.9527-12.445 29.038-23.5 36.04-11.85 7.51-23.55 9.32-60.12 9.32-28.248 0-37.623 0.88882-32.782 3.108 2.2246 1.0199 70.168-0.85681 74.901-2.0689 28.385-7.2678 42.556-24.592 44.548-54.46 2.9053-43.556 3.7089-118.19 1.3806-128.23-1.8182-7.84-1.319-11.672 2.0592-15.805 2.8115-3.4398 3.0782-3.098 4.976 6.3755 1.3439 6.7089 3.925 8.1518 4.9366 2.7596 0.35303-1.8818 1.5834-4.4919 2.7341-5.8001s3.151-3.7511 4.445-5.4287c1.2941-1.6776 3.943-3.674 5.8866-4.4366 3.8568-1.5133 4.2782-3.1551 2.2077-8.6009-2.0375-5.359-14.406-14.08-16.706-11.78-0.95944 0.95944-6.8433 16.301-7.6808 20.027-0.81762 3.6374-6.6823 3.2153-22.787-1.6398-10.711-3.229-77.734-3.8876-117-1.1497-7.7 0.5369-19.175 1.2493-25.5 1.5831-6.325 0.33382-19.15 1.0369-28.5 1.5624-9.35 0.52553-22.4 1.1784-29 1.4508-33.196 1.3701-58.661 2.563-64.5 3.0215-3.575 0.28073-11.225 0.74815-17 1.0387-17.708 0.89103-46.901 2.715-63 3.9364-3.575 0.27121-10.325 0.75912-15 1.0842-4.675 0.32512-14.125 1.1639-21 1.8639-14.749 1.5018-13.802 1.8192-10.445-3.4983 2.1301-3.3743 2.6736-5.4018 2.5765-9.6118-0.13263-5.7531 2.2212-8.3409 8.9266-9.8136 3.4804-0.76442 7.6205-5.3462 12.915-14.292 4.933-8.3357 7.8631-10.31 19.053-12.837 3.832-0.86 6.97-1.9 6.97-2.31 0-2.46 21.89-34.53 32.62-47.8 37.87-46.848 63.4-73.579 93.38-97.804 0.825-0.66658 6.675-1.9683 13-2.8927 6.325-0.92441 21.85-3.1937 34.5-5.0428 34.953-5.1093 56.678-7.6635 102-11.992 8.8-0.84051 20.275-1.9555 25.5-2.4777 5.225-0.52225 14.675-1.4407 21-2.0409 6.325-0.60027 15.1-1.5078 19.5-2.0167 4.4-0.50893 19.25-1.6053 33-2.4364 13.75-0.8309 32.88-1.9948 42.5-2.5864 9.62-0.5915 33.25-1.1597 52.5-1.2625l35-0.1871 5.5 3.5845c7.9916 5.2083 10 10.509 10 26.395v5.5946l13.25-0.53601c7.2875-0.2948 23.375-0.75831 35.75-1.03 33.166-0.72821 114.04-3.3433 125-4.042 8.5632-0.54582 13.148-0.0053 46.5 5.4813 20.35 3.3477 45.325 7.4279 55.5 9.0669 16.593 2.673 72.103 11.674 95.5 15.486 4.95 0.80644 26.775 4.3794 48.5 7.94 48.489 7.9469 90.526 14.813 110.75 18.089 38.166 6.1826 47.624 7.7215 76.25 12.407 39.299 6.4325 96.963 15.862 132.5 21.666 49.858 8.144 67.627 11.191 68.116 11.68 0.2636 0.26366 0.6911 13.92 0.9498 30.348s0.6754 40.219 0.9258 52.869c0.2505 12.65 0.7643 52.156 1.1419 87.79 0.3777 35.634 1.0645 65.024 1.5264 65.309 0.4619 0.28546 0.8398 20.925 0.8398 45.866 0 51.909-0.1204 52.746-7.6625 53.293-1.9548 0.14185-3.9554 0.50591-4.4458 0.80901-0.5028 0.31076-0.8917 22.113-0.8917 49.992v49.441h-5-5v10.671c0 8.7612-0.3132 11.017-1.75 12.601-1.4684 1.6195-1.8304 4.5788-2.25 18.393l-0.5 16.463-27.48-0.0944c-32.487-0.11159-29.354 1.8328-28.852-17.909 0.4927-19.358-3.5247-16.831 27.653-17.393 24.182-0.43574 30.135-1.1094 28.068-3.1762-0.2627-0.26263-12.608-0.60763-27.433-0.76667l-26.9-0.28-0.2981-6.8541c-0.2833-6.516-0.4066-6.825-2.5-6.2637-1.211 0.32473-3.8573 0.59656-5.8805 0.60407-5.2546 0.0195-6.9134 2.063-6.1567 7.5843 0.5955 4.3446 0.3518 4.872-8.1439 17.626l-8.7579 13.147 1.2107 5.0784c1.2932 5.4242-0.3024 11.487-5.0525 19.196-2.982 4.84-2.5649 5.382 4.1423 5.382h6.0633l-0.3133 3.25-0.3134 3.25-6.3947-0.35735c-6.3193-0.35313-6.3862-0.32955-5.6698 2 0.3987 1.2965 1.0658 6.0719 1.4826 10.612 0.969 10.556 1.7623 11.26 2.641 2.342l0.6993-7.0966h5.2638c6.0968 0 6.4778-0.50481 6.4778-8.5818v-5.4182h36 36v8.5 8.5h-34.878c-39.447 0-36.847-0.59466-37.316 8.5346l-0.4 5.98-6.4661 0.30333c-3.5564 0.16683-7.3814-0.17056-8.5-0.74974s-7.6589-1.3907-14.534-1.8033l-12.5-0.75-0.6-15.5c-0.3324-8.525-0.9339-17.525-1.3367-20-1.6893-10.379-5.7623-29.511-6.6264-31.126-1.6886-3.1552-1.0202-4.3922 8.0683-14.931 9.9522-11.54 10.263-12.521 3.8914-12.271-4.9668 0.19532-27.892 2.59-27.892 2.9135 0 0.38998 5.6794 10.881 7.8302 14.463 2.7392 4.563 6.7711 17.243 8.7283 27.45 0.8437 4.4 1.7894 8.9 2.1016 10s0.8935 9.65 1.2918 19c0.3982 9.35 1.0983 17.9 1.5556 19 0.8103 1.9487 0.7782 1.9532-1.2503 0.17434-1.7441-1.5295-2.1776-3.3952-2.6716-11.5-2.3334-38.278-9.0325-62.981-21.74-80.169-10.923-14.774-36.188-14.527-43.812 0.42919-2.8064 5.5046-1.8991 5.5481 4.3506 0.2088 26.287-22.457 53.781 14.565 56.334 75.857 0.2978 7.15 1.0068 13.9 1.5755 15 1.9256 3.7247 6.1992 8.4999 7.607 8.5 1.4946 0.00003 0.7964 50.884-0.7137 52.014-0.3776 0.28243-5.8616 0.28243-12.187 0l-11.5-0.51351-0.345-3c-0.1898-1.65 0.142-5.25 0.7374-8 8.4662-39.106 6.2192-69.953-7.5102-103.1-9.8298-23.733-38.095-31.574-52.935-14.685-21.278 24.217-28.49 86.504-14.448 124.79 1.0087 2.75 3.1136 8.475 4.6775 12.722 3.6178 9.8253 12.372 21.519 18.201 24.313 2.2545 1.0806 4.1043 2.3743 4.1106 2.875 0.012 0.9592-87.87-0.0212-95.487-1.0652-10.493-1.4382-26.683-26.801-28.626-44.845-1.3595-12.621-3.2511-14.135-4.4477-3.5585-0.6355 5.6174-0.8054 5.9055-3.7962 6.4361-1.722 0.30551-41.831 6.4231-89.131 13.595-47.3 7.1716-88.7 13.477-92 14.013-3.3 0.53562-16.575 2.5653-29.5 4.5105s-24.85 3.7908-26.5 4.1015c-1.65 0.31066-7.05 0.94186-12 1.4027-4.95 0.46081-10.012 1.1518-11.25 1.5356-1.8159 0.56315-2.25 0.31192-2.25-1.3022 0-2.2862-2.4504-3.1992-8.6407-3.2196l-4.18-0.02-0.37631 7.4521c-0.33385 6.6111-0.70586 7.7961-3.2964 10.5l-2.9201 3.0479h-12.274c-22.519 0-30.688-1.4214-48.789-8.489l-16.035-6.2611-0.36476-10.761-0.36476-10.761 2.3505 0.52491c1.2928 0.28871 5.5005 1.6697 9.3505 3.0689 6.6094 2.4021 15.758 5.1735 25.188 7.6304 3.7152 0.96794 4.2235 1.4556 4.5 4.3172 0.35126 3.6352 11.199 5.4916 12.486 2.1368 0.74404-1.9389 1.1229-1.8788 14.071 2.2349 12.579 3.9963 13.21 3.8862 13.24-2.3098 0.008-1.7425 0.28845-3.88 0.6223-4.75 0.53-1.39-1.05-1.58-13.5-1.58h-14.11v-18.191c0-50.028-9.0956-88.881-27.135-115.91-4.8283-7.2346-6.8771-8.0298-24.365-9.4565-3.85-0.3141-7.3972-0.96154-7.8828-1.4388-1.4106-1.3864 0.18703-4.2912 1.9814-3.6026 1.9478 0.74743 18.254 3.0004 36.901 5.0986 7.7 0.86638 17.928 2.0934 22.728 2.7268 4.8006 0.63338 9.0756 0.80465 9.5 0.38061 1.0535-1.0527 1.6496-128.67 0.60484-129.49-0.45831-0.35789-8.5691-0.25406-18.024 0.23073l-17.191 0.88143 0.19079 44.136c0.24004 55.533 2.2795 51.033-23.593 52.059l-14.783 0.58671-1.8692-4.3607c-2.6721-6.2338-31.678-7.2339-92.378-3.185l-18.814 1.255-4.0322 3.8903c-2.2177 2.1397-6.4671 7.4903-9.4431 11.89-2.976 4.4-7.1741 10.025-9.329 12.5-4.191 4.8134-3.5426 2.3637-9.3798 35.437-0.11046 0.62587 2.2771 1.1889 5.809 1.3699 6.7481 0.34577 10.664 2.8618 9.771 6.2776-0.65879 2.5192-2.0454 3.3392-3.5613 2.106-2.7461-2.2341-9.0226 0.0912-9.9546 3.688-1.1849 4.5728-0.37115 6.1211 3.217 6.1211 5.3127 0 3.784 2.8421-1.7186 3.1952l-4.75 0.30479-0.28932 5c-0.27332 4.7235-0.12125 5.0738 2.75 6.3338 4.6647 2.0471 4.209 10.656-2.4441 46.166-5.0489 26.948-5.6668 41.584-1.9031 45.076 2.516 2.3339 2.591 2.7226 2.0109 10.424-0.33137 4.4-0.31637 13.018 0.0333 19.151l0.63583 11.151 6.594 0.84861 6.594 0.8486 0.66236 4.5c2.6547 18.036 33.16 48 48.867 48 1.0942 0 1.9895 0.45 1.9895 1 0 1.0486-30.189 1.4773-31.223 0.4433zm-46.21-18.19c-0.42068-0.4125-3.9832-4.2571-7.9167-8.5436-6.6232-7.2175-8.1989-9.4028-12.251-16.989-0.81742-1.5305-1.9078-2.5221-2.4232-2.2036-0.55961 0.34586-0.57893 1.2652-0.048 2.2827 0.48893 0.937 1.5635 3.2408 2.3879 5.1195 2.1045 4.7959 16.761 20.918 19.099 21.009 1.0542 0.041 1.5725-0.26288 1.1518-0.67538zm39.43-0.18c0-0.51072-0.56754-1.5232-1.2612-2.25-4.27-4.47-10.74-12.71-10.74-13.68 0-0.62821-0.3375-1.1474-0.75-1.1537-0.4125-0.006-1.6225-1.8323-2.689-4.0578-1.9041-3.9735-3.2792-5.5459-4.1171-4.708-0.6031 0.60311 1.9051 5.7601 2.806 5.7695 0.4125 0.004 0.75 0.44906 0.75 0.98838 0 2.0782 7.4234 12.696 11.364 16.254 4.5634 4.1204 4.6359 4.1647 4.6359 2.837zm-20.193-4.8563c-3.06-4.17-10.34-13.75-10.8-14.21-0.94-0.93-5.13-8.48-5.69-10.25-0.68-2.15-2.32-2.31-2.32-0.24 0 2.3691 10.089 18.409 14.251 22.658 3.8536 3.9337 6.959 5.3272 4.5556 2.0442zm584.19-75.75c0-2.2494-4.6746-8.811-7.9298-11.131-4.2873-3.0554-4.2592-3.0122-9.5634-14.727-3.6003-7.9517-6.8278-17.348-8.0177-23.341-0.6091-3.0678-2.0868-4.9971-3.0726-4.0113-0.8654 0.86537 2.0622 13.508 6.0758 26.239 4.7238 14.983 22.508 36.294 22.508 26.971zm-45-6.96c-1.2917-1.375-2.5056-2.5-2.6974-2.5s0.3884 1.125 1.2894 2.5c0.9009 1.375 2.1147 2.5 2.6973 2.5s0-1.125-1.2893-2.5zm-228.5-6.9572c28.6-4.1071 83.254-11.984 121.45-17.505 38.25-5.52 70.05-10.04 70.85-10.04 0.9576 0 1.2663-1.1054 1.0475-3.75-0.2201-2.6591-0.7468-3.6839-1.8104-3.5228-0.825 0.12497-9.375 1.3818-19 2.7929-9.625 1.4112-19.975 2.9642-23 3.4512-7.7722 1.2513-17.912 2.779-37.5 5.6498-9.35 1.3703-19.475 2.8841-22.5 3.3639-19.388 3.075-23.014 3.6116-48 7.1023-4.125 0.5763-10.2 1.4534-13.5 1.9492-3.3 0.49578-8.925 1.324-12.5 1.8404-50.278 7.2629-75.25 11.023-75.543 11.374-2.8996 3.4684 0.1378 6.0211 6.0431 5.0788 1.1-0.17552 25.4-3.6795 54-7.7866zm275.71 5.7072c-0.3993-0.9625-3.0501-5.242-5.8905-9.5099-2.8405-4.268-5.4588-9.1003-5.8187-10.739-0.3598-1.6382-1.0696-3.2353-1.5772-3.5491-0.5077-0.31377-0.9231-1.4439-0.9231-2.5115 0-1.0675-0.45-1.941-1-1.941s-1-0.9-1-2-0.45-2-1-2-1-0.9-1-2-0.45-2-1-2-1 0.64844-1 1.441c0 0.79254 0.45 1.7191 1 2.059 0.55 0.33992 1 1.454 1 2.4757s0.3429 2.0076 0.762 2.191c0.4191 0.18333 1.8121 3.5725 3.0955 7.5315 2.1842 6.7375 12.374 22.302 14.6 22.302 0.2626 0 0.1508-0.7875-0.2485-1.75zm-32.614-11.864c-4.0762-8.0972-5.9434-13.256-7.2879-20.136-1.9834-10.149-4.2978-12.731-3.5859-4.0006 0.4263 5.2278 2.9605 14.392 4.4801 16.2 0.439 0.5225 0.7982 1.6494 0.7982 2.5042 0 2.0546 10.286 18.688 10.731 17.353 0.1897-0.56887-2.1213-5.9331-5.1355-11.921zm44.362 9.3625c-1.3984-1.2368-3.8689-4.9488-5.4898-8.2488-1.621-3.3-3.1792-6.225-3.4627-6.5-2.6175-2.5388-5.9979-12.478-6.547-19.25-0.4637-5.7183-0.9993-7.75-2.0431-7.75-2.8336 0 0.017 17.096 4.0852 24.5 3.8632 7.0309 6.7915 11.914 7.4955 12.5 0.3305 0.275 1.6224 1.9625 2.8709 3.75 1.2484 1.7875 3.0267 3.2494 3.9518 3.2488 1.3211-0.00096 1.1364-0.48365-0.8608-2.25zm-698.35-2.0291c4.5391-4.1598 5.0222-6.8169 4.9488-27.22-0.0766-21.285-1.2634-24.028-10.786-24.93-13.53-1.2815-62.087-2.5606-97.371-2.5651h-37.14l-0.64 9.75c-3.4015 51.366-10.851 46.24 68.531 47.155 36.472 0.42066 66.882 0.83909 67.578 0.92986 0.69557 0.0908 2.8754-1.3111 4.8441-3.1153zm-66.65-3.81c-43.757-1.0848-65.036-2.4042-66.23-4.1064-1.0661-1.5207-0.14711-39.845 0.98116-40.917 1.1852-1.1265 118.11 0.99879 122.68 2.2299 6.3368 1.7063 6.5032 2.2792 6.5387 22.512 0.0409 23.345 4.3601 21.976-63.968 20.282zm45.583-3.3858c0.6081-2.4229 7.5515-9.5238 9.3125-9.5238 2.8385 0 1.7076-3.1388-1.6339-4.535l-3.6751-1.5356 3.0743-1.8696c2.8781-1.7503 5.0268-6.1377 3.8994-7.9619-0.27536-0.44555-2.7606-0.59294-5.5228-0.32753l-5.0222 0.48257-1.9858-4.3765c-1.0922-2.4071-1.9957-5.1703-2.0077-6.1404-0.0192-1.541-0.8084-1.7092-6.245-1.3309-7.7275 0.53772-8.3493 1.8932-3.0034 6.5472 6.7785 5.9011 4.0567 16.499-3.4933 13.602-2.4924-0.95644 0.13898-2.3877 3.2844-1.7864 1.96 0.38 2.44 0.06 2.44-1.64 0-1.85-0.58-2.12-4.55-2.12h-4.5482l0.16796 10.515c0.20585 12.886 2.6428 16.513 3.7003 5.507 0.32248-3.3561 0.93792-5.022 1.8553-5.022 1.5909 0 1.8122 3.7141 0.43686 7.3314-1.9062 5.0136 1.2396 6.7848 4.8637 2.7385 1.6897-1.8866 3.0722-3.7991 3.0722-4.25 0-0.45094 0.45-0.81989 1-0.81989s1 1.725 1 3.8333c0 5.5371 2.414 7.3496 3.5834 2.6905zm-7.1653-16.994c-1.2126-4.8313 4.5332-7.4032 7.8597-3.5181 2.0995 2.4521 2.1 2.4679 0.15081 4.4171-2.5674 2.5674-7.273 2.0393-8.0105-0.89901zm-25.34 13.22c3.586-3.9638 5.0738-7.75 3.0456-7.75-0.48472 0-2.0826 1.575-3.5509 3.5s-3.3217 3.5-4.1187 3.5c-0.79701 0-1.4491 0.45-1.4491 1 0 3.4508-11.327 0.93571-15.763-3.5-5.0801-5.0801-5.9634-5.4036-6.4173-2.3503-0.59885 4.0286-5.2215 6.4722-8.3572 4.4176-2.5531-1.6728-2.735-1.6599-4.8717 0.34749-7.9714 7.4888-25.993-11.919-21.639-23.303 0.60752-1.5888 0.90347-3.0898 0.65766-3.3356-0.73042-0.73042 3.6388-5.2757 5.0713-5.2757 0.72581 0 1.3197-0.45 1.3197-1 0-2.1889-5.8474-1.0636-6.4955 1.25-0.34663 1.2375-1.1305 3.2672-1.7419 4.5104l-1.1117 2.2604-2.3255-2.1847c-1.27-1.21-2.32-2.94-2.32-3.86 0-2.9911-3.7866-5.6226-5.5513-3.8579-2.2541 2.2541 0.50127 7.092 5.0574 8.8797 3.5915 1.4092 5.2907 4.4788 4.1396 7.4785-0.84373 2.1987-2.9679 0.93309-5.1101-3.0447-1.9353-3.5936-4.7441-4.3075-5.3135-1.3505-0.35316 1.8338 3.4453 5.8862 7.4578 7.9562 6.7886 3.5023 5.4754 12.958-1.7996 12.958-2.9378 0-5.8343 3.459-4.2228 5.043 0.73985 0.72728 8.8612-0.65669 14.955-2.5485 1.5983-0.4962 2.2421-0.15935 2.6458 1.3844 0.60697 2.3211 3.2897 2.5377 36.106 2.9154l17.87 0.21 3.8449-4.25zm-3.1998-4.8428c2.5254-2.9372 3.68-5.5553 4.5933-10.415l1.23-6.5h-2.6425c-2.4136 0-2.6083 0.29298-2.2476 3.3819 0.52143 4.4664-1.2547 5.3947-5.0099 2.6184-3.4308-2.5365-5.0112-1.4936-4.5456 2.9997 0.21869 2.1105 0.84329 2.5484 4.009 2.8104 4.4467 0.36802 4.7719 1.3815 1 3.1169-6.6328 3.0516-7.6126 3.6421-8.0032 4.8227-1.1414 3.4505 8.174 1.1728 11.626-2.8428zm-38.521 0.26721c5.7035-5.1411 6.2388-10.665 0.99936-10.314-2.2816 0.15284-4.4456-0.20321-4.809-0.79123-1.14-1.87-4.54-1.25-4.54 0.81 0 1.3668 0.96718 2.0702 3.5 2.5453 1.925 0.36113 3.4857 0.97372 3.4682 1.3613-0.0773 1.7132-3.0105 4.389-5.5579 5.0702-3.31 0.88524-4.2467 2.7707-1.7156 3.4534 2.6627 0.71815 6.5502-0.24477 8.6577-2.1445zm-10.85-9.18c0-1.5614-0.646-2.597-1.753-2.8102-1.9795-0.38122-3.2668 2.0132-2.357 4.3841 0.95373 2.4854 4.11 1.2767 4.11-1.5739zm36.5 0c0-3.4138-1.4326-3.9287-2.9648-1.0657-1.55 2.89-1.27 4.07 0.96 4.07 1.5556 0 2-0.66667 2-3zm-5.8435-13.573c3.12-6.35 3.4-7.43 1.9-7.43-2.4476 0-4.6713 2.8-5.9566 7.5-2.6761 9.7863-0.78577 9.7522 4.0516-0.0731zm-26.335 4.5867c4.5563-0.0187 2.3277-2.2293-3.8214-3.7904-3.7638-0.95555-4.7454-0.89366-6 0.37828-1.9154 1.9419 1.3378 4.8047 4.5 3.96 1.1-0.29383 3.4946-0.54038 5.3214-0.54789zm41.046-1.1846c0.53214-1.4385 1.0473-1.7759 1.5268-1 1.2 1.94 5.6 1.43 5.6-0.67 0-3.65-6.82-8.17-12.33-8.17-3.43 0-4.67 1.25-4.67 4.69 0 0.83836-1.1293 2.4126-2.5095 3.4983-3.5955 2.8282-2.2774 3.8138 5.1008 3.8138 5.7298 0 6.5654-0.2493 7.2763-2.171zm-32.21-2.3799c1.6331-4.2559-8.4464-8.6864-12.809-5.6305-1.9459 1.363-1.7678 1.5634 3.805 4.2832 6.7253 3.2823 8.1784 3.4997 9.0044 1.3473zm43.66-3.21c0.56549-2.8036-1.2893-5.25-3.9804-5.25-0.94885 0-1.024 0.57771-0.29252 2.25 0.54127 1.2375 1.2542 3.0375 1.5844 4 0.88191 2.571 2.0564 2.1342 2.6885-1zm-39.853-2.1998c0.32287-0.5224-0.32558-1.4382-1.441-2.0352-2.1901-1.1721-2.349-1.0151-1.421 1.4032 0.68136 1.7756 1.9782 2.062 2.862 0.63196zm798.53 43.07c0-0.48265-0.675-1.4378-1.5-2.1224-0.825-0.68469-1.5-1.8273-1.5-2.5391 0-0.71182-0.3469-1.4442-0.7708-1.6276-0.657-0.28411-2.0876-3.5181-7.2255-16.333-2.0535-5.122-2.9306-8.3828-3.5094-13.048-0.7632-6.1509-2.0554-8.7595-3.0522-6.1619-0.7928 2.066-0.4621 3.9155 3.4056 19.046 0.5394 2.11 2.4212 6.61 4.1819 10s4.0599 7.8511 5.1092 9.9136c1.6935 3.3287 4.8612 5.2004 4.8612 2.8724zm-333.5-6.6049c30.401-4.5616 174.31-25.751 201-29.594 11.55-1.6636 21.97-3.2247 23.156-3.4693 1.9896-0.41041 4.5921-9.5397 3.1349-10.997-0.2281-0.22817-57.987 7.2252-128.35 16.563-70.37 9.34-131.76 17.44-136.44 18-14.099 1.6902-14 1.6511-14 5.5625 0 3.8695 0.60642 4.0047 11 2.4538 6.1014-0.91043 9.3408 0.31453 10.501 3.9709 0.53323 1.6801 1.235 1.9572 3.8258 1.511 1.7451-0.30059 13.523-2.0995 26.173-3.9976zm254.98-1.1863c-0.9281-2.1072-2.0313-4.7312-2.4517-5.8312-0.4203-1.1-1.2121-3.125-1.7594-4.5-1.9505-4.8995-3.2724-9.6747-3.2724-11.821 0-1.1984-0.45-2.179-1-2.179s-1 1.5484-1 3.441c0 1.8925 0.45 3.7191 1 4.059 0.55 0.33992 1 1.4976 1 2.5726s0.3975 2.7359 0.8833 3.691c1.4981 2.9449 2.9594 6.6206 3.6721 9.2364 0.719 2.639 3.4704 6.3075 4.1906 5.5873 0.2337-0.2337-0.3344-2.149-1.2625-4.2561zm-310.89-0.55804-0.24623-3.2268-7.6613-0.0232c-7.93-0.02-8.7 0.38-8.7 4.56 0 1.74 0.79 1.92 8.42 1.92h8.422l-0.24623-3.2268zm320.39-4.03c0-0.14526-0.9-2.7264-2-5.7359s-2-6.6891-2-8.1769-0.45-2.9832-1-3.3231c-0.55-0.33992-1-2.1665-1-4.059s-0.45-3.441-1-3.441-1 1.5484-1 3.441c0 1.8925 0.45 3.7191 1 4.059 0.55 0.33992 1.0199 1.829 1.0441 3.309 0.05 3.0714 2.0737 11.075 3.2716 12.941 0.6814 1.0617 2.6843 1.7973 2.6843 0.98588zm-323.07-6.3712c2.4726-0.49451 3.1099-1.087 2.875-2.6726-0.31227-2.1078-14.049-2.7846-16.085-0.79251-3.283 3.2126 4.398 5.2274 13.21 3.4651zm25.07-2.44c4.125-0.54951 16.275-2.1246 27-3.5001 10.725-1.3756 22.425-2.9009 26-3.3896 27.055-3.6987 50.384-6.6296 72-9.0459 4.125-0.4611 11.325-1.3208 16-1.9104s16.6-1.9794 26.5-3.0884 21.15-2.4556 25-2.9925c3.85-0.53681 8.8-1.1631 11-1.3918 2.2-0.22869 15.64-1.8097 29.867-3.5133s26.039-3.0975 26.25-3.0975c0.2108 0 0.3833-1.4127 0.3833-3.1393v-3.1393l-4.75 0.63385c-2.6125 0.34862-7.675 1.0559-11.25 1.5717-12.32 1.7777-42.797 5.8576-68.5 9.17-10.212 1.3161-18.929 2.4706-29 3.8407-4.4 0.59863-13.4 1.7386-20 2.5333s-15.6 1.9327-20 2.5288c-4.4 0.59616-11.15 1.4874-15 1.9804-3.85 0.49308-10.6 1.3619-15 1.9306-4.4 0.56878-13.625 1.7338-20.5 2.589-13.832 1.7205-25.145 3.1762-35 4.5035-3.575 0.4815-12.575 1.592-20 2.4679-17.298 2.0405-16.827 1.956-18.123 3.2516-2.1844 2.1844 0.18968 3.5406 5.0048 2.8591 2.54-0.35946 7.9932-1.1032 12.118-1.6527zm-748-24.78v-25.85l-10.75-1.12c-5.912-0.61-17.486-1.83-25.72-2.71-14.163-1.5-15.038-1.5-16.25 0.16-3.081 4.22-1.5045 4.6 30.22 7.46 16.928 1.5245 15.595-0.37751 15.272 21.799l-0.272 18.61-7-0.27918c-3.85-0.15-13.634-1.08-21.743-2.06-15.201-1.83-16.757-1.64-16.757 2.06 0 3.3812 21.115 6.6873 48.75 7.6331l4.25 0.15v-25.85zm164.01 19.465c-0.55-0.56-1.01-4.01-1.01-7.67 0-3.6555-0.28687-10.688-0.63749-15.627l-0.63749-8.981-26.613-1.182c-14.63-0.65-32.23-1.43-39.11-1.75-17.186-0.77899-16.199-1.9233-16.052 18.617 0.15111 21.062-8.2803 18.17 60.552 20.77 20.687 0.78137 27.304-0.39715 23.513-4.188zm-39.097-0.004c-0.22917-0.2142-8.7417-0.71886-18.917-1.121-24.906-0.98434-22.822 0.4099-23.194-15.517-0.40805-17.484-2.6123-16.177 25.256-14.974 12.341 0.53254 27.479 0.97595 33.64 0.98534 16.932 0.0258 16.945 0.0381 17.971 16.772 0.75704 12.354-25.279 22.733-34.757 13.855zm31.898-13.954c-0.63-15.84 1.76-14.67-29.9-14.67-14.637 0-29.292-0.28-32.566-0.62222-8.6478-0.90387-9.3403 0.0595-9.3403 12.994 0 13.217-0.84199 12.602 17.45 12.753 8.2775 0.0686 23.15 0.4088 33.05 0.7559 23.075 0.80902 21.821 1.4692 21.315-11.225zm567.2 7.58c0.008-2.0625 0.285-4.7625 0.61664-6 0.59116-2.2059 0.4341-2.25-8.0137-2.25h-8.61v5.4452 5.4452l4.75 0.37454c12.013 0.94721 11.248 1.1518 11.264-3.015zm36.627-0.25813c13.673-1.6545 37.91-4.5778 53.86-6.4964 15.95-1.9185 40.25-4.8418 54-6.496 13.75-1.6543 32.65-3.9095 42-5.0116s20.6-2.4631 25-3.0245c4.4-0.56137 13.098-1.6438 19.33-2.4054 12.765-1.5601 15.96-6.0965 9.14-12.979-0.5562-0.56137-21.537 1.5374-53.692 5.3707-29.028 3.4607-55.929 6.663-59.779 7.1162-3.85 0.45326-24.1 2.8865-45 5.4071-20.9 2.5207-46.1 5.4981-56 6.6165-22.493 2.5411-20.5 1.6777-20.5 8.8795v6.0314h3.3905c1.8648 0 14.577-1.3537 28.25-3.0081zm-797.64-2.43c0-0.79254-0.45-1.7191-1-2.059-0.55-0.33992-1-1.4915-1-2.559 0-2.827-2.705-2.3898-6.0769 0.9821-4.1875 4.19-3.7361 5.08 2.577 5.08 4.1221 0 5.5-0.361 5.5-1.441zm15.383-2.6197c1.1293-1.0297-0.06268-4.2552-1.2918-3.4956-2.49 1.54-6.091-1.38-6.091-4.95 0-7.31 4.972-13.58 7.51-9.47 1.049 1.69 2.49 0.03 2.49-2.88 0-5.22-11.392-7.75-15.229-3.39-5.0551 5.7501-6.2871 11.595-4.1129 19.512 1.3751 5.0072 12.844 8.2146 16.724 4.6769zm-12.196-9.18c0.471-4.87 3.813-5.16 3.813-0.33 0 2.94-0.364 3.57-2.063 3.57-1.7246 0-2.0119-0.53224-1.75-3.2418zm1059.5-44.76l-0.5744-50 2.6682-0.012c4.7648-0.0214 59.429-2.8937 67.918-3.5686 10.749-0.8546 11.833-3.7329 2.7893-7.4034-3.0034-1.219-5.9835-2.8463-6.6225-3.6162-0.6389-0.76989-3.0191-1.4194-5.2892-1.4434-2.2702-0.024-6.1526-0.46472-8.6276-0.97948-8.2356-1.7129-53.047 0.90827-55.656 3.2555-3.1006 2.7896-3.7972 11.155-0.8553 10.272 1.1063-0.33209 7.1865-1.0154 13.512-1.5184 30.826-2.4517 59.049-3.5289 57.128-2.1804-0.7547 0.52983-8.4047 1.2904-17 1.6901-8.5952 0.39974-16.438 0.88013-17.427 1.0675-0.9898 0.18741-8.5529 0.65522-16.807 1.0396-12.239 0.56994-15.431 1.032-17.304 2.5053l-2.2965 1.8064 0.4255 48.293c0.4574 51.91 0.3935 50.793 2.9064 50.793 1.5686 0 1.6471-3.5254 1.1132-50zm-300.7 41.96c0-1.906-0.55687-2.0287-8.5-1.8722-8.0451 0.15849-10.078 1.0006-7.8333 3.2452 1.89 1.9 16.33 0.69 16.33-1.37zm22.5 0.005c8.6847-1.058 63.64-7.4033 172.5-19.917 38.225-4.3942 74.112-8.5373 79.75-9.2068 9.6928-1.1512 10.25-1.3431 10.25-3.529 0-3.1715 10.615-4.1546-142.39 13.188-75.21 8.52-137.16 15.5-137.67 15.5-0.52 0-0.94 1.39-0.94 3.09v3.0938l5.25-0.62411c2.8875-0.34326 8.85-1.0627 13.25-1.5987zm-23.5-13.96v-7h-9.1132-9.1132l0.58895 5.25c0.32392 2.8875 0.59988 6.0375 0.61323 7 0.0212 1.5275 1.105 1.75 8.5243 1.75h8.5v-7zm25.5 3.476c8.8-0.85399 17.575-1.754 19.5-2 1.925-0.24598 14.525-1.575 28-2.9534s52.4-5.4183 86.5-8.9776c34.1-3.5592 73.25-7.6241 87-9.033s27.925-2.888 31.5-3.2868l6.5-0.7252 0.2921-7.75c0.1606-4.2625 0.1121-7.75-0.1078-7.75-0.9247 0-271.6 29.007-275.93 29.57-5.3008 0.68927-5.4464 1.0704-4.1161 10.776 0.55594 4.056 0.89426 4.567 2.75 4.1539 1.1638-0.2591 9.3161-1.1698 18.116-2.0238zm240.57-1.9851c17.257-2.7629 20.128-3.5226 19.499-5.1608-0.3153-0.82153-0.5732-2.8069-0.5732-4.4119 0-3.3597-2.4845-3.7281-13.25-1.9648-3.1625 0.51798-8.4695 1.0399-11.793 1.1599-7.1217 0.25699-7.3367 0.48801-6.4503 6.9328 0.7784 5.6595 0.025 5.4529 12.568 3.4448zm-541.77-14.51c18.87-1.14 17.67-0.57 17.67-8.48 0-7.556-0.20365-7.7431-7.1342-6.5551-2.9512 0.50589-8.7408 1.1819-12.866 1.5023-35.983 2.7948-45 3.7313-45 4.6738 0 1.3418 5.1547 3.5876 10 4.3568 2.475 0.39289 5.625 1.4307 7 2.3062 5.7587 3.6669 7.5926 4.2879 11 3.725 1.925-0.31804 10.622-1.0076 19.327-1.5324zm40.17-5.94c0-4.281-0.1378-4.4872-3.4511-5.1648-4.7498-0.97144-6.3348-3.3929-5.6463-8.6262 0.6409-4.8714-0.20897-5.2607-3.9387-1.8041-1.4515 1.3452-3.1594 2.6193-3.7953 2.8313-1.7272 0.57572-0.89992 12.805 1.0091 14.917 1.8695 2.0685 4.3072 2.6184 10.822 2.4416l5-0.1357v-4.459zm-107.04-0.7164c5.4606-0.90172 2.0983-2.1602-6.0227-2.2543-5.6372-0.0653-6.2851-0.31773-9.1647-3.5703-3.7599-4.2469-6.0203-4.5096-6.4529-0.75l-0.31642 2.75-9-0.34946c-4.95-0.19221-11.25-0.51184-14-0.7103-2.75-0.19845-12.786-0.3787-22.302-0.40053l-17.3-0.04-1.0458-3c-2.0502-5.8811-4.9382-2.6561-3.2511 3.6305 0.75097 2.7984 4.2466 3.1462 39.901 3.9691 15.4 0.35544 28.188 0.81594 28.417 1.0233 0.69345 0.62759 16.306 0.40084 20.54-0.29831zm15.198-2.1533c-0.91025-1.0058-1.67-2.4683-1.6883-3.25-0.0404-1.7251-3.8029-6.4184-4.5481-5.6732-1.6382 1.6382 2.8979 10.752 5.3515 10.752 2.3973 0 2.447-0.10269 0.8849-1.8287zm-116.66-4.01c0-6.1263-21.798-9.7718-23.37-3.9083-1.8758 6.9994-2.117 6.896 17.62 7.5573l5.75 0.19v-3.8417zm508.58-1.16c0.65686 0 0.47705-27.59-0.23983-36.8-1.5919-20.451-4.8896-10.73-4.5114 13.3 0.36106 22.94 0.5964 24.934 2.8416 24.072 0.82-0.31 1.68-0.57 1.91-0.57zm-301.94-6.3926c0.59623-4.3499 0.47914-4.7771-1.2197-4.4499-2.6141 0.50342-3.8591 4.6623-2.4713 8.2553 1.4692 3.804 2.8421 2.3886 3.691-3.8054zm-464.14-4.06c0-6.2677-0.14449-6.3139-20.191-6.4454-15.697-0.103-16.591 0.107-15.657 3.6783 0.60341 2.3074 2.2941 2.8101 20.848 6.1983 14.662 2.6775 15 2.6002 15-3.4312zm27.5 1.45v-4l-7.75 0.005c-7.2562 0.004-7.9571 0.1987-11 3.0507-4.875 4.57-4.286 4.95 7.75 4.95h11v-4zm303 1.9602c0-2.054-3.9479-8.7262-5.5203-9.3296-0.883-0.33884-26.89-1.5194-57.793-2.6236-30.91-1.11-59.57-2.21-63.69-2.46-4.125-0.24927-14.25-0.70475-22.5-1.0122-8.25-0.30744-24.225-0.99308-35.5-1.5236-20.286-0.95459-46.507-2.0718-94-4.0053-13.475-0.54857-39.915-1.7213-58.756-2.606-18.841-0.88475-34.928-1.3506-35.75-1.0353-4.0215 1.5432 0.34557 7.3726 7.2117 9.6266 1.5368 0.5045 12.694 1.6131 24.794 2.4636s27.85 1.9898 35 2.5317c22.719 1.722 58.251 3.773 112 6.465 29.923 1.4987 54.943 2.0816 136.5 3.1804 26.125 0.35197 47.688 0.80395 47.917 1.0044 0.99922 0.87398 10.083 0.26552 10.083-0.6754zm28.767-1.5239c12.84-0.46942 18.19-1.0057 18.006-1.8051-0.14364-0.62551 0.83212-2.6727 2.1684-4.5493l2.4295-3.412-24.88 0.65922c-13.684 0.36258-25.262 1.0415-25.729 1.5087-1.7629 1.7629 4.4102 9.2764 7.1886 8.7496 1.4021-0.26582 10.769-0.78384 20.816-1.1511zm44.23-2.03c11.257-0.68 31.761-2.251 46-3.5246 6.325-0.56573 12.246-1.0267 13.158-1.0245 1.3576 0.003 9.8423-9.8232 9.8423-11.399 0-0.77242-8.7418-0.51101-15.808 0.47274-3.6804 0.51234-12.767 1.4186-20.192 2.0138-7.425 0.59527-21.208 1.7511-30.629 2.5685-9.42 0.81-17.55 1.48-18.07 1.48-1.4164 0-5.5357 8.8074-4.7295 10.112 0.46867 0.75831 2.5528 0.91344 6.3152 0.47006 3.0886-0.36399 9.4406-0.89284 14.116-1.1752zm685.14-6.9859c1.0513-2.3766 2.3912-6.931 2.9775-10.121 1.0094-5.4916 3.2523-12.084 9.9691-29.3 6.6811-17.124 2.2454-12.341-6.491 7-6.0722 13.443-12.516 35.744-10.819 37.441 0.9769 0.97684 2.4719-0.74307 4.3638-5.02zm-145.31-8.0005c0.6836-14.367-0.8683-33.56-2.6846-33.202-1.517 0.29967-1.9256 16.002-0.5927 22.781 0.1623 0.825 0.3294 5.25 0.3715 9.8333 0.098 10.691 2.4029 11.156 2.9058 0.58697zm-580.15 3.9704c12.436-0.64423 11.476-0.003 13.945-9.3094 2.0116-7.58-0.8504-8.2471-28.937-6.7446-6.0785 0.32516-5.9621-0.47651 1.1405-7.8597 3.6914-3.8373 12.492-13.16 19.557-20.717l12.845-13.74-0.14604-19.76c-0.21609-29.239-2.8454-47.577-6.9426-48.421-4.3884-0.90419-45.484-0.25655-45.818 0.72207-0.19939 0.58309 1.2289 3.1028 3.174 5.5994l3.5365 4.5392-0.28891 56.401c-0.1589 31.02-0.64657 57.328-1.0837 58.462-0.87821 2.2775 0.37536 2.3134 29.019 0.82949zm-112.67-1.64c0.0116 0.95108 4.0208 1.2415 16.765 1.2143l16.75-0.0357 8.252-7.9202c4.5386-4.3561 13.651-12.498 20.25-18.092l12.01-10.17 0.0114-13.122c0.009-10.836-2.0331-75.739-2.4008-76.287-0.0608-0.0907-16.591-0.3419-36.735-0.55822l-36.624-0.39332 1.3224 4.0582c4.8434 14.864 5.1499 130.39 0.31652 119.31-0.06-0.1375-0.44536-25.675-0.85642-56.75-0.76556-57.874-0.98211-60.799-4.8311-65.25-1.41-1.63-5.6-1.75-61.32-1.75-67.54 0-61.88-0.73-61.88 7.93v4.0657l12.75 0.0658c56.036 0.28906 73.765 0.20722 87.362-0.40329 20.395-0.91576 20.512-0.4567 20.815 81.588l0.07 19.76-5.25 0.0377c-8.309 0.0597-235.01-8.1702-237.39-8.6179-3.1837-0.59885-3.4098-3.3889-4.0133-49.529-0.68304-52.222-1.4433-50.042 16.925-48.525 3.9754 0.32841 17.128 0.84246 29.228 1.1423 31.596 0.78303 53.891 1.5492 54.205 1.8627 0.14922 0.14921 1.1302 4.4589 2.18 9.5771 2.0834 10.157 2.7412 11.014 8.4805 11.036 3.1891 0.0126 4.4758-0.64062 7.3561-3.7347l3.4909-3.75-0.60989-10.468c-0.36735-6.305-1.1055-10.94-1.8561-11.655-2.5428-2.4213-124.87-3.0267-127.03-0.62867-2.2022 2.4454-0.69728 95.785 1.818 112.75 0.16307 1.1 0.33399 2.3099 0.37982 2.6887 0.14496 1.1981 7.7365 1.7363 40.083 2.8421 33.531 1.1462 60.051 2.1514 106 4.0175 97.579 3.963 112.53 4.4198 113.23 3.4592 0.45901-0.62949 0.74043-0.53851 0.75 0.24246zm970.5-2.3721c2.5129-6.0142 1.5568-12.545-1.3277-9.0694-1.8378 2.2144-3.0933 12.692-1.5209 12.692 0.7343 0 2.0162-1.63 2.8486-3.6221zm-817.88 0.1999c8.1896-0.78222 20.965-1.9297 28.39-2.5499 7.425-0.62021 18.191-1.5552 23.924-2.0778 5.73-0.52 12.58-0.95 15.22-0.95 4.1818 0 4.8673-0.29273 5.269-2.25 1.6448-8.0146 2.5941-13.098 3.5949-19.25 0.62628-3.85 1.5533-8.6272 2.0601-10.616 0.50676-1.9888 0.92138-4.7464 0.92138-6.1279 0-13.573 7.9348-16.411 50.5-18.057l31-1.1991 0.27699-15.424c0.29889-16.644 0.18449-17.031-5.0417-17.06-3.3057-0.0183-6.167 4.0295-7.1372 10.097-0.72943 4.5616-0.7019 4.5477-10.402 5.251-9.09 0.65-11.2-0.84-11.2-7.91 0-4.3443-0.0914-4.4863-2.1708-3.3734-2.84 1.52-4.83-0.99-4.83-6.08 0-4.15 1.44-6.01 4.65-6.01 2.0065 0 2.2802-0.56343 2.55-5.25l0.3-5.25 4.5-0.7c2.475-0.38262 6.8506-0.44476 9.7235-0.13809l5.2235 0.55759 1.305 4.6381c1.2914 4.5894 1.3536 4.6412 5.9364 4.9392l4.6314 0.30111 0.70608-7.5349c0.38835-4.1442 0.39136-9.6337 0.007-12.199l-0.69939-4.6639-21.167 0.65292c-11.642 0.35911-32.642 1.0935-46.667 1.632-24.721 0.94912-75.801 2.7471-96.811 3.4076-12.935 0.40666-11.927-2.0693-10.827 26.603 0.65884 17.168 0.59427 30.485-0.21578 44.5-1.2835 22.207-1.3632 24.9-1.2358 41.75 0.0695 9.1962 0.38443 11.75 1.4488 11.75 0.74795 0 8.0604-0.64 16.25-1.4222zm-71.62-60c0-49.488-0.41348-55.496-3.5997-52.31-0.78498 0.78497-0.67788 65.888 0.1509 91.734 0.25572 7.975 0.47893 14.95 0.49601 15.5 0.0171 0.55 0.68844-0.51416 1.4919-2.3648 1.21-2.81 1.46-11.62 1.46-52.56zm-343.44 45.17c-1.8589-11.312-2.5423-25.742-3.1379-66.25l-0.64695-44-6.39 0.0312c-3.5145 0.0172-11.861 0.12969-18.547 0.25l-12.158 0.22 0.71933 28.75c0.39563 15.812 1.0744 33.925 1.5085 40.25l0.78914 11.5 6.7933 11c3.7363 6.05 8.3559 13.588 10.266 16.75l3.4726 5.75h9.0148 9.0148l-0.69839-4.25zm713.86-4.36c2.78-1.07 2.37-130.39-0.42-130.39-1.9796 0-2 0.66667-2 65.5 0 36.025 0.1882 65.5 0.41821 65.5 0.23002 0 1.13-0.27314 2-0.60699zm9.1513-5.9447c1.6296-37.4 1.5386-61.649-0.23638-62.948-1.6767-1.227-4.0777 65.075-2.4915 68.802 1.0419 2.4482 2.5027-0.68697 2.7279-5.8545zm-769.34-46.7c-0.24-44.41-0.437-49.75-1.838-49.75-1.7807 0-1.7862 98.116-0.0057 100.88 1.9042 2.9546 2.105-2.613 1.8432-51.128zm800.79 50.762c10.166-0.81828 23.883-1.9537 30.483-2.5231 17.74-1.5306 20.747-1.7811 47.5-3.9567 13.475-1.0958 26.75-2.2136 29.5-2.484 2.75-0.27037 46.625-3.8696 97.5-7.9982 50.875-4.1287 95.088-7.7856 98.25-8.1266l5.75-0.61994v-12.402c0-14.104 0.925-13.069-10.057-11.255l-6.9426 1.1466v3.2944c0 4.051-0.661 4.4807-7.9022 5.1373-7.5457 0.68422-10.098-0.64516-10.098-5.26 0-3.9838-0.982-4.1758-13-2.5411-3.575 0.48627-15.275 1.6395-26 2.5627-25.391 2.1857-23.694 1.7452-24.473 6.3528-1.4446 8.5502-20.527 8.7216-20.527 0.18432 0-4.1214 2.5039-3.8755-21.5-2.1112-7.7 0.56595-21.538 1.5615-30.75 2.2124-10.632 0.75118-16.784 1.5836-16.842 2.2793-0.0505 0.60276-0.16304 2.4417-0.25 4.0866-0.21093 3.9897-5.2313 5.6941-15.604 5.2979l-7.56-0.28v-4-4l-6.5 0.23477c-8.6794 0.31349-33.283 2.1407-44.67 3.3175-5.0437 0.52123-11.85 0.94769-15.125 0.94769-10.443 0-11.888 0.60601-12.511 5.2455-0.71722 5.3473-1.6987 5.8097-11.694 5.5096l-8.5-0.25516-0.31037-3.75-0.31036-3.75h-9.9396-9.9396l-0.009 9.25c-0.005 5.0875-0.29246 11.612-0.63929 14.5-0.75144 6.256-3.222 5.8459 22.665 3.7622zm-507.57-16.432c2.1643-3.502-66.167-7.1542-72.7-3.8858-4.2937 2.1481-1.0114 2.8107 14.5 2.927 13.499 0.1012 41.225 0.96753 54.441 1.7011 1.755 0.0974 3.4467-0.23661 3.7592-0.74227zm-105.71-13.67c-1.5671-1.5671-87.443-1.6358-88.044-0.0704-0.56732 1.4784 0.53718 1.6757 10.081 1.8004 5.8952 0.0771 25.794 0.41458 44.219 0.75 32.932 0.59953 36.557 0.33315 33.743-2.48zm929.45-8.3832c-0.3317-12.421-0.3631-12.56-2.6505-11.682-2.9052 1.1148-2.2194 23.89 0.7069 23.474 2.2048-0.31314 2.2439-0.5498 1.9436-11.793zm30.306 8.9403c5.5-0.57864 13.508-1.4313 17.796-1.8948l7.7954-0.84273 6.3651-6.112c13.229-12.703 27.712-13.593 44.105-2.7087 4.655 3.0907 6.2703 3.6549 9.2872 3.2438 2.0086-0.27372 7.4771-0.77329 12.152-1.1102 4.675-0.33686 12.775-1.0334 18-1.5478 5.225-0.51443 13.1-1.1824 17.5-1.4843 13.073-0.89699 50.122-3.8542 63-5.0286 2.75-0.25078 11.033-0.92873 18.406-1.5066 16.313-1.2784 14.803-0.21294 15.008-10.593l0.1706-8.6579-3.7924 0.62671c-2.0857 0.34469-4.3548 0.63166-5.0423 0.63771-0.6875 0.006-1.25 1.1105-1.25 2.4543 0 3.2967-3.5143 5.5567-8.6407 5.5567-6.2592 0-7.3593-0.71094-7.3593-4.7558v-3.5418l-18.25 0.62987c-10.038 0.34642-21.072 0.92674-24.521 1.2896l-6.271 0.65974-1.0863 4.314c-1.8043 7.1655-17.372 8.2751-17.372 1.2382 0-5.3624 0.3902-5.2972-24.19-4.0431-23.841 1.2164-24.788 1.4545-23.66 5.9509 1.6991 6.7697-1.1644 8.2461-12.879 6.6404-4.4721-0.61298-4.5074-0.64853-4.4082-4.4353 0.1398-5.3305 1.7505-5.1635-28.398-2.9442-29.329 2.159-28.235 1.8611-29.982 8.166l-1.0163 3.6686-7.0056 0.3314c-8.9188 0.42192-8.9612 0.40209-8.9612-4.1929 0-4.6171-1.122-5.6034-3.449-3.032-0.944 1.0431-3.9575 2.4342-6.6966 3.0913-3.6944 0.88627-4.8349 1.5735-4.4173 2.6617 0.3096 0.80683 0.5629 5.2552 0.5629 9.8852v8.4182l4.25 0.01c2.3375 0.005 8.75-0.46379 14.25-1.0424zm-355.5-1.9c5.775-0.51276 15.45-1.2023 21.5-1.5322 6.05-0.32996 13.25-0.81769 16-1.0838 5.4328-0.52577 12.533-1.0119 79.5-5.443 7.975-0.52769 30.25-2.1014 49.5-3.4971s60.602-4.3205 91.892-6.4994c31.291-2.179 56.941-4.0852 57-4.2361 0.059-0.15089-0.023-9.1829-0.1836-20.071l-0.2912-19.797-6.2088 0.54167c-3.4148 0.29792-14.309 0.98958-24.209 1.537-9.9 0.54744-30.15 1.6787-45 2.5139-14.85 0.83519-31.95 1.7464-38 2.025-6.05 0.27857-13.475 0.72658-16.5 0.99559-6.9751 0.6203-35.114 2.3259-49.5 3.0003-6.05 0.28363-19.775 0.96278-30.5 1.5092-10.725 0.54643-29.4 1.437-41.5 1.9792-12.1 0.5421-31.45 1.4374-43 1.9896-11.55 0.55219-23.522 1.116-26.605 1.253l-5.6047 0.24903-0.64529 13.408c-1.0372 21.55-0.8385 32.092 0.60471 32.091 0.6875-0.00046 5.975-0.42036 11.75-0.93311zm-499.5-2.07c0-1.2884-4.443-1.5877-31.5-2.1217-17.325-0.34194-34.088-0.96739-37.25-1.3899l-5.75-0.76821v3.1521 3.1521l37.25-0.26217c32.33-0.23 37.25-0.46 37.25-1.76zm-95.5-2.5c0-1.2169-1.8399-1.5382-9.75-1.7023-5.3625-0.11126-11.55-0.28846-13.75-0.39377-20.245-0.96912-115.83-1.464-115-0.59536 0.88691 0.9293 51.787 2.7034 101 3.5203 7.7 0.12782 19.288 0.3311 25.75 0.45174 9.8753 0.18435 11.75-0.02 11.75-1.2806zm476-8.0187c32.287-1.8956 39.349-2.4785 40.119-3.3114 0.64537-0.69821-0.47143-38.129-1.6684-55.92l-0.69-10.25-4.1306 0.009c-2.2718 0.005-10.206 0.42057-17.631 0.92386-7.425 0.5033-24.3 1.4598-37.5 2.1256-29.053 1.4654-25.739-2.4614-25.387 30.083 0.16271 15.047 0.31359 29.476 0.33528 32.065l0.0394 4.7062 5.0063 0.35883c10.762 0.77138 16.904 0.6545 41.506-0.78991zm444.41-27.837c1.445-52.568 0.5139-64.95-4.7629-63.338-0.853 0.26055-0.9528 80.394-0.1019 81.771 2.9532 4.7784 4.3748-0.60815 4.8648-18.434zm13.961 10.532c-0.184-1.4721-0.641-15.839-1.0156-31.927-0.5154-22.135-0.9807-29.25-1.9129-29.25-1.8927 0-2.4979 2.656-1.8979 8.33 0.3006 2.8435 0.9046 16.461 1.3422 30.261 0.4375 13.8 1.1475 25.661 1.5777 26.357 1.1514 1.8631 2.3214-0.45126 1.9065-3.7715zm5.3892 3.8872c0.955-0.51493 12.986-1.4198 26.736-2.0108s35.35-1.7264 48-2.5232c12.65-0.79675 27.5-1.7034 33-2.0147 10.456-0.59189 14.45-0.8387 41.5-2.5646 9.075-0.57904 23.7-1.4569 32.5-1.9508 45.521-2.555 55.1-3.1523 56.186-3.504 2.3097-0.74744 1.2391-32.741-1.1071-33.086-2.1462-0.31574-237.74 10.42-238.18 10.854-0.355 0.35501-0.9891 37.74-0.64 37.738 0.1449-0.00068 1.0449-0.42254 2-0.93747zm-535.27-10.1c1.12-1.83-1.65-3.96-5.15-3.96-2.94 0-3.38 0.33-3.38 2.5 0 2.6727 7.0329 3.8738 8.5271 1.4562zm172.5-14.84c0.018-7.4938 0.29207-21.195 0.60894-30.446l0.57612-16.821-3.3589 0.32149-3.36 0.33 0.0296 10c0.0163 5.5 0.12878 19.056 0.25 30.125l0.22 20.13h2.5 2.5l0.0328-13.625zm41.97 0.38c15.675-0.79848 40.875-2.1336 56-2.9669 52.582-2.897 128.57-6.6825 162-8.0705 7.425-0.30828 19.8-0.97482 27.5-1.4812 7.7-0.5064 20.3-1.1848 28-1.5076 7.7-0.32275 14.952-0.78088 16.116-1.0181 2.1784-0.44403 2.5408-36.453 0.3904-38.789-0.6745-0.73264-34.729-0.88938-42.506-0.19564-1.65 0.14719-18.525 0.56723-37.5 0.93342-18.975 0.3662-48 1.078-64.5 1.5818-16.5 0.50379-64.088 1.7053-105.75 2.6699l-75.75 1.754v24.292 24.292l3.75-0.0217c2.0625-0.0119 16.575-0.67498 32.25-1.4735zm-214.19-2.75c0.23947-1.2625-0.31528-1.7462-1.9914-1.7364-3.9331 0.0231-6.8233 1.15-6.8233 2.6605 0 2.2596 8.3774 1.3813 8.8147-0.92413zm521.71-50.539c-2.3233-6.0545-3.1623 14.047-1.0554 25.289 0.2061 1.1 0.5123 5.825 0.6803 10.5 0.1681 4.675 0.4367-1.1639 0.5971-12.975 0.1603-11.811 0.06-22.077-0.222-22.813zm48.5 35.27c49.923-2.2735 76.203-3.4088 103.5-4.4712 13.75-0.53515 36.475-1.433 50.5-1.9952 14.025-0.56218 31.125-1.2429 38-1.5128l12.5-0.49062 0.3273-17.629 0.3274-17.629-3.3274 0.60094c-3.7497 0.67723-61.784 2.3413-107.83 3.0919-58.711 0.9571-129.51 2.6356-130.85 3.102-1.2541 0.43723-1.6325 35.277-0.4095 37.707 0.4753 0.94421-1.2545 0.98013 37.26-0.77381zm-705-6.95c5.225-0.28713 16.025-0.75319 24-1.0357s19.45-0.72521 25.5-0.98378c16.492-0.70486 79.232-2.5955 93.5-2.8176 7.6645-0.11931 12.439-0.58142 12.342-1.1946-0.087-0.55-0.48655-11.036-0.88802-23.301l-0.72993-22.301-55.112 0.67707c-30.31 0.37-58.03 0.95-61.61 1.3l-6.5 0.62422-0.29799 3.5423c-0.26051 3.0969 0.28955 4.093 4.3745 7.9218l4.6725 4.3794-0.61046 5.8406c-1.44 13.85-4.91 16.31-23.03 16.31h-13.104v-14.5-14.5l9.6441-0.28494 9.6441-0.28493-0.14413-4.2151-0.14-4.22-16-0.3051c-8.8-0.16781-18.433-0.0141-21.407 0.3416l-5.4073 0.64671 0.63369 23.966c0.72541 27.434 0.40486 26.186 6.5387 25.457 2.55-0.3 8.92-0.78 14.14-1.07zm-87.34-13.19c-0.37-7.51-0.66-18.54-0.66-24.5v-10.847l-183.68 0.0159c-144.42 0.0125-183.85-0.24742-184.45-1.2158-1.7511-2.8333-2.2295 1.4057-2.6701 23.659l-0.46429 23.446 2.3822 0.5479c1.3102 0.3013 82.257 0.92468 179.88 1.3852 97.625 0.46056 180.38 0.91252 183.91 1.0043l6.4 0.17-0.65-13.66zm60.887 2.4081c-0.2968-6.1875-0.81472-17.502-1.1509-25.144l-0.61128-13.894-12.64 0.62458c-6.9519 0.34352-19.502 0.92494-27.89 1.292l-15.25 0.66746v23.185c-0.01 27.91-4.12 24.52 29.7 24.52h28.374l-0.53964-11.25zm232.45 2.64c45.052-1.9629 40 1.2162 40-25.174v-21.539l-43.689 0.68416c-24.029 0.37628-43.722 0.78665-43.762 0.91192-0.0401 0.12527 0.0817 10.69 0.27075 23.478l0.34363 23.25 4.6682 0.0115c2.5675 0.006 21.543-0.72372 42.168-1.6223zm-196.31-8.64c0.44496-0.6875 0.80902-5.4311 0.80902-10.541v-9.2913l-3 0.29133-3 0.29133-0.28498 10.25-0.28499 10.25h2.476c1.3618 0 2.84-0.5625 3.285-1.25zm285.73-220.47c0.38-115.93 0.9-215.62 1.14-221.53 0.41-9.755 0.29-10.749-1.31-10.74-0.96 0.005-39.77 1.125-86.25 2.49-46.475 1.3645-85.308 2.4852-86.296 2.4905-1.7006 0.009-1.783 1.9941-1.5466 37.26l0.24972 37.25-2.6319 5.0757c-2.95 5.6892-4.7849 6.6739-34.525 18.528-1.2375 0.49323-3.2625 1.3107-4.5 1.8166s-5.625 2.1454-9.75 3.6434c-13.621 4.9465-13.315 5.8686 2.083 6.2692 6.6456 0.17292 13.058 0.52337 14.25 0.77878 1.1919 0.25541 12.967 1.1052 26.167 1.8884 39.541 2.3462 37.869 1.8 38.882 12.703 0.69059 7.4305 1.7633 9.797 4.4406 9.797 3.2282 0 20.85 7.4352 25.677 10.834 11.614 8.1776 14.828 10.91 17.987 15.295 2.8319 3.9302 4.2924 4.9383 9.674 6.6776 19.301 6.2376 21.309 7.6355 23.564 16.401 2.6824 10.425 5.039 26.692 6.3159 43.597 0.56898 7.5325 1.469 19.321 2.0001 26.196 1.1817 15.297 3.6567 49.433 5.0029 69 0.54866 7.975 1.4276 23.5 1.9532 34.5 1.5887 33.25 2.8897 58.41 3.6056 69.73l0.67858 10.73 20.609 0.26986c11.335 0.14842 20.882 0.1704 21.217 0.0489 0.33418-0.12156 0.92298-95.072 1.3084-211zm107.08 207.65c24.75-0.54415 65.7-1.4164 91-1.9384 25.3-0.52194 76.6-1.6353 114-2.4741 37.4-0.83881 95.9-1.9724 130-2.5191 131.18-2.1032 188.64-3.898 189.31-5.9139 0.3979-1.1993-2.6693-1.3091-20.419-0.73098-41.132 1.3397-83.326 2.5496-109.39 3.1365-14.575 0.32826-43.6 1.0207-64.5 1.5387-20.9 0.51803-70.175 1.3957-109.5 1.9504-39.325 0.55471-104.35 1.6807-144.5 2.5023-40.15 0.82155-96.371 1.9733-124.94 2.5594-28.564 0.58612-52.302 1.2923-52.75 1.5693-3.5938 2.2211 1.042 2.5442 27.935 1.9473 15.812-0.35098 49-1.0834 73.75-1.6275zm-68.119-4.5997 18.881-0.65986-0.6578-8.7137c-0.63676-8.435-0.58637-8.7324 1.5751-9.2977 3.0443-0.79611 3.0002-0.91047 3.582 9.2932l0.51564 9.0436h8.1991c4.5095 0 19.635-0.29366 33.611-0.65257l25.412-0.65257v-9.9853c0-8.3142 0.28485-10.166 1.702-11.062 2.4286-1.5364 2.527-1.2662 3.8639 10.615l1.21 10.74h12.703c6.9864 0 20.819-0.29399 30.739-0.65331l18.036-0.65332 0.87405-10.097c1.33-15.3 5.39-15.66 6.88-0.6 1.102 11.124-2.2616 10 29.914 10h28.279l1.4037-11.236c1.1068-8.8604 1.7477-11.303 3.0307-11.55 1.4072-0.271 3.9374 16.061 3.0869 19.925-0.1653 0.75135 43.753 2.1918 51.786 1.6985l5.5-0.33777-0.1476-10.682c-0.1193-8.6301 0.1382-10.792 1.3402-11.253 2.6561-1.0192 3.1039 0.27382 3.8412 11.091l0.7263 10.656 25.395-0.61211c30.1-0.72 27.3 0.46 27.3-11.64 0-13.241 3.9922-16.067 5.434-3.8458 0.3113 2.6388 0.8327 7.0444 1.1588 9.7901l0.5928 4.9923 11.157-0.46172c6.1364-0.25395 17.12-0.47548 24.407-0.49229l13.2-0.03v-9.3776c0-15.778 3.5969-15.68 4.714 0.12756l0.5831 8.25h22.851 22.852l0.011-6.25c0.03-16.805 4.3113-20.185 5.2674-4.158 0.3148 5.2756 0.7359 9.7556 0.9359 9.9556 0.2 0.19999 10.646 0.086 23.212-0.25325l22.849-0.61688-0.5714-8.8206c-0.3592-5.5448-0.1923-9.055 0.4495-9.4516 1.9135-1.1826 2.7588 1.1004 3.4424 9.2975 0.8135 9.7548-1.4144 8.9109 21.904 8.2972l19-0.5 0.7537-6.5c1.786-15.403 5.6978-16.304 7.2645-1.6743l0.7148 6.6743h17.294 17.294l-0.3777-8.75c-0.2078-4.8125-0.6331-21.8-0.9453-37.75s-0.9845-49.025-1.494-73.5-1.2422-80.143-1.6284-123.71c-0.6292-70.989-0.8666-79.27-2.2888-79.827-0.9-0.32-104.2-17.19-229.6-37.471-250.74-40.543-259.76-42.003-299.5-48.453-15.125-2.455-40.217-6.5182-55.761-9.0293-15.544-2.5112-30.169-4.4326-32.5-4.2698l-4.24 0.296-0.54 50.488c-0.8 73.729-1.05 376.84-0.32 381.24l0.62276 3.75 7.1192-0.003c3.9155-0.002 15.616-0.29975 26-0.66267zm-554.13-23.829-0.52128-6.494 3.6888-1.5413c2.9608-1.2371 7.856-1.5193 24.804-1.4299 20.76 0.10955 25.496-0.6584 22.504-3.6497-4.7512-4.7512-84.564 1.8107-80.452 6.6144 7.0895 8.2825 4.6334 8.5819-13.082 1.5947l-13.69-5.4-37.75-0.72c-40.334-0.77317-41.173-0.67296-33.25 3.9702 4.6301 2.7134 5.6938 4.8808 2.9182 5.9459-2.8465 1.0923-4.3964 0.66254-14.139-3.9207-10.619-4.9958-10.359-5.0364-12.989 2.0277-3.4821 9.3544-11.213 8.4528 75.031 8.7501 41.898 0.14441 76.464 0.37222 76.813 0.50623 0.34916 0.13401 0.40027-2.6786 0.11357-6.2504zm39.254 5.3271c1.254-1.2589-3.1453-9.4951-5.1228-9.5906-8.27-0.4-17.38 4.68-17.38 9.69 0 1.3325 21.17 1.2387 22.503-0.0998zm92.845-0.70555c3.935-3.2692 2.0619-17.614-2.0936-16.034-3.2768 1.2458-12.138 1.4058-25.004 0.45126-9.4526-0.70124-13.962 0.25134-8.255 1.7438 2.7134 0.70957 3.5396 3.3443 1.969 6.279-2.3022 4.3017-9.6143 3.0559-24.51-4.1757-10.89-5.2871-12.004-5.3903-12.844-1.1898-0.35221 1.761-1.4934 4.1236-2.536 5.25-4.1554 4.4896-3.1801 7.9731 2.4264 8.6661 10.491 1.2967 69.081 0.47763 70.848-0.99044zm59.081 0.30101c1.2565-1.2565 1.583-4.1126 1.629-14.25 0.0317-6.9732 0.2095-14.254 0.39515-16.179 0.3667-3.8023 1.1886-24.819 2.112-54 0.32194-10.175 0.74715-19.175 0.94492-20s0.63794-20.85 0.97816-44.5c0.86532-60.152 1.7747-66.599 10.57-74.933 6.6574-6.3085 5.0645-9.229-2.0462-3.7517-6.03 4.66-11 12.93-11 18.34 0 2.1827-0.4253 6.9797-0.94511 10.66-0.51 3.68-1.17 29.19-1.45 56.69-0.74635 72.493-1.3184 77.404-11.415 98-3.5632 7.2684-12.765 16.36-19.737 19.501-15.053 6.7811-19.137 8.3052-20.313 7.5787-1.5677-0.9689-1.9126 0.38747-2.2682 8.92l-0.33336 8 24.986 0.52638c13.742 0.2895 25.291 0.627 25.665 0.75 0.37322 0.12299 1.3857-0.48352 2.25-1.3478zm-359.42-1.49c0-4.63-1.716-5.93-7.835-5.93-10.976 0-12.281 6.6953-1.4148 7.2584 3.7125 0.19241 7.3125 0.43797 8 0.54569s1.25-0.73372 1.25-1.8699zm412.25 0.67369c0.9625-0.73064 1.75-1.5849 1.75-1.8984s1.35-3.4867 3-7.0515 3-6.7462 3-7.0698c0-0.32-1.35-0.58-3-0.58-1.8815 0-3 0.5136-3 1.3776 0 2.7543-2.7563 3.4383-16.5 4.0946l-14 0.66853-3.1174-4.8584c-5.82-9.08-11.27-55.28-6.52-55.28 0.7511 0 1.1386 2.5747 1.1386 7.5657 0 9.4315 2.8618 15.609 4.2546 9.1843 1.3844-6.3863 18.621-59.138 23.321-71.372l5.43-14.12-0.03-16.38c-0.0407-20.356-1.4394-32.74-3.4687-30.71-0.27579 0.27579-2.0865 6.285-4.0239 13.354-1.9373 7.0688-4.1485 14.696-4.9137 16.95-0.7652 2.2538-2.1587 7.6822-3.0966 12.063-0.93793 4.3808-2.1024 9.7651-2.5876 11.965-0.48526 2.2-1.5887 7.825-2.452 12.5-3.7544 20.331-11.026 46.256-12.814 45.689-0.82142-0.26025-0.93505-29.752-0.13451-34.913 0.62306-4.0167 1.4796-25.57 2.0576-51.776 0.99304-45.026 2.4301-48.074 21.281-45.144 15.209 2.3645 19.185 6.1621 19.185 18.325 0 3.7033 0.37623 5.7044 1 5.3189 0.55-0.33992 1-3.7306 1-7.5348 0-10.118 3.1332-14.388 12.3-16.763 9.2114-2.3869 3.5943-3.2018-21.967-3.1869-28.539 0.0166-30.856 0.39232-36.056 5.8446l-3.2038 3.3597-0.004 28.64c-0.005 32.175-2.6847 154.72-3.6282 165.89l-0.61215 7.25 22.335-0.0318c16.987-0.0242 22.754-0.34992 24.085-1.3602zm61.25-0.12944c40.404-0.58204 66.637-1.2827 67.148-1.7934 0.33159-0.3316-1.0676-26.881-4.6475-88.185-0.51388-8.8-1.1822-23.875-1.485-33.5-1.1391-36.196-2.6973-66.568-3.5144-68.5-0.46523-1.1-1.6015-4.097-2.5251-6.6601-4.95-13.71-18.05-17.72-58.48-17.89-10.725-0.0438-22.088-0.17049-25.25-0.28157l-5.75-0.20195v3.2711c0 3.2164 2.0812 4.5668 3.5 2.2711 0.96294-1.5581 19.161-1.2526 21.785 0.36567 2.3511 1.4497 23.76 3.5221 39.215 3.7961 11.665 0.20681 19.36 4.6548 20.946 12.107 3.7892 17.809 4.8787 30.978 6.5551 79.232 0.57324 16.5 1.5552 38.209 2.1821 48.242 1.1663 18.665 0.52476 26.201-2.5934 30.466-2.11 2.88-15.08 3.79-54.09 3.79h-37.36l-1.9373 2.75c-3.81 5.41-18.2 30.15-18.2 31.29 0 0.83817 2.1799 1.002 7.75 0.58227 4.2625-0.32116 25.3-0.83673 46.75-1.1457zm-509.48-4.72c0.02514-8.6179-1.1916-8.2083 25.447-8.5665 16.078-0.21 23.538-0.66 23.538-1.4 0-0.77453-11.46-0.8925-39.953-0.41127-39.424 0.66584-39.967 0.64799-41.035-1.3475-2.384-4.4545-6.1386-1.5749-4.9602 3.8043 0.44258 2.0204 0.9696 5.4579 1.1712 7.6389 0.47261 5.1141 1.207 5.3086 20.527 5.4349l15.25 0.1 0.01531-5.25zm654.37 0.59475 13.883-0.66525-0.69257-24.09c-0.38-13.24-1.11-24.51-1.63-25.03-0.59-0.6-0.94 0.42-0.94 2.72 0 14.831-1.6005 15.412-45 16.338-38.263 0.81612-38 0.9675-38-21.88 0-3.8152-0.44349-13.303-0.98554-21.083-1.1598-16.647-2.8392-43.119-4.0697-64.146-1.7281-29.532-2.2476-35.5-3.0902-35.5-1.3865 0-0.34713 47.751 1.6651 76.5 1.366 19.517 2.5178 39.634 3.4637 60.5 0.92082 20.312 1.7696 36.822 1.949 37.91 0.0832 0.50474 54.413-0.65311 73.451-1.5654zm-205.27-20.227c2.5323-2.5323 3.8824-4.7926 3.8824-6.5 0-3.3814-1.1514-3.3242-3.2092 0.15927-3.5 5.9251-4.7355 6.4036-16.962 6.5696-9.8947 0.13437-11.342 0.3711-11.638 1.9034-0.30674 1.5894 0.7808 1.75 11.853 1.75h12.191l3.8824-3.8824zm-207.11 1.08c0-0.44488-0.56849-1.5863-1.2633-2.5366-1.767-2.4164-100.24-2.5827-102.65-0.17334-2.6651 2.6651-5.2655 2.555 77.66 3.287 14.438 0.12744 26.25-0.13228 26.25-0.57716zm-220.7-1.53c1.0601-2.7626-0.90919-3.9451-5.4399-3.2664-8.0046 1.199-40.051 0.91656-40.84-0.35988-1.8159-2.9382-0.93449-15.736 2.3501-34.124 1.9068-10.675 4.2043-24.359 5.1055-30.409 0.90126-6.05 4.9878-31.361 9.0813-56.247 4.094-24.88 7.443-46.37 7.443-47.75 0-1.83 0.533-2.5 2-2.5 1.1002 0 40.363-2.022 87.25-4.4932 74.53-3.93 109.96-6.03 155.75-9.21 6.32-0.44 39.29-0.8 73.25-0.8h61.75l-0.0153-2.5c-0.0332-5.4169 0.54742-5.3278-30.128-4.6197-94.638 2.1846-118.22 3.0078-162.86 5.6854-27.225 1.6331-73.35 4.3158-102.5 5.9615-71.853 4.0566-93.5 6.0703-100.5 9.3486-3.4849 1.6321-3.462 1.6372 5.3408 1.174 8.0356-0.42283 8.7797-0.30967 8.1704 1.2425-0.36872 0.93925-1.1029 4.1827-1.6315 7.2077-0.52858 3.025-1.4111 7.975-1.9611 11-2.3109 12.71-3.0522 16.992-8.3093 48-3.0306 17.875-6.2269 36.55-7.103 41.5s-2.4834 14.175-3.5717 20.5c-1.0884 6.325-2.3963 13.75-2.9066 16.5-3.3237 17.913-2.2878 25.085 4.0199 27.833 4.8006 2.0912 45.465 2.378 46.253 0.32626zm96.532-0.29346c-0.38197-1.9868-73.319-4.0109-74.517-2.068-1.8223 2.9532 0.84719 3.2062 37.654 3.568 35.897 0.35284 37.21 0.29941 36.864-1.5zm341.75-7.9372c0.64-3.39 0.7-3.43 5.92-3.43 5.6373 0 6.8268-1.018 5.7959-4.9601-0.35138-1.3437-1.0992-1.9472-1.9894-1.6056-2.64 1.02-9.31-3.21-9.31-5.89 0-7.8278-2.594-3.5318-3.5996 5.9613-0.40782 3.85-0.92275 6.2125-1.1443 5.25-0.62066-2.6965-2.2603-2.0709-2.025 0.77258 0.12635 1.5266 0.69312 2.3367 1.4355 2.0518 0.91078-0.3495 1.0934 0.86819 0.70884 4.7274l-0.51794 5.1982 2.0393-2.3214c1.1216-1.2767 2.3287-3.8642 2.6825-5.75zm-28.78 4.9175c4.4796-0.53799 5.5232-1.0693 6.7463-3.4346 1.9638-3.7976 0.93321-4.1124-7.624-2.3282-4.0432 0.84302-8.9062 1.3988-10.807 1.2351-4.6358-0.39939-5.2102 1.8048-0.95231 3.6539 3.8122 1.6555 5.2812 1.7571 12.637 0.8737zm-464.47-7.1c0.24525-0.4125 0.76958-4.9125 1.1652-10l0.71928-9.25h-6.9992c-7.82 0-8.213 0.34-8.213 7.17 0 5.37 11.251 15.57 13.328 12.08zm592.87-3.12c6.1695-2.3786 6.2064-3.2384 3.715-86.628-1.6858-56.425-3.481-69.938-9.9171-74.651-5.3157-3.892-39.264-5.9158-41.2-2.456-0.7865 1.4054-0.0475 1.6091 5.9006 1.6261 3.7398 0.0107 12.65 0.68123 19.8 1.49s13.102 1.475 13.227 1.4805c3.1626 0.13921 6.0288 16.689 6.2229 35.933 0.08 7.9325 0.32948 14.72 0.55434 15.084 0.22486 0.36383 0.6602 16.599 0.96742 36.077 0.30722 19.479 0.7895 40.005 1.0717 45.615 0.49032 9.7452 0.3904 10.419-2.2466 15.142l-2.7597 4.9429-13.019 0.59532c-7.1602 0.32742-24.417 0.88437-38.349 1.2376-26.57 0.67375-29.105 1.2292-26.4 5.7848 0.74958 1.2625 78.99 0.0537 82.432-1.2736zm92.8-0.98 5.5-0.65l2.8789-8.8613c1.661-5.1125 2.485-9.1315 1.9477-9.5-0.51213-0.35127-1.0273-4.4637-1.1447-9.1387-0.29847-11.879-2.0982-47.773-3.2341-64.5-2.6031-38.333-3.1498-44.406-4.4567-49.5-0.96882-3.7764-2.3936-6.3841-4.5465-8.3212-3.0317-2.7278-5.2934-3.0476-3.2031-0.45297 3.1593 3.9215 6.0069 15.698 6.5951 27.274 0.33537 6.6 1.0808 18.975 1.6565 27.5 5.222 77.327 5.1239 80.601-2.5652 85.639-3.1541 2.0666-60.193 1.6345-62.732-0.47531-3.621-3.0087-4.7493 1.1623-2.1032 7.7754l1.5924 3.9798 7.6576 0.2904c11.231 0.42592 49.772-0.29959 56.158-1.0571zm-218.74-50.417c7.0071-21.045 12.74-39.495 12.74-41 0-5.4664-2.4281-2.5106-5.9672 7.2642-0.69699 1.925-1.8525 4.85-2.5679 6.5-2.8856 6.6558-4.3974 11.274-5.4603 16.678-0.61415 3.1231-4.2414 14.979-8.0606 26.346-7.75 23.08-7.61 22.48-5.18 22.48 1.427 0 4.1686-7.2347 14.5-38.264zm112.3 34.97c1.1446-2.9829-1.3801-64.976-2.6789-65.779-1.9464-1.203-2.6401-0.32095-3.4044 4.329-0.38374 2.3346-3.1209 16.395-6.0825 31.245-6.5413 32.799-6.448 30.29-1.1438 30.768 9.5205 0.8575 12.818 0.71813 13.31-0.56252zm-248.45-5.95c-0.59907-1.6325-1.7566-2.3267-4.2178-2.5296-5.9322-0.48904-22.16-4.376-28.892-6.9202-14.398-5.4416-35.573-7.2561-61.05-5.2312-22.292 1.7717-17.801 2.931 11.355 2.931 29.706 0 34.277 0.70799 54.57 8.4523 5.558 2.121 12.155 3.781 17.304 4.354 12.72 1.4156 11.868 1.4978 10.931-1.0562zm353.64-0.0664c2.2968-2.2968 2.6052-12.201 0.87849-28.213-0.88791-8.2337-2.0754-23.52-2.639-33.97-0.95454-17.701-1.5517-25.974-3.8841-53.814-1.4106-16.836-3.435-17.625-45.879-17.879-20.395-0.12182-22.997 0.89746-21.781 8.533 0.33648 2.1124 1.0473 13.137 1.5796 24.5 3.0926 66.015 5.7823 95.471 9.2532 101.33 1.5749 2.6604 59.777 2.2031 62.471-0.49088zm-604.9 0.68 6.15-0.64-0.13-31.61c-0.08-17.39-0.41-43.99-0.75-59.11l-0.62-27.5-6.73-0.3c-13.46-0.59-14.998 2.32-22.646 42.8-4.2887 22.697-10.127 66.089-10.124 75.25 0.000514 1.8984 20.925 2.5634 34.854 1.1075zm298.63-1.2352c28.431-0.57095 31.015-0.76669 31.323-2.3723 0.39273-2.0483-15.456-2.5336-26.054-0.79776-3.1587 0.51736-13.733 1.0218-23.498 1.1209-19.09 0.2-20.25 0.35-20.25 2.67 0 1.2291 0.72539 1.3771 3.75 0.76531 2.0625-0.41719 17.695-1.0386 34.738-1.3808zm-243.48-1.06l19.5-0.89986 5.6405-3.3973c5.8899-3.5475 13.002-5.2861 26.86-6.5665l7.5-0.69293 0.25907-50.587c0.31878-62.244 7.4245-53.892-46.019-54.089-57.38-0.21198-51.348-8.0104-50.345 65.079 0.81717 59.592-0.35945 52.988 9.3484 52.468 4.27-0.23 16.54-0.82 27.26-1.31zm-126.6-28.9c0.855-1.38 17.744-103.35 17.207-103.89-0.634-0.63-11.208-0.85-24.608-0.5-11.88 0.31-14.516 1.49-15.605 6.98l-0.645 3.25h9.4025c7.1585 0 9.9706 0.3979 11.783 1.6672l2.3803 1.6672-0.68835 41.831c-0.8217 49.934 0.51198 44.696-11.471 45.05-9.1527 0.27021-9.6731 0.40246-9.976 2.5351-0.33271 2.3426 20.815 3.6841 22.221 1.4096zm599.99-88.74c0.34-0.87 0.61-3.58 0.61-6.02 0-5.1521 1.2168-7.6693 5.8757-12.155l3.3757-3.25h27.249c35.22 0 35.165-0.0163 41.602 12.373 5.2671 10.138 6.6844 3.2102 2.9405-14.373-3.5552-16.697-2.5301-16-23.523-16-5.6108 0-13.76-0.43729-18.11-0.97176s-14.659-1.1972-22.909-1.4727c-15.834-0.52877-34.181-1.445-80-3.9951-70.57-3.9277-66.826-3.8628-64.548-1.1187 1.0235 1.2333 9.5746 2.0562 32.548 3.1324 5.5 0.25765 16.075 0.89641 23.5 1.4195 7.425 0.52306 18.9 1.1959 25.5 1.4951 29.535 1.3391 39.689 9.1366 42.674 32.769 1.1958 9.4676 1.967 11.423 3.2188 8.1607zm-158.96-31.39c1.689-0.53092 4.2773-1.2067 5.7517-1.5016 1.802-0.36053 2.7853-1.2689 3-2.7712 0.3663-2.5636 4.3544-3.6074 14.153-3.7042 3.4204-0.0338 5.6954-0.47128 5.5-1.0576-0.18333-0.55-0.67083-1-1.0833-1h-11.619-10.869l-5.1306 4.0851c-7.0613 5.6223-6.9309 8.222 0.29837 5.9496zm235.2-12.28c-0.33164-1.2375-0.60913-3.2677-0.61664-4.5115-0.0336-5.5596-20.097-10.385-48.514-11.668-10.735-0.4847-53.032-3.0996-65-4.0184-3.3-0.25335-13.875-0.93318-23.5-1.5107-21.811-1.3088-31.95-1.9645-39-2.5224-3.025-0.23938-11.078-0.72244-17.896-1.0735l-12.396-0.63825 0.63873 3.3465c1.663 8.7128 2.4502 11.976 3.029 12.555 0.34582 0.34582 26.84 2.1398 58.877 3.9867s75.798 4.4119 97.248 5.7001c51.988 3.1222 47.864 3.0911 47.13 0.3551zm-221.27-9.25c-0.0765-2.2-0.42291-6.925-0.76978-10.5-0.82836-8.5375 0.68664-5.3688 2.9882 6.25l1.7333 8.75h4.2199 4.2199l0.50266-5.75c0.33308-3.81 0.0107-6.9308-0.95552-9.25-0.80201-1.925-2.243-6.65-3.2023-10.5l-1.7441-7h-4.4266-4.4266l0.32151 5.25c0.20006 3.2669-0.0832 5.25-0.75 5.25-0.58933 0-1.0858-0.7875-1.1033-1.75-0.044-2.418-2.0457-4.8224-4.722-5.6719-2.9421-0.93378-3.0377 1.9499-0.24616 7.4219 1.3465 2.6394 2 5.8938 2 9.9602 0 5.3732 0.22076 6.0398 2 6.0398 2.246 0 2.5087 1.181 0.92213 4.1455-0.95053 1.7761-0.80287 1.975 1.25 1.6842 2.0227-0.28653 2.3096-0.85407 2.1888-4.3298zm6.8891-1.2183c-1.697-0.60874-1.587-3.9384 0.15223-4.6058 1.7445-0.66943 2.5978 0.1293 2.5978 2.4318 0 2.049-0.96717 2.8136-2.75 2.1741zm-446.5 2.47c-0.22917-0.6875-0.71667-1.1375-1.0833-1-0.367 0.14-2.242 0.25-4.167 0.25s-3.5 0.45-3.5 1 2.0625 1 4.5833 1c3.2222 0 4.4596-0.37121 4.1667-1.25zm6.8933-2.2627c1.1197-2.9179-1.8073-4.9708-3.2864-2.3049-0.70728 1.2747-1.3019 2.6552-1.3214 3.0677-0.06727 1.4239 4.0289 0.74584 4.6078-0.76273zm-12.643-2.46c0-1.339-0.47971-1.7845-1.5-1.393-0.825 0.31659-1.5 1.2025-1.5 1.9686 0 0.76615 0.675 1.393 1.5 1.393 0.82536 0 1.5-0.8854 1.5-1.9686zm437 1.034c0-1.4096-2.7821-14.339-3.4712-16.132-0.33304-0.86652-3.9878-2.6545-8.1766-4-7.6004-2.4415-9.5931-4.0922-7.485-6.2003 1.5238-1.5238 1.4947-10.733-0.0339-10.733-0.64166 0-0.91015-0.25651-0.59663-0.57003 0.31351-0.31351 3.651 0.40483 7.4167 1.5963 6.0953 1.9286 14.955 4.3738 25.32 6.9878 3.4162 0.86159 6.0268 3.2535 6.0268 5.522 0 2.2318 3.5505 4.0565 8.3819 4.3078l4.8819 0.25392-0.58927-4.7989c-2.1427-17.45-6.1269-22.078-19.175-22.27-8.4227-0.12441-6.9997-5.7678 2.2418-8.8907 3.7904-1.2808 5.6871-2.0047 10.258-3.9149 1.375-0.57459 7-2.6938 12.5-4.7093s10.9-4.0797 12-4.5871c1.1-0.50735 5.825-2.316 10.5-4.0192 23.139-8.43 27.146-9.9322 35.461-13.296 4.9285-1.9937 10.656-4.7469 12.729-6.1182 2.0722-1.3713 4.1148-2.5033 4.5391-2.5156 0.42429-0.0122 1.8017-0.81505 3.0609-1.784l2.2894-1.7618-0.0578-44.202c-0.06-56.324-1.01-62.681-9.86-66.1-8.39-3.2415-39.98-3.9557-73.24-1.6555-11.78 0.8143-32.21 2.1784-45.41 3.0313-60.6 3.9162-93.34 6.8332-146.5 13.054-6.875 0.80456-22.85 2.5952-35.5 3.9792-23.444 2.5649-71.855 9.9986-74.411 11.426-13.09 7.31-77.01 73.059-97.74 100.53-28.683 38.02-30.318 42.58-14.85 41.44 32.624-2.412 42.703-3.0733 68-4.4611 15.4-0.84488 35.875-1.9731 45.5-2.5071 54.078-3.0005 56.711-3.1296 124-6.0792 63.345-2.7767 119.63 4.6909 120.18 15.944 0.27492 5.6508 0.2397 6.4426-0.43355 9.7478-0.58016 2.8482-0.32771 3.2158 3.3108 4.8211 6.7142 2.9623 14.669 11.005 15.448 15.619 0.58204 3.4451 3.496 5.9804 3.496 3.0417zm-25.501-97.063c1.5411-2.4935 18.433-17.404 33.988-30.002 3.7351-3.025 10.064-8.2579 14.065-11.629 4.0007-3.3708 15.526-12.566 25.611-20.434 10.09-7.866 19.92-15.791 21.84-17.61 1.925-1.819 4.175-3.3073 5-3.3073 0.92097 0 0.14703 1.2512-2.0049 3.2413-18.239 16.868-45.956 40.546-63.493 54.241-7.0426 5.5-13.301 10.45-13.907 11-0.6062 0.55-4.7006 3.6977-9.0988 6.9948-4.3981 3.2972-8.5912 6.5597-9.318 7.25-1.5711 1.4924-3.5612 1.6833-2.6798 0.25709zm-404.2 95.657c0.82625-2.1532-0.69178-3.6313-3.0863-3.0051-2.5044 0.65492-2.7484 1.4116-1.0142 3.1458 1.5874 1.5874 3.462 1.5231 4.1005-0.14068zm630.7-6.56c0-4.2399-18.136-18.52-26.5-20.866-2.75-0.77129-6.35-1.7869-8-2.2568-11.387-3.2432-30.264-5.7051-57.5-7.4991-4.675-0.30793-9.2875-0.79616-10.25-1.0849-2.6711-0.80142-2.1805 1.8805 1.6266 8.8915 1.8571 3.42 3.9642 8.6932 4.6825 11.718 0.71827 3.025 1.5613 5.7882 1.8734 6.1404 0.52344 0.5907 4.2022 0.89258 29.567 2.4262 4.95 0.2993 10.35 0.72377 12 0.94328 1.65 0.2195 11.095 0.90246 20.99 1.5177 9.8944 0.61521 18.182 1.3107 18.417 1.5455 1.59 1.59 13.09 0.29 13.09-1.48zm-289.59-10.95c0.68-1.1-3.97-5.15-5.92-5.15-2.0512 0-1.8724 0.96664 0.68192 3.6856 2.2358 2.38 4.3085 2.9603 5.2326 1.4651zm-12.91-2.67c0-3.3103-5.7506-3.2748-7.9284 0.0489l-1.7268 2.6355 4.8276-0.35113c4.0284-0.293 4.8276-0.67929 4.8276-2.3333zm245.5-19.91c0-3.708-5.0946-5.8342-18.152-7.5756-4.0415-0.53901-10.273-1.4201-13.848-1.9579-7.827-1.1776-29.19-0.22066-30.235 1.3543-1.9369 2.9206-0.88574 3.2276 15.735 4.5942 7.15 0.58792 16.825 1.485 21.5 1.9936 4.675 0.50856 11.625 1.1835 15.444 1.4999 3.8194 0.31639 7.1568 0.78784 7.4167 1.0477 0.95831 0.95831 2.1391 0.43051 2.1391-0.95617zm-97-8.0157c0-6.1404-13.752-8.0404-21.492-2.9692-4.0413 2.648-3.0016 3.3124 5.7418 3.6694 4.5375 0.1853 9.9375 0.42849 12 0.54044 2.6963 0.14635 3.75-0.20227 3.75-1.2407zm41.554-6.6429c1.5937-2.5786-28.101-7.4268-30.771-5.0239-3.868 3.4813 0.41409 5.057 14.577 5.364 7.7772 0.16859 14.451 0.40564 14.831 0.52679 0.38004 0.12114 0.99333-0.26895 1.3629-0.86687zm49.71 700.85c0.45533-1.1866-0.47865-1.8286-3.9216-2.6955-16.456-4.1438-34.757-20.476-43.211-38.564-4.026-8.6139-4.2821-11.125-2.6862-26.346 0.78738-7.5097 1.7243-18.604 2.082-24.654 0.58402-9.8768 1.1991-14.786 4.5103-36 1.8455-11.824 2.8488-17.098 4.4701-23.5 2.6415-10.431 3.5814-14.32 4.1712-17.262 0.30458-1.5192 0.95189-3.0083 1.4385-3.309 0.48658-0.30072 0.8847-1.2007 0.8847-1.9999 0-3.0068 7.3344-16.547 10.126-18.693 1.5989-1.2295 4.1371-3.1854 5.6406-4.3464 17.685-13.657 40.701-16.909 54.989-7.769 2.906 1.8589 5.7249 3.3799 6.2642 3.3799 0.53932 0 0.98058 0.45 0.98058 1s0.63686 1 1.4152 1c1.4525 0 2.4045 0.94234 11.953 11.831 8.636 9.8485 15.503 22.446 18.898 34.669 6.6899 24.082 6.9392 52.292 0.71141 80.5-0.54643 2.475-1.2757 5.9734-1.6205 7.7743-0.34486 1.8009-1.0164 3.5149-1.4922 3.809-0.47587 0.2941-0.86522 1.1709-0.86522 1.9484 0 0.77751-1.1716 4.0134-2.6035 7.191-1.4319 3.1775-3.1071 6.9023-3.7226 8.2773-4.1873 9.354-26.525 33.943-30.88 33.992-0.3883 0.004-2.9483 1.3301-5.6888 2.946-4.8318 2.849-13.4 5.3913-21.605 6.4104-2.2 0.27325-5.538 0.82801-7.4178 1.2328-2.8579 0.6154-3.3199 0.48082-2.8202-0.82155zm31.829-51.897c8.8152-6.555 9.8125-9.567 1.9024-5.7453-13.944 6.7369-30.467-1.731-41.801-21.422-4.5462-7.8985-4.0651-28.55 1.0474-44.96 6.4513-20.707 29.364-36.211 42.266-28.599 4.3102 2.5431 6.0209 1.5412 5.0347-2.9488-0.53099-2.4176-1.7374-3.5198-6.1285-5.5988-6.6998-3.1722-8.4096-3.2929-7.6905-0.54294 1.2214 4.6705-6.0489 6.3588-12.722 2.9543-7.7468-3.9521-19.624 3.4105-13.883 8.606 4.0845 3.6964-0.29446 12.881-5.6828 11.92-4.3492-0.77621-6.8651 2.3789-8.751 10.974-2.2454 10.234-2.3106 12.767-0.39894 15.496 2.7262 3.8923 2.2702 10.586-0.92297 13.545-4.0244 3.7296-0.86317 24.459 3.7299 24.459 4.3969 0 9.0838 7.9355 6.9936 11.841-1.5981 2.986-1.397 3.734 2.0634 7.6752 4.6486 5.2945 8.4656 7.0733 9.8056 4.5697 2.793-5.2188 13.622-4.3587 14.656 1.164 0.0772 0.4125 0.19656 0.975 0.26531 1.25 0.3955 1.582 4.1348-0.11543 10.216-4.6375zm2.2514-11.612c0.25329-0.4125-0.21914-2.7574-1.0498-5.2109-1.1376-3.36-1.2367-4.8991-0.4015-6.2364 2.3016-3.6854 1.3717-5.5489-1.8962-3.8-1.2594 0.674-2.08 0.66866-2.5034-0.0163-1.4449-2.3378-2.5758 0.58434-2.3754 6.1377 0.12543 3.4759-0.26949 6.4293-0.95081 7.1106-0.64 0.64-1.16 1.52-1.16 1.96 0 1.0132 9.7222 1.0602 10.342 0.05zm-16.784-9c1.1111-5.1194 2.6641-7.25 5.2846-7.25h2.5053l-1.9897-2.25c-1.0943-1.2375-2.7582-3.4875-3.6974-5-2.2225-3.579-3.0536-3.4698-5.6576 0.74364-1.8487 2.9913-2.4431 3.3417-4.134 2.4368-3.3669-1.8019-5.3551-0.82205-3.1848 1.5696 0.99817 1.1 2.4466 3.8 3.2188 6 2.2833 6.5057 6.598 8.6194 7.6548 3.75zm31.036-4.4365 2.4385-4.8122-3.2665-2.9714c-3.9858-3.6256-3.623-3.6587-7.2167 0.65867l-2.9502 3.5442 2.7002 1.967c2.0544 1.4966 2.7002 2.8134 2.7002 5.506 0 4.5565 2.0282 3.1454 5.5945-3.8924zm-16.79-6.56c-0.18536-0.9625-1.2247-1.75-2.3096-1.75s-2.1243 0.7875-2.3096 1.75c-0.25243 1.3108 0.32729 1.75 2.3096 1.75s2.5621-0.43925 2.3096-1.75zm-23.417-8.8318c0.33385-0.86998 0.60699-2.67 0.60699-4 0-2.11 0.46-2.42 3.55-2.42h3.5499l-0.29991-5.75-0.2999-5.75-3.2784 0.31777c-2.8789 0.27905-3.4087-0.0559-4.3474-2.7488-1.5879-4.5552-2.5131-3.0095-3.2828 5.4846-1.0764 11.879 1.3328 21.298 3.8016 14.865zm31.41-0.62c1.7775-1.7775 1.4775-2.5138-1.2354-3.0324-3.7101-0.70923-5.5431 0.90539-3.1235 2.7514 2.3494 1.7925 2.8172 1.8227 4.3589 0.281zm-11.407-6.3818c1.0628-2.7697 0.65751-5.7049-1.048-7.5895-3.4055-3.763-5.5907-0.86307-4.5733 6.0691 0.50572 3.4457 4.471 4.5182 5.6213 1.5204zm27.61-3.98v-5.5604l-3.75 0.31036c-2.0625 0.17071-3.6375 0.64787-3.5 1.0604 0.1375 0.4125 0.25 2.775 0.25 5.25 0 4.4762 0.0185 4.5 3.5 4.5h3.5v-5.5604zm-15.75-3.0556c1.6711-0.58945 2.4291-4.3716 1.1354-5.6653-1.2686-1.2686-5.3854 2.5379-5.3854 4.9796 0 1.6188 0.43023 2.2678 1.25 1.8856 0.6875-0.32048 2.0375-0.86047 3-1.2zm-18.446-15.852c0.59097-1.297 2.0019-2.6526 3.1354-3.0124 1.13-0.36 2.06-1.07 2.06-1.59 0-0.51 2.38-0.93 5.3-0.93h5.2974l-0.41793-6.5634c-0.36951-5.8031-0.15933-6.8043 1.8146-8.6432l2.2325-2.0799-3.2268-1.3568c-7.9835-3.3568-10.756-1.5537-8.4508 5.4953 1.5966 4.8815 1.5862 4.9776-0.97883 9.041-4.7473 7.5202-8.3484 4.5851-7.3335-5.9771 0.59672-6.2101-0.3262-6.8706-3.3651-2.4082-1.3029 1.9133-2.6542 3.4817-3.0028 3.4855-0.74452 0.008-5.3072 10.94-4.7469 11.373 0.2094 0.16192 1.9557 0.72327 3.8807 1.2474 2.4426 0.66511 3.5944 1.606 3.8123 3.1144 0.38687 2.6774 2.5172 2.0388 3.9913-1.1964zm18.011 1.2183c0.25774-1.359-0.35471-1.75-2.7414-1.75-2.4396 0-3.0733 0.42611-3.0733 2.0664 0 2.6815 5.3009 2.3931 5.8148-0.31642zm9.19-0.74c0-1.1764 0.83179-1.9901 2.2398-2.191 3.5962-0.51307 3.5529-3.1448-0.17711-10.76-1.3179-2.6906-2.9675-2.2062-3.8229 1.1226-0.60088 2.3382-1.8244 3.7819-4.1436 4.8891l-3.291 1.5712 2.642 1.7311c1.4531 0.95212 3.0711 2.8597 3.5955 4.239 1.0469 2.7536 2.9572 2.3647 2.9572-0.60194zm-112.32 63.288c-1.22-1.974-1.9057-42.098-0.8681-50.799 1.143-9.5848 2.5004-25.241 4.1617-48 1.4951-20.482 4.1836-40.497 5.4429-40.519 24.654-0.43776 29.578-0.35128 29.562 0.51916-0.0104 0.55-1.2582 3.25-2.773 6s-4.0298 9.05-5.5888 14-3.2365 9.7814-3.7277 10.736c-0.49119 0.95504-0.89307 2.841-0.89307 4.191s-0.38928 2.6951-0.86506 2.9892c-0.47578 0.29405-1.1391 2.2331-1.474 4.309-0.33491 2.0759-1.3342 6.2494-2.2205 9.2744-4.1514 14.168-3.6903 10.873-7.9068 56.5-1.5248 16.5-2.9355 30.179-3.1349 30.399-0.79517 0.8742-9.207 1.2206-9.7142 0.40001zm639.9-42.324c-12.547-8.9766-16.097-13.957-21.195-29.73-11.671-36.111-11.836-64.372-0.5888-100.75 12.641-40.881 47.481-45.643 62.196-8.5 1.1984 3.025 2.5478 6.4 2.9987 7.5 1.8987 4.6323 4.573 18.266 6.0809 31.001 1.6253 13.726 0.2342 53.79-2.0486 58.999-0.8288 1.8912-1.3754 4.0835-2.7308 10.952-0.3204 1.6236-2.0357 5.6736-3.8117 9-9.4811 17.758-8.7794 17.005-21.985 23.566-8.2773 4.1122-10.675 3.8532-18.916-2.0426zm20.89-36.662c2.2216-1.7727 4.2493-4.7758 5.6013-8.2957 1.1656-3.0344 2.4814-6.4172 2.9242-7.5172 3.3488-8.3197 4.9598-13.768 5.4703-18.5 0.3264-3.025 1.0858-8.343 1.6876-11.818 2.676-15.452-6.9679-42.889-16.402-46.663-8.1108-3.2453-12.908-0.56082-6.6885 3.7424 10.483 7.2528 18.314 32.035 15.4 48.739-3.7143 21.293-8.2335 31.936-17.12 40.32-6.8803 6.4912 0.9907 6.485 9.1271-0.007zm-10.429-3.0173c19.966-22.74 17.078-86.015-3.8376-84.066-3.6154 0.33694-3.6455 0.37286-1.2077 1.4431 18.978 8.3317 16.574 82.327-2.6743 82.327-2.5678 0-2.9572 0.9685-1.1257 2.8 2.2191 2.2191 5.5182 1.285 8.8453-2.5044zm-12.7-30.58c0.7521-1.1924 0.7063-2.0056-0.1619-2.8738-1.4872-1.4872-1.8839-1.1281-2.804 2.5382-0.8012 3.1919 1.0333 3.3994 2.9659 0.33557zm-5.5828-4.0509c0.1871-0.96457-0.3148-1.6671-1.191-1.6671-1.8577 0-2.9789 1.6302-2.0997 3.0528 0.9046 1.4636 2.9012 0.62281 3.2907-1.3857zm9.0268-7.2248c0.9-0.75-1.1-2.45-2.8-2.45-2.1696 0-3.4113 1.5255-2.4749 3.0407 0.5376 0.86977 4.1183 0.4674 5.325-0.59838zm8.2-8.51c0-1.0675-0.675-1.941-1.5-1.941-1.4832 0-2.0967 3.0699-0.8605 4.3062 1.0426 1.0426 2.3605-0.27794 2.3605-2.3652zm-13-4.826c0-0.79-4.3-4.11-5.4-4.11-1.1852 0-1.5388 3.4487-0.4261 4.1547 1.725 1.0945 5.7839 1.0666 5.7839-0.0397zm2.8131-9.865c-0.4193-2.2-4.8131-3.0243-4.8131-0.90288 0 0.81742 0.5625 1.7132 1.25 1.9906 2.5499 1.0289 3.8886 0.62022 3.5631-1.0877zm-444.63 103.04c-1.7118-0.32624-2.1455-0.88475-1.6416-2.1138 1.3708-3.3438 1.6737-29.858 0.48126-42.129-1.0381-10.682-2.5372-17.929-7.9727-38.541-0.83987-3.1849-4.2181-12.009-6.5079-17-0.75708-1.65-2.3482-5.4721-3.5359-8.4935-2.0175-5.1324-3.6854-8.3627-10.43-20.201-1.471-2.5817-4.2098-6.0419-6.0861-7.6894-1.8764-1.6475-3.7008-4.1477-4.0542-5.556-0.42918-1.71-1.3541-2.5869-2.7843-2.6396-1.1779-0.0434-1.628-0.2896-1.0004-0.54707 0.62767-0.25747 4.1431 0.22806 7.8121 1.079 3.669 0.85089 7.7145 1.5471 8.9901 1.5471 2.8836 0 6.597 4.695 10.457 13.221 1.5634 3.4534 4.2504 9.3276 5.9711 13.054 1.7207 3.7263 3.1403 7.3263 3.1546 8 0.0143 0.67373 1.1477 4.6 2.5187 8.725 9.7384 29.302 15.123 103.25 7.271 99.864-0.17366-0.0749-1.3626-0.33571-2.6422-0.57957zm-12.67-9.7c-2.2-0.72593-10.164-3.067-17.697-5.2023-15.469-4.3848-14.76-3.6721-14.801-14.882-0.22122-60.469-66.593-105.82-102.43-69.984-3.3312 3.3312-4.9657 3.2262-4.1459-0.26635 1.2751-5.4327 5.0994-13.216 6.5018-13.233 0.78674-0.009 6.0747-4.9271 11.751-10.928 6.4083-6.7751 11.931-11.67 14.57-12.912 10.979-5.1687 15.84-6.9652 23.249-8.5916 4.4-0.96589 9.3046-2.1678 10.899-2.6708 9.1095-2.8739 20.909-0.57824 29.108 5.663 1.7492 1.3316 5.2259 2.5834 8.312 2.9928 5.7363 0.76095 10.868 6.6525 17.429 20.009 1.3293 2.7064 5.5878 11.221 9.4633 18.921 7.3026 14.509 8.2202 17.37 13.267 41.369 2.7318 12.989 3.0219 16.133 3.0219 32.75v18.381l-2.25-0.0477c-1.2375-0.0263-4.05-0.64168-6.25-1.3676zm-165.17-96.05 2.08-8.53l6.0454 0.007c11.048 0.013 19.654 1.1574 18.565 2.4688-0.5415 0.65246-2.0696 4.0748-3.3958 7.6052l-2.4113 6.4189-11.479 0.28064-11.479 0.28063 2.0775-8.5306zm-1.9322-12.932c-0.50189-1.3079 0.78122-8.3235 4.5903-25.099 0.49955-2.2 1.4152-6.475 2.0347-9.5 3.0947-15.11 6.9251-20.27 16.187-21.806 12.527-2.0773 97.927-5.4895 99.409-3.9719 1.9091 1.9552 2.8576 6.7777 1.333 6.7777-1.5652 0-62.343 4.6717-77.717 5.9737-23.016 1.9492-28.681 8.0591-34.48 37.191l-2.25 11.33-4.2592 0.30794c-3.092 0.22356-4.4187-0.10782-4.8414-1.2093zm15.86-6.35c0.5595-8.4048 6.7592-25.512 10.807-29.821 3.9188-4.1714 14.552-6.226 43.434-8.3924 14.85-1.1139 33.622-2.557 41.717-3.2068 19.73-1.5841 24.275 0.52067 16.697 7.7328-5.2806 5.0257-5.4874 6.14-1.9548 10.536 3.9228 4.8814 2.9996 4.9165-3.9724 0.15127-5.0531-3.4536-6.0398-3.75-12.487-3.75-18.67 0-32.824 2.2067-42.5 6.6258-1.375 0.62799-3.625 1.628-5 2.2222-6.0883 2.6312-14.609 9.631-21.085 17.321l-7.03 8.33h-9.5784-9.5784l0.51591-7.75z"/>
</svg>
