<?xml version="1.0" encoding="UTF-8" standalone="no"?>
<!-- Generator: Adobe Illustrator 16.0.0, SVG Export Plug-In . SVG Version: 6.00 Build 0)  -->

<svg
   xmlns:dc="http://purl.org/dc/elements/1.1/"
   xmlns:cc="http://creativecommons.org/ns#"
   xmlns:rdf="http://www.w3.org/1999/02/22-rdf-syntax-ns#"
   xmlns:svg="http://www.w3.org/2000/svg"
   xmlns="http://www.w3.org/2000/svg"
   xmlns:sodipodi="http://sodipodi.sourceforge.net/DTD/sodipodi-0.dtd"
   xmlns:inkscape="http://www.inkscape.org/namespaces/inkscape"
   version="1.1"
   id="_x31_8_wheeler"
   x="0px"
   y="0px"
   width="619.792px"
   height="201.042px"
   viewBox="0 0 619.792 201.042"
   enable-background="new 0 0 619.792 201.042"
   xml:space="preserve"
   sodipodi:docname="18 wheeler.svg"
   inkscape:version="0.92.0 r15299"><title
     id="title4032">18 wheeler</title><metadata
     id="metadata4030"><rdf:RDF><cc:Work
         rdf:about=""><dc:format>image/svg+xml</dc:format><dc:type
           rdf:resource="http://purl.org/dc/dcmitype/StillImage" /><dc:title>18 wheeler</dc:title><dc:date>8/4/2017</dc:date><dc:creator><cc:Agent><dc:title>cactus cowboy</dc:title></cc:Agent></dc:creator></cc:Work></rdf:RDF></metadata><defs
     id="defs4028" /><sodipodi:namedview
     pagecolor="#ffffff"
     bordercolor="#666666"
     borderopacity="1"
     objecttolerance="10"
     gridtolerance="10"
     guidetolerance="10"
     inkscape:pageopacity="0"
     inkscape:pageshadow="2"
     inkscape:window-width="1920"
     inkscape:window-height="1052"
     id="namedview4026"
     showgrid="false"
     inkscape:zoom="1"
     inkscape:cx="309.896"
     inkscape:cy="100.521"
     inkscape:window-x="-9"
     inkscape:window-y="-9"
     inkscape:window-maximized="1"
     inkscape:current-layer="_x31_8_wheeler" /><g
     id="truck_parts"><rect
       x="222.827"
       y="149.313"
       fill="#A89187"
       stroke="#000000"
       stroke-width="0.6435"
       stroke-linejoin="round"
       width="57.366"
       height="29.004"
       id="rect3680" /><polygon
       fill="#A89187"
       stroke="#000000"
       stroke-width="0.6435"
       stroke-linejoin="round"
       points="239.83,135.025 266.548,135.025    261.047,141.953 244.473,141.953  "
       id="polygon3682" /><polygon
       fill="#A89187"
       stroke="#000000"
       stroke-width="0.8573"
       points="419.787,143.382 455.507,143.382 456.792,143.597    458.008,144.239 458.866,145.312 459.723,146.598 459.936,147.382 459.936,148.456 459.936,153.742 459.936,154.956    459.723,156.028 458.866,157.314 458.008,158.098 456.792,158.743 455.507,158.956 419.787,158.956 418.716,158.743    417.716,158.314 416.43,157.527 415.787,156.457 415.358,154.956 415.358,153.742 415.358,148.456 415.358,147.382    415.573,146.598 416.215,145.312 417.288,144.239 418.5,143.597  "
       id="polygon3684" /><rect
       x="486.226"
       y="138.381"
       fill="#A89187"
       stroke="#000000"
       stroke-width="0.8573"
       width="114.161"
       height="21.647"
       id="rect3686" /><rect
       x="530.805"
       y="162.957"
       fill="#A89187"
       stroke="#000000"
       stroke-width="0.6435"
       stroke-linejoin="round"
       width="26.219"
       height="15.789"
       id="rect3688" /><rect
       x="531.591"
       y="164.671"
       stroke="#000000"
       stroke-width="0.6435"
       stroke-linejoin="round"
       width="24.861"
       height="1.215"
       id="rect3690" /><rect
       x="531.805"
       y="167.386"
       stroke="#000000"
       stroke-width="0.6435"
       stroke-linejoin="round"
       width="24.647"
       height="1.072"
       id="rect3692" /><rect
       x="531.805"
       y="170.529"
       stroke="#000000"
       stroke-width="0.6435"
       stroke-linejoin="round"
       width="24.647"
       height="1.073"
       id="rect3694" /><rect
       x="531.805"
       y="173.672"
       stroke="#000000"
       stroke-width="0.6435"
       stroke-linejoin="round"
       width="24.647"
       height="1.073"
       id="rect3696" /><rect
       x="531.805"
       y="176.387"
       stroke="#000000"
       stroke-width="0.6435"
       stroke-linejoin="round"
       width="24.647"
       height="1.072"
       id="rect3698" /><rect
       x="238.544"
       y="160.886"
       stroke="#000000"
       stroke-width="0.8573"
       width="24.861"
       height="1.213"
       id="rect3700" /><rect
       x="238.758"
       y="163.814"
       stroke="#000000"
       stroke-width="0.8573"
       width="24.647"
       height="1.072"
       id="rect3702" /><rect
       x="238.758"
       y="166.744"
       stroke="#000000"
       stroke-width="0.8573"
       width="24.647"
       height="1.286"
       id="rect3704" /><rect
       x="238.758"
       y="169.887"
       stroke="#000000"
       stroke-width="0.8573"
       width="24.647"
       height="1.286"
       id="rect3706" /><rect
       x="238.758"
       y="172.602"
       stroke="#000000"
       stroke-width="0.8573"
       width="24.647"
       height="1.286"
       id="rect3708" /><polygon
       fill="#FFFFFF"
       stroke="#000000"
       stroke-width="0.8573"
       points="143.528,132.453 152.172,132.237 152.172,20.219    153.887,17.504 154.102,15.79 154.458,13.719 154.458,11.79 154.458,10.147 154.458,8.433 154.102,6.789 153.887,5.29    152.172,5.718 150.672,6.147 149.029,7.003 147.958,7.789 146.958,8.646 145.243,10.789 144.6,11.79 144.171,13.075    143.742,13.932 143.528,15.361 143.528,16.434  "
       id="polygon3710" /><polygon
       fill="#FFFFFF"
       stroke="#000000"
       stroke-width="0.6435"
       stroke-linejoin="round"
       points="110.523,62.655 117.31,62.655    118.096,65.226 107.594,65.442 107.809,64.156 108.879,63.083 110.166,62.87  "
       id="polygon3712" /><polygon
       fill="#A89187"
       stroke="#000000"
       stroke-width="0.8573"
       points="63.659,158.098 191.464,158.098 194.251,157.527    196.322,157.098 198.251,155.599 225.327,141.953 226.828,141.096 228.47,140.882 229.756,140.454 231.614,140.454    282.336,140.454 282.336,154.527 279.55,154.527 277.264,154.527 274.763,154.527 238.401,154.527 234.4,154.313 232.471,154.527    230.828,154.956 198.251,172.386 196.751,173.244 194.607,173.888 191.893,174.101 63.659,174.101  "
       id="polygon3714" /><polygon
       stroke="#A89187"
       stroke-width="0.6435"
       stroke-linejoin="round"
       points="10.936,156.457 19.722,157.527 20.58,169.03    11.721,168.458  "
       id="polygon3716" /><rect
       x="24.366"
       y="145.954"
       stroke="#A89187"
       stroke-width="0.6435"
       stroke-linejoin="round"
       width="55.295"
       height="23.505"
       id="rect3718" /><rect
       x="80.947"
       y="135.025"
       stroke="#A89187"
       stroke-width="0.6435"
       stroke-linejoin="round"
       width="65.153"
       height="30.861"
       id="rect3720" /><polygon
       fill="#EB8D3D"
       stroke="#000000"
       stroke-width="0.8573"
       points="153.887,130.167 155.315,130.808 156.602,131.666    157.887,133.094 158.674,134.167 159.531,135.596 160.173,137.311 160.817,139.025 161.246,140.454 161.459,142.381    161.817,143.81 194.607,143.81 196.322,144.026 197.823,144.239 198.823,144.883 199.894,146.169 200.751,147.169 201.824,148.456    204.11,152.456 198.608,155.599 197.18,156.457 195.251,157.527 192.965,157.885 149.886,157.885 143.171,144.883 143.171,128.093    147.314,128.237 149.244,128.452 151.958,129.094  "
       id="polygon3722" /><polygon
       fill="#EB8D3D"
       stroke="#000000"
       stroke-width="0.8573"
       points="99.449,69.798 98.378,68.585 99.592,67.299    100.665,66.442 102.164,66.013 103.808,65.871 111.166,64.797 118.31,65.013 123.596,65.013 128.812,65.013 132.241,65.013    134.741,65.442 136.169,66.013 137.242,66.655 138.528,67.512 139.17,68.585 139.742,70.227 143.171,98.019 143.742,99.876    145.028,102.019 145.672,104.734 146.743,134.809 146.743,137.311 146.743,139.239 146.743,141.096 146.743,143.168 146.1,144.667    144.814,145.741 143.171,146.169 98.592,146.169 96.664,146.169 94.806,146.169 93.092,145.741 91.877,145.525 91.02,145.096    92.234,148.884 93.521,152.456 94.591,158.098 95.664,162.315 95.807,166.529 96.235,171.173 95.235,172.244 82.161,172.244    80.947,172.031 79.661,171.386 78.804,170.316 65.587,148.884 63.443,147.382 62.015,147.169 36.153,147.169 35.083,147.382    33.439,148.884 32.368,149.955 31.082,152.027 29.653,154.313 28.796,157.314 27.51,160.242 26.652,164.029 25.866,167.601    25.009,169.458 24.58,170.529 20.151,170.529 18.937,170.316 16.579,151.17 17.007,149.741 17.651,148.456 20.151,146.741    20.151,139.381 18.937,136.882 20.151,135.809 21.223,135.025 22.509,134.596 24.151,133.952 26.438,133.31 28.796,133.094    31.082,132.881 33.654,132.453 35.511,132.453 35.511,101.804 36.582,101.162 38.868,100.733 40.369,100.733 91.02,98.232    91.877,97.375 93.092,95.088 93.521,93.802 93.949,92.516  "
       id="polygon3724" /><polygon
       fill="#A89187"
       points="148.171,18.504 148.6,16.218 149.029,13.932 150.315,12.004 151.315,12.004 152.601,12.004    153.673,12.004 153.673,13.932 153.029,16.218 152.172,18.504 151.101,18.504 150.672,20.435 150.53,22.72 150.53,128.88    148.171,128.237  "
       id="polygon3726" /><polygon
       fill="#A89187"
       points="387.425,130.808 341.99,160.029 341.561,165.03 394.999,130.379  "
       id="polygon3728" /><polygon
       fill="#A89187"
       stroke="#A89187"
       stroke-width="0.6435"
       stroke-linejoin="round"
       points="332.56,131.024 332.56,168.03    335.488,175.816 334.846,180.817 341.99,180.817 341.99,131.024  "
       id="polygon3730" /><polygon
       fill="none"
       stroke="#000000"
       stroke-width="0.8573"
       points="106.808,67.728 105.094,68.157 104.021,68.585    103.021,70.227 96.664,95.875 96.02,111.234 96.02,124.522 96.02,129.738 96.449,134.596 96.877,138.167 136.813,138.167    137.242,133.952 138.099,128.666 136.598,98.875 136.027,94.875 135.598,92.087 133.455,71.729 133.026,70.014 132.026,69.014    130.526,68.157 129.241,67.728 128.025,68.157 108.451,68.157  "
       id="polygon3732" /><line
       fill="none"
       stroke="#000000"
       stroke-width="0.6435"
       stroke-linejoin="round"
       x1="96.877"
       y1="138.596"
       x2="136.598"
       y2="138.596"
       id="line3734" /><rect
       x="104.236"
       y="177.673"
       fill="#FFFFFF"
       stroke="#000000"
       stroke-width="0.6435"
       stroke-linejoin="round"
       width="24.433"
       height="3.787"
       id="rect3736" /><line
       fill="none"
       stroke="#000000"
       stroke-width="0.8573"
       x1="104.665"
       y1="179.603"
       x2="127.812"
       y2="179.603"
       id="line3738" /><polygon
       stroke="#000000"
       stroke-width="0.6435"
       stroke-linejoin="round"
       points="230.185,141.096 281.694,141.096    281.694,144.883 224.041,144.883 225.327,144.026 226.613,142.954 228.47,141.953  "
       id="polygon3740" /><polyline
       fill="none"
       stroke="#000000"
       stroke-width="0.8573"
       points="43.297,103.233 138.528,103.233 139.957,103.019    141.456,102.448 142.528,101.162 142.528,100.304 142.957,98.875  "
       id="polyline3742" /><line
       fill="none"
       stroke="#000000"
       stroke-width="0.5715"
       x1="415.358"
       y1="147.382"
       x2="459.936"
       y2="147.382"
       id="line3744" /><line
       fill="none"
       stroke="#000000"
       stroke-width="0.5715"
       x1="415.358"
       y1="149.741"
       x2="459.936"
       y2="149.741"
       id="line3746" /><line
       fill="none"
       stroke="#000000"
       stroke-width="0.5715"
       x1="415.358"
       y1="152.241"
       x2="460.152"
       y2="152.241"
       id="line3748" /><line
       fill="none"
       stroke="#000000"
       stroke-width="0.5715"
       x1="415.573"
       y1="154.313"
       x2="460.152"
       y2="154.313"
       id="line3750" /><polygon
       points="345.775,180.388 345.562,178.746 344.917,177.032 344.133,175.602 342.631,174.317 341.132,173.459    339.275,173.031 337.56,173.031 335.703,173.459 334.202,174.317 332.773,175.602 331.916,177.032 331.058,178.746    330.845,180.388 331.058,182.318 331.916,183.959 332.773,185.461 334.202,186.532 335.703,187.319 337.56,187.748    339.275,187.748 341.132,187.319 342.631,186.532 344.133,185.461 344.917,183.959 345.562,182.318 345.775,180.388  "
       id="polygon3752" /><polygon
       stroke="#A89187"
       stroke-width="0.6435"
       stroke-linejoin="round"
       points="332.56,130.808 342.203,130.595 342.203,146.954    332.56,146.954 332.773,130.808  "
       id="polygon3754" /><polygon
       stroke="#A89187"
       stroke-width="0.6435"
       stroke-linejoin="round"
       points="387.425,130.808 394.57,130.808 369.779,146.741    362.85,146.741  "
       id="polygon3756" /><rect
       x="435.148"
       y="138.381"
       stroke="#A89187"
       stroke-width="0.6435"
       stroke-linejoin="round"
       width="6.071"
       height="22.289"
       id="rect3758" /><polygon
       fill="#FFFFFF"
       stroke="#000000"
       stroke-width="0.6435"
       stroke-linejoin="round"
       points="338.631,184.388 339.704,184.175    340.774,183.747 341.561,182.747 342.203,181.673 342.418,180.603 342.203,179.388 341.561,178.317 340.774,177.245    339.704,177.032 338.631,176.603 337.56,177.032 336.345,177.245 335.703,178.317 334.846,179.388 334.846,180.603    334.846,181.673 335.703,182.747 336.345,183.747 337.56,184.175  "
       id="polygon3760" /><polygon
       fill="#FFFFFF"
       stroke="#000000"
       stroke-width="0.8573"
       points="13.65,156.669 11.721,155.599 7.364,155.599    6.292,156.885 6.292,158.527 7.149,159.384 7.792,167.172 7.149,168.243 7.364,170.1 8.578,171.173 13.65,171.173 14.508,168.03     "
       id="polygon3762" /><polygon
       fill="#FFFFFF"
       stroke="#000000"
       stroke-width="0.6435"
       stroke-linejoin="round"
       points="18.937,158.743 22.294,158.743    23.081,158.098 23.081,154.313 22.294,153.742 18.937,153.742 18.293,154.313 18.293,158.098  "
       id="polygon3764" /><polygon
       fill="#FFFFFF"
       stroke="#000000"
       stroke-width="0.6435"
       stroke-linejoin="round"
       points="20.151,140.454 18.937,138.381    18.08,146.741 20.151,146.741  "
       id="polygon3766" /><polygon
       fill="#FFFFFF"
       stroke="#000000"
       stroke-width="0.8573"
       stroke-linejoin="round"
       points="19.508,136.454 21.223,135.454    22.866,134.167 24.366,133.952 25.438,133.523 26.652,133.31 27.938,133.094 29.438,132.881 30.438,132.881 31.724,132.666    33.01,132.453 34.225,132.453 35.296,132.453 36.797,132.453 38.011,132.453 39.512,132.453 41.154,132.453 42.869,132.453    44.726,132.881 47.298,133.094 49.371,133.31 53.156,133.952 57.372,134.596 62.872,135.596 68.945,137.095 74.375,138.381    80.09,139.81 84.733,141.311 86.376,141.953 87.663,142.381 89.52,143.382 90.806,145.741 89.305,144.239 86.59,143.382    83.875,142.597 79.875,141.525 75.874,140.454 71.445,139.381 66.802,138.596 62.015,137.953 57.372,137.311 53.8,136.454    50.656,136.238 47.084,136.025 44.37,136.025 41.583,135.596 39.083,135.454 36.368,135.454 33.439,135.596 30.438,136.025    28.152,136.238 25.866,136.667 23.723,137.524 21.865,138.167 20.58,138.81  "
       id="polygon3768" /><line
       fill="none"
       stroke="#A89187"
       stroke-width="0.8573"
       x1="143.528"
       y1="45.652"
       x2="146.1"
       y2="45.652"
       id="line3770" /><line
       fill="none"
       stroke="#A89187"
       stroke-width="0.8573"
       x1="143.528"
       y1="49.01"
       x2="146.1"
       y2="49.01"
       id="line3772" /><line
       fill="none"
       stroke="#A89187"
       stroke-width="0.8573"
       x1="143.528"
       y1="51.939"
       x2="146.1"
       y2="51.939"
       id="line3774" /><line
       fill="none"
       stroke="#A89187"
       stroke-width="0.8573"
       x1="143.528"
       y1="55.082"
       x2="146.1"
       y2="55.082"
       id="line3776" /><line
       fill="none"
       stroke="#A89187"
       stroke-width="0.8573"
       x1="143.528"
       y1="58.654"
       x2="146.1"
       y2="58.654"
       id="line3778" /><line
       fill="none"
       stroke="#A89187"
       stroke-width="0.8573"
       x1="143.528"
       y1="61.87"
       x2="146.1"
       y2="61.87"
       id="line3780" /><line
       fill="none"
       stroke="#A89187"
       stroke-width="0.8573"
       x1="143.528"
       y1="65.013"
       x2="145.885"
       y2="65.013"
       id="line3782" /><line
       fill="none"
       stroke="#A89187"
       stroke-width="0.8573"
       x1="143.528"
       y1="68.37"
       x2="146.1"
       y2="68.37"
       id="line3784" /><line
       fill="none"
       stroke="#A89187"
       stroke-width="0.8573"
       x1="143.528"
       y1="71.3"
       x2="146.1"
       y2="71.3"
       id="line3786" /><line
       fill="none"
       stroke="#A89187"
       stroke-width="0.8573"
       x1="143.528"
       y1="74.657"
       x2="146.1"
       y2="74.657"
       id="line3788" /><line
       fill="none"
       stroke="#A89187"
       stroke-width="0.8573"
       x1="143.528"
       y1="77.372"
       x2="145.885"
       y2="77.372"
       id="line3790" /><line
       fill="none"
       stroke="#A89187"
       stroke-width="0.8573"
       x1="143.528"
       y1="80.73"
       x2="146.1"
       y2="80.73"
       id="line3792" /><line
       fill="none"
       stroke="#A89187"
       stroke-width="0.8573"
       x1="143.528"
       y1="84.159"
       x2="146.1"
       y2="84.159"
       id="line3794" /><line
       fill="none"
       stroke="#A89187"
       stroke-width="0.8573"
       x1="143.528"
       y1="87.302"
       x2="146.1"
       y2="87.302"
       id="line3796" /><line
       fill="none"
       stroke="#A89187"
       stroke-width="0.8573"
       x1="143.528"
       y1="90.446"
       x2="146.1"
       y2="90.446"
       id="line3798" /><line
       fill="none"
       stroke="#A89187"
       stroke-width="0.8573"
       x1="147.958"
       y1="45.652"
       x2="152.172"
       y2="45.652"
       id="line3800" /><line
       fill="none"
       stroke="#A89187"
       stroke-width="0.8573"
       x1="147.958"
       y1="49.01"
       x2="152.172"
       y2="49.01"
       id="line3802" /><line
       fill="none"
       stroke="#A89187"
       stroke-width="0.8573"
       x1="147.958"
       y1="51.939"
       x2="152.172"
       y2="51.939"
       id="line3804" /><line
       fill="none"
       stroke="#A89187"
       stroke-width="0.8573"
       x1="147.958"
       y1="55.082"
       x2="152.172"
       y2="55.082"
       id="line3806" /><line
       fill="none"
       stroke="#A89187"
       stroke-width="0.8573"
       x1="147.958"
       y1="58.654"
       x2="152.172"
       y2="58.654"
       id="line3808" /><line
       fill="none"
       stroke="#A89187"
       stroke-width="0.8573"
       x1="147.958"
       y1="61.87"
       x2="152.172"
       y2="61.87"
       id="line3810" /><line
       fill="none"
       stroke="#A89187"
       stroke-width="0.8573"
       x1="148.171"
       y1="65.013"
       x2="152.172"
       y2="65.013"
       id="line3812" /><line
       fill="none"
       stroke="#A89187"
       stroke-width="0.8573"
       x1="147.958"
       y1="68.37"
       x2="152.172"
       y2="68.37"
       id="line3814" /><line
       fill="none"
       stroke="#A89187"
       stroke-width="0.8573"
       x1="147.958"
       y1="71.3"
       x2="152.172"
       y2="71.3"
       id="line3816" /><line
       fill="none"
       stroke="#A89187"
       stroke-width="0.8573"
       x1="147.958"
       y1="74.657"
       x2="152.172"
       y2="74.657"
       id="line3818" /><line
       fill="none"
       stroke="#A89187"
       stroke-width="0.8573"
       x1="147.958"
       y1="77.372"
       x2="152.172"
       y2="77.372"
       id="line3820" /><line
       fill="none"
       stroke="#A89187"
       stroke-width="0.8573"
       x1="147.958"
       y1="80.73"
       x2="152.172"
       y2="80.73"
       id="line3822" /><line
       fill="none"
       stroke="#A89187"
       stroke-width="0.8573"
       x1="147.958"
       y1="84.159"
       x2="152.172"
       y2="84.159"
       id="line3824" /><line
       fill="none"
       stroke="#A89187"
       stroke-width="0.8573"
       x1="147.958"
       y1="87.302"
       x2="152.172"
       y2="87.302"
       id="line3826" /><line
       fill="none"
       stroke="#A89187"
       stroke-width="0.8573"
       x1="147.958"
       y1="90.446"
       x2="152.172"
       y2="90.446"
       id="line3828" /><polygon
       fill="#FFFFFF"
       stroke="#000000"
       stroke-width="0.6435"
       stroke-linejoin="round"
       points="599.102,182.747 599.102,182.959    599.102,183.175 599.317,183.175 599.53,183.175 599.746,183.175 599.958,183.175 600.174,183.175 600.387,183.175    600.387,182.959 600.387,182.747 600.387,182.318 593.602,139.025 593.602,138.81 593.602,138.596 593.386,138.596    593.244,138.381 593.03,138.381 592.815,138.381 592.815,138.596 592.602,138.596 592.386,138.596 592.602,138.81 592.386,138.81    592.386,139.025 592.386,139.239  "
       id="polygon3830" /><rect
       x="181.82"
       y="35.58"
       fill="#FFFFFF"
       stroke="#000000"
       stroke-width="1.143"
       width="431.785"
       height="102.588"
       id="rect3832" /><polygon
       fill="#FFFFFF"
       stroke="#000000"
       stroke-width="0.6435"
       stroke-linejoin="round"
       points="147.314,160.458 148.6,160.242    149.672,159.813 150.315,158.743 150.886,157.527 151.101,156.457 150.886,155.17 150.315,154.313 149.672,153.098 148.6,152.884    147.314,152.456 146.743,152.884 145.457,153.098 144.6,154.313 144.171,155.17 143.957,156.457 144.171,157.527 144.6,158.743    145.457,159.813 146.743,160.242  "
       id="polygon3834" /><polygon
       stroke="#000000"
       stroke-width="0.6435"
       stroke-linejoin="round"
       points="107.165,70.227 105.522,70.872 104.665,72.585    100.236,92.087 100.236,93.589 101.093,94.875 102.808,95.088 104.665,95.088 129.454,95.088 130.74,95.088 132.241,94.875    132.598,93.161 131.384,73.371 131.384,72.371 130.526,70.872 128.669,70.014 127.812,70.227  "
       id="polygon3836" /><polygon
       fill="#A89187"
       stroke="#000000"
       stroke-width="0.6435"
       stroke-linejoin="round"
       points="123.167,97.803 125.454,98.019    129.241,98.019 132.598,97.803 132.598,100.518 130.74,100.518 129.241,99.661 126.955,99.661 126.311,99.661 126.955,99.661    125.668,99.661 124.668,99.661 123.596,99.448  "
       id="polygon3838" /><polygon
       fill="#FFFFFF"
       stroke="#000000"
       stroke-width="0.6435"
       stroke-linejoin="round"
       points="105.736,85.373 106.593,86.445    106.593,103.233 106.379,104.734 105.094,105.163 104.236,105.375 100.45,104.518 99.807,86.445 100.236,85.16  "
       id="polygon3840" /><polygon
       fill="#FFFFFF"
       stroke="#FFFFFF"
       stroke-width="0.6435"
       stroke-linejoin="round"
       points="43.726,101.375 89.948,99.448    91.234,99.019 92.448,98.875 93.734,98.019 93.306,98.875 92.092,100.518 91.02,101.162 89.305,101.162 87.663,101.162    43.726,102.59  "
       id="polygon3842" /><polygon
       fill="#FFFFFF"
       stroke="#000000"
       stroke-width="0.6435"
       stroke-linejoin="round"
       points="102.593,146.954 101.093,147.169    99.592,147.811 98.592,148.668 97.95,149.741 97.306,151.812 97.092,155.17 96.877,158.527 96.877,162.744 97.092,166.744    97.521,170.1 97.95,172.031 98.378,173.672 99.449,175.174 100.236,175.816 101.522,175.958 148.386,175.958 149.672,175.816    150.886,174.746 151.53,173.244 152.172,171.386 152.601,168.815 152.601,165.886 152.601,163.814 152.601,160.886    152.601,158.098 152.601,155.17 152.172,152.884 151.744,151.599 151.101,150.169 149.886,148.884 149.029,148.027    147.743,147.169 146.529,146.954  "
       id="polygon3844" /><polygon
       fill="#00BDFF"
       points="107.594,71.084 106.165,71.729 105.522,73.228 103.165,82.874 105.094,82.445 106.593,81.587    107.38,81.372 108.879,82.229 110.523,82.445 111.594,82.445 113.524,82.016 115.167,81.587 116.881,81.8 119.811,82.229    121.096,81.587 122.097,81.587 123.596,80.943 124.24,82.016 126.955,82.229 128.454,82.016 129.669,81.372 130.74,81.587    130.312,74.015 129.883,73.228 129.241,71.729 127.812,71.084 126.526,71.084  "
       id="polygon3846" /><polygon
       fill="#A89187"
       stroke="#000000"
       stroke-width="0.6435"
       stroke-linejoin="round"
       points="104.236,86.017 104.236,103.876    105.522,104.518 106.165,86.445  "
       id="polygon3848" /><polygon
       fill="#A89187"
       stroke="#000000"
       stroke-width="0.6435"
       stroke-linejoin="round"
       points="101.95,95.447 102.808,95.66    103.808,95.875 103.808,103.876 104.236,105.163 101.093,104.518 100.45,103.233 100.45,95.088  "
       id="polygon3850" /><polygon
       fill="#00A0C6"
       stroke="#00A0C6"
       stroke-width="0.6435"
       stroke-linejoin="round"
       points="147.958,150.169 145.243,150.169    143.528,150.169 142.313,149.955 139.17,149.955 136.384,150.169 131.813,150.169 129.454,150.169 127.383,150.169    126.097,149.955 123.811,149.955 110.952,149.955 109.737,150.169 108.237,150.169 106.379,150.169 105.094,150.169    101.093,150.169 99.592,150.169 99.807,149.313 101.093,149.097 101.95,148.884 144.814,148.884 146.314,148.884 147.314,149.097    148.386,149.741  "
       id="polygon3852" /><polygon
       fill="#A89187"
       stroke="#000000"
       stroke-width="0.8573"
       points="98.164,162.315 99.449,162.957 101.093,163.172    102.808,162.957 104.236,163.6 107.809,163.6 110.952,163.172 116.238,163.172 118.738,162.957 121.096,162.957 122.739,163.814    125.097,163.6 139.599,163.172 141.027,163.172 142.742,162.957 145.028,162.957 146.314,162.957 150.53,162.528 152.601,162.099    152.601,163.6 152.601,165.671 152.601,168.03 152.172,170.1 152.172,171.602 151.53,172.815 150.886,174.53 149.672,175.602    148.815,175.958 101.307,175.958 100.45,175.602 99.449,174.746 98.378,173.031 97.95,171.386 97.521,169.244 97.306,166.744    97.092,164.671 96.877,162.528  "
       id="polygon3854" /><polygon
       fill="#FF5400"
       stroke="#000000"
       stroke-width="0.6435"
       stroke-linejoin="round"
       points="19.722,157.527 19.508,157.527    19.293,157.098 19.293,155.384 19.508,155.17 19.722,154.956 21.652,154.956 21.865,155.17 22.081,155.384 22.081,157.098    21.865,157.527 21.652,157.527  "
       id="polygon3856" /><polygon
       fill="#FF7900"
       points="108.237,63.298 109.523,63.298 112.023,63.083 112.023,65.013 110.166,65.013 108.237,65.226    107.809,63.941  "
       id="polygon3858" /><polygon
       fill="#FFFFFF"
       stroke="#FFFFFF"
       stroke-width="0.6435"
       stroke-linejoin="round"
       points="162.031,144.883 196.537,144.883    198.251,145.525 199.68,147.169 200.751,148.456 201.824,149.955 203.038,152.027 198.823,148.24 197.608,147.382 196.751,147.169    162.246,147.169  "
       id="polygon3860" /><polygon
       fill="#A89187"
       stroke="#000000"
       stroke-width="0.6435"
       stroke-linejoin="round"
       points="18.508,142.954 19.508,142.597    19.937,146.598 18.937,147.169  "
       id="polygon3862" /><polygon
       fill="#FFFFFF"
       stroke="#000000"
       stroke-width="0.6435"
       stroke-linejoin="round"
       points="101.093,98.875 101.093,97.162    102.164,100.304 99.021,111.45 99.021,114.592 97.306,114.592 97.306,108.519 98.164,108.519  "
       id="polygon3864" /><polygon
       fill="#FFFFFF"
       stroke="#000000"
       stroke-width="0.6435"
       stroke-linejoin="round"
       points="102.379,94.875 102.379,91.516    101.307,91.516 101.093,92.516 98.164,95.875 97.521,99.232 98.592,99.232 98.592,96.946 101.307,93.589  "
       id="polygon3866" /><polygon
       fill="#FFFFFF"
       stroke="#000000"
       stroke-width="0.6435"
       stroke-linejoin="round"
       points="123.596,98.232 131.598,99.019    124.668,99.448  "
       id="polygon3868" /><polygon
       stroke="#000000"
       stroke-width="0.6435"
       stroke-linejoin="round"
       points="149.029,152.884 147.958,152.884 146.1,152.884    144.6,152.884 143.171,152.884 139.957,152.884 137.242,152.884 132.384,152.884 129.883,152.884 127.812,152.884 126.311,152.456    124.025,152.884 110.737,152.884 109.523,152.884 107.809,152.884 105.736,152.884 104.665,152.884 100.45,152.884 98.807,152.884    99.807,152.027 100.878,151.812 102.379,151.599 145.885,151.599 147.314,151.812 148.386,151.812 149.672,152.241  "
       id="polygon3870" /><polygon
       stroke="#000000"
       stroke-width="0.6435"
       stroke-linejoin="round"
       points="150.315,149.955 151.315,151.812 151.53,152.884    151.958,154.098 152.172,156.028 152.172,157.527 152.387,159.813 152.387,162.099 151.53,162.099 149.029,162.744    147.958,162.957 146.1,162.957 147.314,162.744 148.171,161.458 149.672,160.67 150.53,158.956 151.101,157.527 150.886,155.384    150.886,153.742 150.53,152.456 150.315,151.17  "
       id="polygon3872" /><polygon
       stroke="#000000"
       stroke-width="0.6435"
       stroke-linejoin="round"
       points="152.172,164.243 151.53,167.172 151.101,168.458    150.315,169.887 150.315,171.386 149.029,172.244 148.171,172.602 146.1,174.101 144.6,174.53 143.171,174.53 141.885,174.53    140.599,174.53 139.599,174.53 135.169,175.174 148.171,175.174 149.458,174.53 150.315,173.888 150.886,172.815 151.315,171.602    151.53,170.316 151.958,168.671 152.172,166.744  "
       id="polygon3874" /><polygon
       stroke="#000000"
       stroke-width="0.6435"
       stroke-linejoin="round"
       points="98.378,170.1 99.592,172.031 99.807,173.031    101.093,173.672 104.236,174.101 114.524,174.53 120.024,174.53 125.454,174.53 126.74,174.53 132.813,174.746 103.808,175.174    101.522,175.174 100.236,174.746 99.021,173.244 98.807,172.244  "
       id="polygon3876" /><rect
       x="106.951"
       y="166.1"
       fill="#FFFFFF"
       stroke="#000000"
       stroke-width="0.6435"
       stroke-linejoin="round"
       width="2.357"
       height="12.859"
       id="rect3878" /><rect
       x="123.596"
       y="166.315"
       fill="#FFFFFF"
       stroke="#000000"
       stroke-width="0.6435"
       stroke-linejoin="round"
       width="2.072"
       height="12.859"
       id="rect3880" /><polyline
       fill="none"
       stroke="#000000"
       stroke-width="0.6435"
       stroke-linejoin="round"
       points="86.59,98.447 88.52,99.661    89.305,101.162 89.52,102.232 89.52,142.168 91.02,144.239  "
       id="polyline3882" /><polyline
       fill="none"
       stroke="#000000"
       stroke-width="0.6435"
       stroke-linejoin="round"
       points="85.733,98.447 86.59,98.875    87.663,99.661 88.876,101.162 88.876,143.382  "
       id="polyline3884" /><polygon
       fill="#FFFFFF"
       stroke="#000000"
       stroke-width="0.6435"
       stroke-linejoin="round"
       points="150.315,156.457 150.315,156.028    150.315,155.599 150.315,155.17 150.315,154.956 149.886,154.956 149.886,154.313 149.672,154.313 149.672,154.098    149.458,153.742 149.244,153.742 149.029,153.527 148.815,153.313 148.6,153.313 148.386,153.098 148.171,153.098 147.958,153.098    147.529,152.884 147.314,153.098 147.101,153.098 146.743,153.098 146.743,153.313 146.529,153.313 146.1,153.527 146.1,153.742    145.885,153.742 145.672,154.098 145.457,154.313 145.243,154.313 145.243,154.956 145.028,154.956 145.028,155.17    144.814,155.599 144.814,156.028 144.814,156.457 144.814,156.885 144.814,157.314 145.028,157.527 145.243,158.098    145.457,158.314 145.672,158.743 145.885,158.743 146.1,158.956 146.1,159.171 146.529,159.171 146.743,159.384 147.101,159.384    147.314,159.384 147.529,159.6 147.958,159.384 148.171,159.384 148.386,159.384 148.6,159.384 148.815,159.171 149.029,159.171    149.244,158.956 149.458,158.743 149.672,158.743 149.672,158.314 149.886,158.098 150.315,157.527 150.315,157.314    150.315,156.885  "
       id="polygon3886" /><polygon
       fill="#A89187"
       points="188.75,42.08 604.959,42.08 604.959,130.167 602.46,130.167 602.46,57.87 584.814,57.87    557.881,57.87 557.881,130.167 555.595,130.167 555.595,57.87 511.446,57.87 511.446,130.167 508.944,130.167 508.944,57.87    464.794,57.87 464.794,130.167 462.438,130.167 462.438,57.87 418.073,57.87 418.073,130.167 415.787,130.167 415.787,57.87    371.423,57.87 371.423,130.167 369.137,130.167 369.137,57.87 324.987,57.87 324.987,130.167 322.628,130.167 322.628,57.87    277.907,57.87 277.907,130.167 275.763,130.167 275.763,57.87 230.185,57.87 230.185,130.167 228.47,130.167 228.47,57.87    195.036,57.87 195.036,130.167 188.75,130.167  "
       id="polygon3888" /><polygon
       fill="#FFFFFF"
       stroke="#000000"
       stroke-width="0.6435"
       stroke-linejoin="round"
       points="228.256,179.174 229.114,179.174    230.185,178.746 231.185,178.317 232.257,177.245 233.114,175.816 233.328,174.746 233.543,173.672 233.328,172.602    233.114,171.602 232.471,170.529 231.614,169.458 230.185,168.671 229.114,168.458 228.256,168.243 227.042,168.458    226.184,168.671 224.685,169.458 223.684,170.529 223.256,171.602 222.827,172.602 222.827,173.672 222.827,174.746    223.256,175.816 224.041,177.245 225.113,178.317 226.613,178.959 227.613,179.174  "
       id="polygon3890" /><polygon
       fill="#FFFFFF"
       stroke="#000000"
       stroke-width="0.6435"
       stroke-linejoin="round"
       points="278.55,179.174 279.335,179.174    280.408,178.746 281.479,178.317 282.336,177.245 283.336,175.816 283.765,174.746 283.765,173.672 283.765,172.602    283.336,171.602 282.694,170.529 281.694,169.458 280.408,168.671 279.335,168.458 278.55,168.243 277.264,168.458    276.407,168.671 274.978,169.458 273.906,170.529 273.477,171.602 273.049,172.602 273.049,173.672 273.049,174.746    273.477,175.816 274.121,177.245 275.334,178.317 276.835,178.959 277.907,179.174  "
       id="polygon3892" /><polygon
       stroke="#A89187"
       stroke-width="0.6435"
       stroke-linejoin="round"
       points="50.228,196.177 51.514,196.177 52.514,196.177    54.871,195.961 56.728,195.32 58.872,194.462 60.515,193.462 62.443,192.39 64.301,191.104 65.802,189.675 67.23,187.96    68.517,186.319 69.802,184.175 70.587,182.318 71.445,180.174 72.088,177.888 72.302,175.816 72.302,173.244 72.302,172.244    72.302,171.173 72.088,168.815 71.445,166.744 70.587,164.671 69.802,162.744 68.517,160.67 67.23,158.743 65.802,157.314    64.301,155.599 62.443,154.313 60.515,153.313 58.872,152.456 56.728,151.599 54.871,151.17 52.514,150.526 50.228,150.526    48.942,150.526 47.941,150.526 45.798,151.17 43.726,151.599 41.583,152.456 39.726,153.313 37.797,154.313 36.153,155.599    34.439,157.314 33.01,158.743 31.724,160.67 30.438,162.744 29.653,164.671 29.009,166.744 28.367,168.815 27.938,171.173    27.938,173.244 27.938,174.53 27.938,175.816 28.367,177.888 29.009,180.174 29.653,182.318 30.438,184.175 31.724,186.319    33.01,187.96 34.439,189.675 36.153,191.104 37.797,192.39 39.726,193.462 41.583,194.462 43.726,195.32 45.798,195.961    47.941,196.177  "
       id="polygon3894" /><polygon
       fill="#FFFFFF"
       stroke="#000000"
       stroke-width="0.6435"
       stroke-linejoin="round"
       points="50.656,186.96 51.299,186.96    53.156,186.748 54.229,186.319 55.514,185.674 56.515,185.033 57.585,184.604 58.658,183.747 59.443,183.175 61.158,181.032    61.801,179.746 62.443,178.746 62.872,177.459 63.015,176.174 63.23,174.958 63.443,173.459 63.23,172.815 63.015,170.958    62.872,169.671 62.443,168.458 61.801,167.172 61.158,165.886 60.515,165.03 59.443,164.029 58.658,163.172 57.585,162.528    56.515,161.886 55.514,161.315 54.229,160.67 53.156,160.458 51.728,160.242 50.656,160.029 49.799,160.242 47.941,160.458    46.441,160.67 45.37,161.315 44.37,161.886 43.297,162.528 42.227,163.172 40.583,165.03 39.726,165.886 39.083,167.172    38.439,168.458 38.011,169.671 37.797,170.958 37.582,172.244 37.582,173.459 37.582,174.317 37.797,176.174 38.011,177.459    38.439,178.746 39.083,179.746 39.726,181.032 40.583,182.102 42.227,183.747 43.297,184.604 44.37,185.033 45.37,185.674    46.441,186.319 47.941,186.748 49.156,186.96  "
       id="polygon3896" /><polygon
       fill="#FFFFFF"
       stroke="#000000"
       stroke-width="0.6435"
       stroke-linejoin="round"
       points="50.87,185.033 51.942,185.033    52.942,184.817 54.014,184.604 55.085,184.175 55.871,183.747 57.585,182.318 59.086,180.817 60.3,179.174 60.729,177.888    61.158,177.032 61.373,175.958 61.586,174.746 61.801,173.672 61.586,172.386 61.373,171.386 61.158,170.316 60.729,169.244    60.3,168.458 59.086,166.529 57.585,165.03 55.871,163.814 55.085,163.172 54.014,162.957 52.942,162.744 51.942,162.315    50.87,162.315 49.584,162.315 48.298,162.744 47.513,162.957 46.441,163.172 45.37,163.814 43.941,165.03 42.227,166.529    41.154,168.458 40.583,169.244 40.369,170.316 39.94,171.386 39.726,172.386 39.726,173.672 39.726,174.746 39.94,175.958    40.369,177.032 40.583,177.888 41.154,179.174 42.227,180.817 43.941,182.318 45.37,183.747 46.441,184.175 47.513,184.604    48.298,184.817 49.584,185.033  "
       id="polygon3898" /><polygon
       fill="#FFFFFF"
       stroke="#000000"
       stroke-width="0.6435"
       stroke-linejoin="round"
       points="50.656,181.673 52.299,181.46    53.8,181.032 55.085,180.388 56.3,179.174 56.943,178.102 57.8,177.032 58.229,175.387 58.443,173.672 58.229,172.031    57.8,170.529 56.943,169.03 56.3,168.03 55.085,166.958 53.8,166.315 52.299,165.886 50.656,165.671 49.156,165.886    47.727,166.315 46.227,166.958 45.155,168.03 44.155,169.03 43.512,170.529 43.083,172.031 42.869,173.672 43.083,175.387    43.512,177.032 44.155,178.102 45.155,179.174 46.227,180.388 47.727,181.032 49.156,181.46  "
       id="polygon3900" /><polygon
       fill="#A89187"
       stroke="#000000"
       stroke-width="0.6435"
       stroke-linejoin="round"
       points="39.512,168.458 40.369,166.744    40.94,165.671 41.798,164.671 42.869,163.814 43.941,162.957 45.155,162.315 46.227,161.886 47.941,161.315 48.942,160.886    50.441,160.886 51.942,160.886 53.8,161.458 55.657,162.315 56.728,162.957 58.014,163.814 59.086,165.03 59.872,166.1    60.944,167.172 61.586,168.671 62.015,170.1 62.443,171.815 62.443,173.244 62.443,174.958 61.373,174.101 61.586,172.815    61.586,170.529 60.086,167.814 58.872,165.886 56.515,163.814 55.085,162.957 52.299,162.528 49.156,162.528 47.084,162.957    45.37,164.029 43.726,165.243 42.655,166.1 40.798,168.815 40.154,171.602 40.154,174.53 40.583,173.244 40.154,174.101    38.439,174.746 38.439,173.672 38.439,172.244 38.654,170.745 39.083,169.458  "
       id="polygon3902" /><polygon
       fill="#A89187"
       stroke="#000000"
       stroke-width="0.6435"
       stroke-linejoin="round"
       points="60.515,177.888 59.872,179.174    59.229,180.603 58.443,181.46 57.372,182.318 55.657,183.747 54.442,184.175 53.371,184.604 52.085,184.817 50.87,185.033    49.584,184.817 47.941,184.604 46.012,183.959 44.726,183.175 43.512,182.318 42.655,181.246 41.798,180.174 40.94,178.959    40.583,177.673 40.154,176.174 39.726,174.53 39.726,172.815 40.154,171.386 42.227,172.602 43.083,172.815 43.083,175.174    43.726,177.032 45.37,179.603 47.298,180.817 49.584,181.46 52.085,181.46 55.085,180.603 57.372,178.317 58.014,176.174    58.443,175.174 58.658,172.815 60.515,172.244 61.586,172.602 61.586,173.888 61.373,175.387 61.158,176.603  "
       id="polygon3904" /><polygon
       fill="#A89187"
       stroke="#000000"
       stroke-width="0.6435"
       stroke-linejoin="round"
       points="50.87,179.174 51.942,179.174    52.942,178.746 53.8,178.317 55.085,177.032 55.871,175.816 56.086,174.746 56.3,173.672 56.086,172.386 55.871,171.386    55.299,170.529 54.229,169.458 52.942,168.671 51.942,168.243 50.87,168.03 49.584,168.243 48.513,168.671 47.513,169.458    46.227,170.529 45.798,171.386 45.37,172.386 45.37,173.672 45.37,174.746 45.798,175.816 46.441,177.032 47.941,178.317    49.156,178.959 50.228,179.174  "
       id="polygon3906" /><polygon
       stroke="#A89187"
       stroke-width="0.6435"
       stroke-linejoin="round"
       points="227.613,196.177 228.685,196.177    229.756,196.177 232.042,195.961 234.186,195.32 236.258,194.462 238.401,193.891 239.83,192.39 241.758,191.104 243.187,189.675    244.688,187.96 246.117,186.319 246.974,184.388 248.045,182.318 248.688,180.174 249.331,177.888 249.902,175.816    249.902,173.459 249.902,172.244 249.902,171.173 249.331,168.815 248.688,166.744 248.045,164.671 246.974,162.744    246.117,160.67 244.688,158.956 243.187,157.314 241.758,155.599 239.83,154.313 238.401,153.313 236.258,152.456 234.186,151.599    232.042,151.17 229.756,150.526 227.613,150.526 226.399,150.526 225.327,150.526 223.256,151.17 220.897,151.599 218.827,152.456    216.897,153.313 215.254,154.313 213.325,155.599 211.682,157.314 210.182,158.956 209.181,160.67 207.896,162.744    207.038,164.671 206.181,166.744 205.539,168.815 205.396,171.173 205.396,173.459 205.396,174.746 205.396,175.816    205.539,177.888 206.181,180.174 207.038,182.318 207.896,184.388 209.181,186.319 210.182,187.96 211.682,189.675    213.325,191.104 215.254,192.39 216.897,193.891 218.827,194.462 220.897,195.32 223.256,195.961 225.327,196.177  "
       id="polygon3908" /><polygon
       fill="#FFFFFF"
       stroke="#000000"
       stroke-width="0.6435"
       stroke-linejoin="round"
       points="227.613,187.103 228.47,187.103    230.185,186.748 231.614,186.319 232.899,185.674 233.972,185.246 235.186,184.604 236.043,183.959 237.115,183.175    238.544,181.032 239.186,179.746 239.83,178.746 240.258,177.673 240.687,176.174 240.687,174.958 240.687,173.672    240.687,172.815 240.687,170.958 240.258,169.671 239.83,168.458 239.186,167.172 238.544,166.1 237.757,165.243 237.115,164.029    236.043,163.172 235.186,162.528 233.972,161.886 232.899,161.315 231.614,160.67 230.185,160.458 229.114,160.242    227.613,160.242 227.042,160.242 225.327,160.458 224.041,160.67 222.827,161.315 221.541,161.886 220.684,162.528    219.684,163.172 217.754,165.243 217.112,166.1 216.541,167.172 215.897,168.458 215.468,169.671 215.04,170.958 214.826,172.244    214.826,173.672 214.826,174.53 215.04,176.174 215.468,177.673 215.897,178.746 216.541,179.746 217.112,181.032 217.754,182.102    219.684,183.959 220.684,184.604 221.541,185.246 222.827,185.674 224.041,186.319 225.327,186.748 226.613,186.96  "
       id="polygon3910" /><polygon
       fill="#FFFFFF"
       stroke="#000000"
       stroke-width="0.8573"
       points="228.042,185.033 229.114,185.033 230.185,184.817    231.185,184.604 232.257,184.175 233.328,183.747 235.186,182.318 236.472,181.032 237.757,179.174 238.401,178.102    238.544,177.032 238.758,175.958 239.186,174.746 239.186,173.672 239.186,172.602 238.758,171.386 238.544,170.316    238.401,169.458 237.757,168.458 236.472,166.744 235.186,165.03 233.328,163.814 232.257,163.172 231.185,162.957    230.185,162.744 229.114,162.528 228.042,162.315 227.042,162.528 225.755,162.744 224.685,162.957 223.898,163.172    222.827,163.814 220.897,165.03 219.684,166.744 218.398,168.458 217.969,169.458 217.541,170.316 217.112,171.386    217.112,172.602 217.112,173.672 217.112,174.746 217.112,175.958 217.541,177.032 217.969,178.102 218.398,179.174    219.684,181.032 220.897,182.318 222.827,183.747 223.898,184.175 224.685,184.604 225.755,184.817 227.042,185.033  "
       id="polygon3912" /><polygon
       fill="#A89187"
       stroke="#000000"
       stroke-width="0.6435"
       stroke-linejoin="round"
       points="238.401,177.888 237.543,179.388    236.687,180.603 235.614,181.46 234.829,182.318 232.899,183.747 231.829,184.175 230.613,184.604 229.328,185.033    228.042,185.033 226.828,185.033 225.113,184.604 223.469,183.959 222.184,183.175 220.897,182.318 219.897,181.46 219.04,180.388    218.398,179.174 217.754,177.673 217.112,176.174 217.112,174.53 217.112,172.815 217.541,171.386 219.684,172.815    227.613,174.101 236.043,173.031 237.972,172.244 238.973,172.602 238.973,174.101 238.758,175.602 238.544,177.032  "
       id="polygon3914" /><polygon
       fill="#FFFFFF"
       stroke="#000000"
       stroke-width="0.6435"
       stroke-linejoin="round"
       points="228.042,181.889 229.756,181.46    231.042,181.032 232.257,180.388 233.543,179.388 234.4,178.317 235.186,177.032 235.614,175.387 235.614,173.672 235.614,172.244    235.186,170.745 234.4,169.244 233.543,168.243 232.257,167.172 231.042,166.315 229.756,165.886 228.042,165.671 226.613,165.886    224.898,166.315 223.684,167.172 222.612,168.243 221.541,169.244 220.897,170.745 220.255,172.244 220.255,173.672    220.255,175.387 220.897,177.032 221.541,178.317 222.612,179.388 223.684,180.388 224.898,181.032 226.613,181.46  "
       id="polygon3916" /><polygon
       fill="#A89187"
       stroke="#000000"
       stroke-width="0.6435"
       stroke-linejoin="round"
       points="221.112,170.316 222.184,169.03    223.469,167.814 224.685,166.744 226.184,166.315 227.828,166.1 230.185,166.315 231.185,166.744 232.686,168.03 233.972,169.03    234.829,170.745 235.186,171.602 235.4,172.815 235.4,174.746 233.972,173.672 228.256,172.815 222.612,173.672 221.112,173.888    220.684,172.815 220.897,171.386  "
       id="polygon3918" /><polygon
       fill="#FFFFFF"
       stroke="#000000"
       stroke-width="0.6435"
       stroke-linejoin="round"
       points="228.042,178.317 229.328,178.102    230.828,177.673 231.614,176.603 232.257,175.602 232.471,174.101 232.471,173.244 232.471,172.244 231.829,170.958 231.042,170.1    229.756,169.244 228.47,169.03 227.613,169.03 226.613,169.03 225.542,169.887 224.47,170.529 223.898,171.602 223.469,173.244    223.469,173.888 223.684,175.174 224.256,176.174 225.113,177.245 226.184,177.888 227.613,178.317  "
       id="polygon3920" /><polygon
       fill="#FFFFFF"
       stroke="#000000"
       stroke-width="0.6435"
       stroke-linejoin="round"
       points="228.256,171.173 229.114,170.316    228.256,169.458 227.47,170.316  "
       id="polygon3922" /><polygon
       fill="#FFFFFF"
       stroke="#000000"
       stroke-width="0.6435"
       stroke-linejoin="round"
       points="231.185,173.888 232.042,172.815    231.185,172.031 230.185,172.815  "
       id="polygon3924" /><polygon
       fill="#FFFFFF"
       stroke="#000000"
       stroke-width="0.6435"
       stroke-linejoin="round"
       points="230.185,177.032 230.828,176.174    230.185,175.387 229.114,176.174  "
       id="polygon3926" /><polygon
       fill="#FFFFFF"
       stroke="#000000"
       stroke-width="0.6435"
       stroke-linejoin="round"
       points="226.184,177.032 227.042,176.174    226.184,175.387 225.327,176.174  "
       id="polygon3928" /><polygon
       fill="#FFFFFF"
       stroke="#000000"
       stroke-width="0.6435"
       stroke-linejoin="round"
       points="224.898,173.672 225.755,172.815    224.898,171.815 224.041,172.815  "
       id="polygon3930" /><polygon
       fill="#FFFFFF"
       stroke="#000000"
       stroke-width="0.6435"
       stroke-linejoin="round"
       points="228.042,175.174 229.114,174.746    229.756,173.672 229.328,172.602 228.47,171.815 227.256,172.031 226.613,173.244 226.613,174.317 227.613,175.174  "
       id="polygon3932" /><polygon
       stroke="#A89187"
       stroke-width="0.6435"
       stroke-linejoin="round"
       points="277.907,196.177 278.907,196.177    279.979,196.177 282.336,195.961 284.409,195.32 286.266,194.462 288.409,193.891 290.266,192.39 291.982,191.104 293.411,189.675    294.91,187.96 296.196,186.319 297.411,184.388 298.482,182.318 298.911,180.174 299.554,177.888 299.983,175.816 300.196,173.459    300.196,172.244 299.983,171.173 299.554,168.815 298.911,166.744 298.482,164.671 297.411,162.744 296.196,160.67 294.91,158.956    293.411,157.314 291.982,155.599 290.266,154.313 288.409,153.313 286.266,152.456 284.409,151.599 282.336,151.17    279.979,150.526 277.907,150.526 276.621,150.526 275.763,150.526 273.264,151.17 271.192,151.599 269.048,152.456    267.191,153.313 265.262,154.313 263.619,155.599 262.119,157.314 260.475,158.956 259.405,160.67 258.119,162.744    257.261,164.671 256.475,166.744 256.046,168.815 255.618,171.173 255.618,173.459 255.618,174.746 255.618,175.816    256.046,177.888 256.475,180.174 257.261,182.318 258.119,184.388 259.405,186.319 260.475,187.96 262.119,189.675    263.619,191.104 265.262,192.39 267.191,193.891 269.048,194.462 271.192,195.32 273.264,195.961 275.763,196.177  "
       id="polygon3934" /><polygon
       fill="#FFFFFF"
       stroke="#000000"
       stroke-width="0.6435"
       stroke-linejoin="round"
       points="278.122,187.103 278.764,187.103    280.622,186.748 281.908,186.319 283.123,185.674 284.194,185.246 285.266,184.604 286.266,183.959 287.336,183.175    288.623,181.032 289.48,179.746 290.051,178.746 290.48,177.673 290.695,176.174 290.909,174.958 290.909,173.672 290.909,172.815    290.695,170.958 290.48,169.671 290.051,168.458 289.48,167.172 288.623,166.1 287.98,165.243 287.336,164.029 286.266,163.172    285.266,162.528 284.194,161.886 283.123,161.315 281.908,160.67 280.622,160.458 279.335,160.242 278.122,160.242    277.264,160.242 275.334,160.458 274.121,160.67 273.049,161.315 271.763,161.886 270.763,162.528 269.692,163.172    267.977,165.243 267.191,166.1 266.548,167.172 266.12,168.458 265.905,169.671 265.262,170.958 265.047,172.244 265.047,173.672    265.047,174.53 265.262,176.174 265.905,177.673 266.12,178.746 266.548,179.746 267.191,181.032 267.977,182.102 269.692,183.959    270.763,184.604 271.763,185.246 273.049,185.674 274.121,186.319 275.334,186.748 276.835,186.96  "
       id="polygon3936" /><polygon
       fill="#FFFFFF"
       stroke="#000000"
       stroke-width="0.8573"
       points="278.335,185.033 279.335,185.033 280.408,184.817    281.694,184.604 282.479,184.175 283.551,183.747 285.266,182.318 286.909,181.032 287.765,179.174 288.409,178.102    288.623,177.032 289.266,175.958 289.266,174.746 289.266,173.672 289.266,172.602 289.266,171.386 288.623,170.316    288.409,169.458 287.765,168.458 286.909,166.744 285.266,165.03 283.551,163.814 282.479,163.172 281.694,162.957    280.408,162.744 279.335,162.528 278.335,162.315 277.264,162.528 275.978,162.744 274.978,162.957 274.121,163.172    273.049,163.814 271.407,165.03 269.906,166.744 268.62,168.458 268.191,169.458 267.762,170.316 267.406,171.386 267.406,172.602    267.406,173.672 267.406,174.746 267.406,175.958 267.762,177.032 268.191,178.102 268.62,179.174 269.906,181.032    271.407,182.318 273.049,183.747 274.121,184.175 274.978,184.604 275.978,184.817 277.264,185.033  "
       id="polygon3938" /><polygon
       fill="#A89187"
       stroke="#000000"
       stroke-width="0.6435"
       stroke-linejoin="round"
       points="288.409,177.888 287.765,179.388    286.909,180.603 286.051,181.46 285.266,182.318 283.123,183.747 282.336,184.175 280.836,184.604 279.55,185.033 278.335,185.033    277.264,185.033 275.334,184.604 273.477,183.959 272.192,183.175 271.192,182.318 270.121,181.46 269.477,180.388 268.62,179.174    267.977,177.673 267.62,176.174 267.191,174.53 267.191,172.815 267.62,171.386 269.906,172.815 277.907,174.101 286.266,173.031    287.98,172.244 289.266,172.602 289.266,174.101 289.051,175.602 288.837,177.032  "
       id="polygon3940" /><polygon
       fill="#FFFFFF"
       stroke="#000000"
       stroke-width="0.6435"
       stroke-linejoin="round"
       points="278.122,181.889 279.55,181.46    281.05,181.032 282.479,180.388 283.765,179.388 284.623,178.317 285.479,177.032 285.908,175.387 286.051,173.672    285.908,172.244 285.479,170.745 284.623,169.244 283.765,168.243 282.479,167.172 281.05,166.315 279.55,165.886 278.122,165.671    276.835,165.886 275.122,166.315 273.906,167.172 272.621,168.243 271.763,169.244 270.978,170.745 270.549,172.244    270.549,173.672 270.549,175.387 270.978,177.032 271.763,178.317 272.621,179.388 273.906,180.388 275.122,181.032    276.835,181.46  "
       id="polygon3942" /><polygon
       fill="#A89187"
       stroke="#000000"
       stroke-width="0.6435"
       stroke-linejoin="round"
       points="271.407,170.316 272.407,169.03    273.477,167.814 274.978,166.744 276.407,166.315 278.122,166.1 280.193,166.315 281.479,166.744 282.908,168.03 284.194,169.03    284.837,170.745 285.479,171.602 285.479,172.815 285.479,174.746 284.194,173.672 278.55,172.815 272.621,173.672    271.407,173.888 270.763,172.815 271.192,171.386  "
       id="polygon3944" /><polygon
       fill="#FFFFFF"
       stroke="#000000"
       stroke-width="0.6435"
       stroke-linejoin="round"
       points="278.335,178.317 279.55,178.102    280.836,177.673 281.694,176.603 282.336,175.602 282.694,174.101 282.694,173.244 282.694,172.244 282.123,170.958 281.05,170.1    279.979,169.244 278.764,169.03 278.122,169.03 276.835,169.03 275.763,169.887 274.763,170.529 274.121,171.602 273.692,173.244    273.692,173.888 273.906,175.174 274.334,176.174 275.334,177.245 276.407,177.888 277.907,178.317  "
       id="polygon3946" /><polygon
       fill="#FFFFFF"
       stroke="#000000"
       stroke-width="0.6435"
       stroke-linejoin="round"
       points="278.55,171.173 279.335,170.316    278.55,169.458 277.693,170.316  "
       id="polygon3948" /><polygon
       fill="#FFFFFF"
       stroke="#000000"
       stroke-width="0.6435"
       stroke-linejoin="round"
       points="281.265,173.888 282.336,172.815    281.265,172.031 280.408,172.815  "
       id="polygon3950" /><polygon
       fill="#FFFFFF"
       stroke="#000000"
       stroke-width="0.6435"
       stroke-linejoin="round"
       points="280.193,177.032 281.05,176.174    280.193,175.387 279.335,176.174  "
       id="polygon3952" /><polygon
       fill="#FFFFFF"
       stroke="#000000"
       stroke-width="0.6435"
       stroke-linejoin="round"
       points="276.407,177.032 277.478,176.174    276.407,175.387 275.763,176.174  "
       id="polygon3954" /><polygon
       fill="#FFFFFF"
       stroke="#000000"
       stroke-width="0.6435"
       stroke-linejoin="round"
       points="275.122,173.672 275.978,172.815    275.122,171.815 274.334,172.815  "
       id="polygon3956" /><polygon
       fill="#FFFFFF"
       stroke="#000000"
       stroke-width="0.6435"
       stroke-linejoin="round"
       points="278.335,175.174 279.335,174.746    279.979,173.672 279.55,172.602 278.55,171.815 277.478,172.031 276.835,173.244 276.835,174.317 277.907,175.174  "
       id="polygon3958" /><polygon
       points="518.375,196.177 519.447,196.177 520.447,196.177 522.803,195.961 524.876,195.32 526.804,194.462    528.877,193.891 530.591,192.39 532.449,191.104 534.164,189.675 535.377,187.96 536.663,186.319 537.949,184.388 538.736,182.318    539.593,180.174 540.022,177.888 540.451,175.816 540.451,173.459 540.451,172.244 540.451,171.173 540.022,168.815    539.593,166.744 538.736,164.671 537.949,162.744 536.663,160.67 535.377,158.956 534.164,157.314 532.449,155.599    530.591,154.313 528.877,153.313 526.804,152.456 524.876,151.599 522.803,151.17 520.447,150.526 518.375,150.526    516.875,150.526 516.088,150.526 513.732,151.17 511.659,151.599 509.731,152.456 507.874,153.313 505.73,154.313 504.301,155.599    502.587,157.314 501.159,158.956 499.873,160.67 498.586,162.744 497.586,164.671 497.158,166.744 496.3,168.815 496.084,171.173    495.872,173.459 495.872,174.746 496.084,175.816 496.3,177.888 497.158,180.174 497.586,182.318 498.586,184.388 499.873,186.319    501.159,187.96 502.587,189.675 504.301,191.104 505.73,192.39 507.874,193.891 509.731,194.462 511.659,195.32 513.732,195.961    516.088,196.177  "
       id="polygon3960" /><polygon
       fill="#FFFFFF"
       stroke="#000000"
       stroke-width="0.6435"
       stroke-linejoin="round"
       points="518.589,187.103 519.232,187.103    521.089,186.748 522.375,186.319 523.661,185.674 524.661,185.246 525.734,184.604 526.804,183.959 527.804,183.175    529.305,181.032 529.948,179.746 530.591,178.746 531.02,177.673 531.163,176.174 531.376,174.958 531.591,173.672    531.591,172.815 531.163,170.958 531.02,169.671 530.591,168.458 529.948,167.172 529.305,166.1 528.662,165.243 527.804,164.029    526.804,163.172 525.734,162.528 524.661,161.886 523.661,161.315 522.375,160.67 521.089,160.458 519.875,160.242    518.589,160.242 517.946,160.242 516.088,160.458 514.589,160.67 513.303,161.315 512.303,161.886 511.23,162.528 510.16,163.172    508.515,165.243 507.874,166.1 507.016,167.172 506.587,168.458 506.159,169.671 505.73,170.958 505.587,172.244 505.587,173.672    505.587,174.53 505.73,176.174 506.159,177.673 506.587,178.746 507.016,179.746 507.874,181.032 508.515,182.102 510.16,183.959    511.23,184.604 512.303,185.246 513.303,185.674 514.589,186.319 516.088,186.748 517.088,186.96  "
       id="polygon3962" /><polygon
       fill="#FFFFFF"
       stroke="#000000"
       stroke-width="0.8573"
       points="518.803,185.033 519.875,185.033 521.089,184.817    521.946,184.604 523.232,184.175 523.876,183.747 525.734,182.318 527.448,181.032 528.449,179.174 529.09,178.102    529.305,177.032 529.734,175.958 529.948,174.746 529.948,173.672 529.948,172.602 529.734,171.386 529.305,170.316    529.09,169.458 528.449,168.458 527.448,166.744 525.734,165.03 523.876,163.814 523.232,163.172 521.946,162.957 521.089,162.744    519.875,162.528 518.803,162.315 517.732,162.528 516.66,162.744 515.66,162.957 514.374,163.172 513.732,163.814 511.875,165.03    510.16,166.744 509.16,168.458 508.731,169.458 508.302,170.316 507.874,171.386 507.874,172.602 507.874,173.672 507.874,174.746    507.874,175.958 508.302,177.032 508.731,178.102 509.16,179.174 510.16,181.032 511.875,182.318 513.732,183.747 514.374,184.175    515.66,184.604 516.66,184.817 517.732,185.033  "
       id="polygon3964" /><polygon
       fill="#A89187"
       stroke="#000000"
       stroke-width="0.6435"
       stroke-linejoin="round"
       points="528.877,177.888 528.233,179.388    527.448,180.603 526.591,181.46 525.734,182.318 523.876,183.747 522.59,184.175 521.304,184.604 520.088,185.033 518.803,185.033    517.517,185.033 515.875,184.604 514.161,183.959 512.875,183.175 511.659,182.318 510.588,181.46 509.944,180.388    508.944,179.174 508.515,177.673 508.086,176.174 507.874,174.53 507.874,172.815 508.086,171.386 510.16,172.815 518.589,174.101    526.804,173.031 528.662,172.244 529.734,172.602 529.734,174.101 529.734,175.602 529.305,177.032  "
       id="polygon3966" /><polygon
       fill="#FFFFFF"
       stroke="#000000"
       stroke-width="0.6435"
       stroke-linejoin="round"
       points="518.803,181.889 520.232,181.46    521.733,181.032 523.232,180.388 524.232,179.388 525.305,178.317 525.947,177.032 526.375,175.387 526.591,173.672    526.375,172.244 525.947,170.745 525.305,169.244 524.232,168.243 523.232,167.172 521.733,166.315 520.232,165.886    518.803,165.671 517.088,165.886 515.875,166.315 514.374,167.172 513.087,168.243 512.303,169.244 511.659,170.745    511.23,172.244 511.017,173.672 511.23,175.387 511.659,177.032 512.303,178.317 513.087,179.388 514.374,180.388 515.875,181.032    517.088,181.46  "
       id="polygon3968" /><polygon
       fill="#A89187"
       stroke="#000000"
       stroke-width="0.8573"
       points="512.087,170.316 512.875,169.03 514.161,167.814    515.446,166.744 516.875,166.315 518.803,166.1 520.661,166.315 521.946,166.744 523.448,168.03 524.661,169.03 525.518,170.745    525.947,171.602 526.163,172.815 526.163,174.746 524.661,173.672 518.803,172.815 513.087,173.672 511.875,173.888    511.23,172.815 511.659,171.386  "
       id="polygon3970" /><polygon
       fill="#FFFFFF"
       stroke="#000000"
       stroke-width="0.6435"
       stroke-linejoin="round"
       points="518.803,179.174 519.875,179.174    520.875,178.746 521.946,178.317 523.019,177.245 523.876,175.816 524.232,174.746 524.232,173.672 524.232,172.602    523.876,171.602 523.232,170.529 522.162,169.458 520.875,168.671 519.875,168.458 518.803,168.243 517.732,168.458    516.875,168.671 515.446,169.458 514.374,170.529 513.732,171.602 513.732,172.602 513.303,173.672 513.732,174.746    513.732,175.816 514.589,177.245 515.875,178.317 517.303,178.959 518.375,179.174  "
       id="polygon3972" /><polygon
       fill="#FFFFFF"
       stroke="#000000"
       stroke-width="0.6435"
       stroke-linejoin="round"
       points="518.803,178.317 520.088,178.102    521.518,177.673 522.375,176.603 523.019,175.602 523.232,174.101 523.232,173.244 523.232,172.244 522.59,170.958 521.733,170.1    520.447,169.244 519.232,169.03 518.589,169.03 517.517,169.03 516.088,169.887 515.231,170.529 514.374,171.602 514.161,173.244    514.161,173.888 514.374,175.174 515.018,176.174 515.875,177.245 516.875,177.888 518.375,178.317  "
       id="polygon3974" /><polygon
       fill="#FFFFFF"
       stroke="#000000"
       stroke-width="0.6435"
       stroke-linejoin="round"
       points="519.018,171.173 519.875,170.316    519.018,169.458 518.375,170.316  "
       id="polygon3976" /><polygon
       fill="#FFFFFF"
       stroke="#000000"
       stroke-width="0.6435"
       stroke-linejoin="round"
       points="521.733,173.888 522.803,172.815    521.733,172.031 521.089,172.815  "
       id="polygon3978" /><polygon
       fill="#FFFFFF"
       stroke="#000000"
       stroke-width="0.6435"
       stroke-linejoin="round"
       points="520.661,177.032 521.733,176.174    520.661,175.387 519.875,176.174  "
       id="polygon3980" /><polygon
       fill="#FFFFFF"
       stroke="#000000"
       stroke-width="0.6435"
       stroke-linejoin="round"
       points="516.875,177.032 517.946,176.174    516.875,175.387 516.088,176.174  "
       id="polygon3982" /><polygon
       fill="#FFFFFF"
       stroke="#000000"
       stroke-width="0.6435"
       stroke-linejoin="round"
       points="515.875,173.672 516.66,172.815    515.875,171.815 514.802,172.815  "
       id="polygon3984" /><polygon
       fill="#FFFFFF"
       stroke="#000000"
       stroke-width="0.6435"
       stroke-linejoin="round"
       points="518.803,175.174 519.875,174.746    520.447,173.672 520.088,172.602 519.232,171.815 518.161,172.031 517.303,173.244 517.517,174.317 518.589,175.174  "
       id="polygon3986" /><polygon
       points="569.883,196.177 570.955,196.177 571.955,196.177 574.313,195.961 576.383,195.32 578.314,194.462    580.171,193.891 582.099,192.39 583.743,191.104 585.458,189.675 586.886,187.96 588.172,186.319 589.243,184.388 590.243,182.318    590.887,180.174 591.529,177.888 591.958,175.816 591.958,173.459 591.958,172.244 591.958,171.173 591.529,168.815    590.887,166.744 590.243,164.671 589.243,162.744 588.172,160.67 586.886,158.956 585.458,157.314 583.743,155.599    582.099,154.313 580.171,153.313 578.314,152.456 576.383,151.599 574.313,151.17 571.955,150.526 569.883,150.526    568.598,150.526 567.597,150.526 565.239,151.17 563.168,151.599 561.025,152.456 559.167,153.313 557.238,154.313    555.595,155.599 554.094,157.314 552.666,158.956 551.167,160.67 550.309,162.744 549.093,164.671 548.452,166.744    548.023,168.815 547.594,171.173 547.379,173.459 547.379,174.746 547.594,175.816 548.023,177.888 548.452,180.174    549.093,182.318 550.309,184.388 551.167,186.319 552.666,187.96 554.094,189.675 555.595,191.104 557.238,192.39 559.167,193.891    561.025,194.462 563.168,195.32 565.239,195.961 567.597,196.177  "
       id="polygon3988" /><polygon
       fill="#FFFFFF"
       stroke="#000000"
       stroke-width="0.6435"
       stroke-linejoin="round"
       points="570.097,187.103 570.741,187.103    572.598,186.748 573.668,186.319 574.955,185.674 575.955,185.246 577.241,184.604 578.098,183.959 579.314,183.175 580.6,181.032    581.457,179.746 581.885,178.746 582.458,177.673 582.67,176.174 582.67,174.958 582.885,173.672 582.885,172.815 582.67,170.958    582.458,169.671 581.885,168.458 581.457,167.172 580.6,166.1 579.956,165.243 579.314,164.029 578.098,163.172 577.241,162.528    575.955,161.886 574.955,161.315 573.668,160.67 572.598,160.458 571.382,160.242 570.097,160.242 569.24,160.242 567.382,160.458    566.096,160.67 564.81,161.315 563.81,161.886 562.953,162.528 561.667,163.172 560.025,165.243 559.381,166.1 558.739,167.172    558.095,168.458 557.453,169.671 557.238,170.958 557.024,172.244 557.024,173.672 557.024,174.53 557.238,176.174    557.453,177.673 558.095,178.746 558.739,179.746 559.381,181.032 560.025,182.102 561.667,183.959 562.953,184.604    563.81,185.246 564.81,185.674 566.096,186.319 567.382,186.748 568.598,186.96  "
       id="polygon3990" /><polygon
       fill="#FFFFFF"
       stroke="#000000"
       stroke-width="0.8573"
       points="570.312,185.033 571.382,185.033 572.383,184.817    573.456,184.604 574.526,184.175 575.313,183.747 577.241,182.318 578.743,181.032 579.743,179.174 580.171,178.102 580.6,177.032    581.028,175.958 581.242,174.746 581.242,173.672 581.242,172.602 581.028,171.386 580.6,170.316 580.171,169.458 579.743,168.458    578.743,166.744 577.241,165.03 575.313,163.814 574.526,163.172 573.456,162.957 572.383,162.744 571.382,162.528    570.312,162.315 569.24,162.528 567.954,162.744 566.954,162.957 566.096,163.172 564.81,163.814 563.168,165.03 561.667,166.744    560.596,168.458 560.238,169.458 559.809,170.316 559.381,171.386 559.381,172.602 559.381,173.672 559.381,174.746    559.381,175.958 559.809,177.032 560.238,178.102 560.596,179.174 561.667,181.032 563.168,182.318 564.81,183.747    566.096,184.175 566.954,184.604 567.954,184.817 569.24,185.033  "
       id="polygon3992" /><polygon
       fill="#A89187"
       stroke="#000000"
       stroke-width="0.6435"
       stroke-linejoin="round"
       points="580.171,177.888 579.743,179.388    578.743,180.603 577.885,181.46 577.241,182.318 575.098,183.747 574.097,184.175 572.598,184.604 571.526,185.033    570.312,185.033 569.026,185.033 567.168,184.604 565.455,183.959 564.381,183.175 563.168,182.318 562.095,181.46    561.454,180.388 560.596,179.174 560.025,177.673 559.381,176.174 559.381,174.53 559.381,172.815 559.596,171.386    561.667,172.815 569.883,174.101 578.098,173.031 579.956,172.244 581.028,172.602 581.028,174.101 581.028,175.602    580.813,177.032  "
       id="polygon3994" /><polygon
       fill="#FFFFFF"
       stroke="#000000"
       stroke-width="0.6435"
       stroke-linejoin="round"
       points="570.097,181.889 571.526,181.46    573.027,181.032 574.526,180.388 575.526,179.388 576.599,178.317 577.241,177.032 577.885,175.387 577.885,173.672    577.885,172.244 577.241,170.745 576.599,169.244 575.526,168.243 574.526,167.172 573.027,166.315 571.526,165.886    570.097,165.671 568.598,165.886 567.168,166.315 565.883,167.172 564.597,168.243 563.81,169.244 563.168,170.745    562.524,172.244 562.524,173.672 562.524,175.387 563.168,177.032 563.81,178.317 564.597,179.388 565.883,180.388    567.168,181.032 568.598,181.46  "
       id="polygon3996" /><polygon
       fill="#A89187"
       stroke="#000000"
       stroke-width="0.8573"
       points="563.381,170.316 564.381,169.03 565.455,167.814    566.741,166.744 568.382,166.315 570.097,166.1 571.955,166.315 573.241,166.744 574.742,168.03 575.955,169.03 576.812,170.745    577.241,171.602 577.457,172.815 577.457,174.746 575.955,173.672 570.312,172.815 564.597,173.672 563.381,173.888    562.953,172.815 563.168,171.386  "
       id="polygon3998" /><polygon
       fill="#FFFFFF"
       stroke="#000000"
       stroke-width="0.6435"
       stroke-linejoin="round"
       points="570.312,179.174 571.382,179.174    572.169,178.746 573.241,178.317 574.526,177.245 575.098,175.816 575.526,174.746 575.526,173.672 575.526,172.602    575.098,171.602 574.742,170.529 573.668,169.458 572.169,168.671 571.382,168.458 570.312,168.243 569.24,168.458    568.169,168.671 566.954,169.458 565.883,170.529 565.239,171.602 564.81,172.602 564.81,173.672 564.81,174.746 565.239,175.816    566.096,177.245 567.168,178.317 568.598,178.959 569.883,179.174  "
       id="polygon4000" /><polygon
       fill="#FFFFFF"
       stroke="#000000"
       stroke-width="0.6435"
       stroke-linejoin="round"
       points="570.312,178.317 571.526,178.102    572.812,177.673 573.668,176.603 574.526,175.602 574.742,174.101 574.742,173.244 574.526,172.244 574.097,170.958 573.027,170.1    571.955,169.244 570.741,169.03 570.097,169.03 568.811,169.03 567.741,169.887 566.741,170.529 566.096,171.602 565.667,173.244    565.667,173.888 565.883,175.174 566.312,176.174 567.168,177.245 568.382,177.888 569.883,178.317  "
       id="polygon4002" /><polygon
       fill="#FFFFFF"
       stroke="#000000"
       stroke-width="0.6435"
       stroke-linejoin="round"
       points="567.168,173.672 567.954,172.815    567.168,171.815 566.312,172.815  "
       id="polygon4004" /><polygon
       fill="#FFFFFF"
       stroke="#000000"
       stroke-width="0.6435"
       stroke-linejoin="round"
       points="570.526,171.173 571.382,170.316    570.526,169.458 569.455,170.316  "
       id="polygon4006" /><polygon
       fill="#FFFFFF"
       stroke="#000000"
       stroke-width="0.6435"
       stroke-linejoin="round"
       points="573.241,173.888 574.313,172.815    573.241,172.031 572.383,172.815  "
       id="polygon4008" /><polygon
       fill="#FFFFFF"
       stroke="#000000"
       stroke-width="0.6435"
       stroke-linejoin="round"
       points="572.169,177.032 573.027,176.174    572.169,175.387 571.382,176.174  "
       id="polygon4010" /><polygon
       fill="#FFFFFF"
       stroke="#000000"
       stroke-width="0.6435"
       stroke-linejoin="round"
       points="568.382,177.032 569.24,176.174    568.382,175.387 567.597,176.174  "
       id="polygon4012" /><polygon
       fill="#FFFFFF"
       stroke="#000000"
       stroke-width="0.6435"
       stroke-linejoin="round"
       points="570.312,175.174 571.382,174.746    571.526,173.672 571.526,172.602 570.526,171.815 569.455,172.031 568.598,173.244 568.811,174.317 569.883,175.174  "
       id="polygon4014" /><polygon
       fill="#FFFFFF"
       stroke="#000000"
       stroke-width="0.6435"
       stroke-linejoin="round"
       points="42.227,100.518 42.227,132.881    40.583,132.453 38.868,132.453 37.226,132.453 35.511,132.453 35.511,102.019 37.369,101.162 38.868,100.733 40.369,100.518  "
       id="polygon4016" /><polygon
       fill="#A89187"
       points="38.654,102.232 37.582,102.59 36.368,103.019 36.368,108.306 36.797,106.591 38.226,105.804    39.083,104.734 40.798,103.233 41.369,102.019 40.369,102.019  "
       id="polygon4018" /><polygon
       fill="#A89187"
       stroke="#000000"
       stroke-width="0.6435"
       stroke-linejoin="round"
       points="42.012,116.52 40.798,117.521    39.512,118.165 38.226,119.451 36.582,119.664 36.582,132.237 37.582,132.237 39.083,132.237 40.798,132.237 42.012,132.237  "
       id="polygon4020" /><polygon
       stroke="#000000"
       stroke-width="0.6435"
       stroke-linejoin="round"
       points="36.487,121.153 37.369,120.737 38.439,120.95    39.726,120.092 40.798,119.879 41.941,116.736 39.726,117.165 38.439,118.377 37.369,118.593 36.487,119.654  "
       id="polygon4022" /></g></svg>