<?xml version="1.0" encoding="UTF-8" standalone="no"?>
<!-- Created with Inkscape (http://www.inkscape.org/) -->

<svg
   xmlns:dc="http://purl.org/dc/elements/1.1/"
   xmlns:cc="http://creativecommons.org/ns#"
   xmlns:rdf="http://www.w3.org/1999/02/22-rdf-syntax-ns#"
   xmlns:svg="http://www.w3.org/2000/svg"
   xmlns="http://www.w3.org/2000/svg"
   xmlns:xlink="http://www.w3.org/1999/xlink"
   xmlns:sodipodi="http://sodipodi.sourceforge.net/DTD/sodipodi-0.dtd"
   xmlns:inkscape="http://www.inkscape.org/namespaces/inkscape"
   width="32.802242mm"
   height="30mm"
   viewBox="0 0 116.22841 106.29921"
   id="svg2"
   version="1.1"
   inkscape:version="0.91 r13725"
   sodipodi:docname="Schiff-lineart.svg">
  <title
     id="title4147">ship - lineart</title>
  <defs
     id="defs4">
    <pattern
       inkscape:collect="always"
       xlink:href="#Polkadots-large"
       id="pattern8005"
       patternTransform="matrix(0.38749998,0,0,0.56249999,0,942)" />
    <pattern
       inkscape:collect="always"
       xlink:href="#Polkadots-large"
       id="pattern7913"
       patternTransform="matrix(0.52499999,0,0,0.47499998,-4,938)" />
    <pattern
       inkscape:collect="always"
       xlink:href="#Wavy"
       id="pattern7821"
       patternTransform="matrix(0.08118863,0,0,0.20375676,-2,936)" />
    <pattern
       inkscape:collect="always"
       xlink:href="#Wavy"
       id="pattern7729"
       patternTransform="matrix(0.05624353,0,0,0.27614251,-2.8284271,933.38095)" />
    <pattern
       inkscape:collect="always"
       xlink:href="#Strips1_1"
       id="pattern7637"
       patternTransform="matrix(0.23700299,0.30810389,-1.3291068,1.0223899,-4.125,936.375)" />
    <pattern
       inkscape:collect="always"
       xlink:href="#Wavy"
       id="pattern7541"
       patternTransform="matrix(0.03048528,0.00196322,-0.01060088,0.16461213,-2,938)" />
    <pattern
       inkscape:stockid="Wavy"
       id="Wavy"
       height="5.1805778"
       width="30.066020"
       patternUnits="userSpaceOnUse"
       inkscape:collect="always"
       inkscape:isstock="true">
      <path
         id="path6755"
         d="M 7.597,0.061 C 5.079,-0.187 2.656,0.302 -0.01,1.788 L -0.01,3.061 C 2.773,1.431 5.173,1.052 7.472,1.280 C 9.770,1.508 11.969,2.361 14.253,3.218 C 18.820,4.931 23.804,6.676 30.066,3.061 L 30.062,1.788 C 23.622,5.497 19.246,3.770 14.691,2.061 C 12.413,1.207 10.115,0.311 7.597,0.061 z "
         style="fill:black;stroke:none;" />
    </pattern>
    <pattern
       inkscape:collect="always"
       xlink:href="#Polkadots-large"
       id="pattern7257"
       patternTransform="matrix(0.56012446,0,0,0.66619048,-5.6568542,939.0378)" />
    <pattern
       inkscape:collect="always"
       xlink:href="#Polkadots-large"
       id="pattern7165"
       patternTransform="matrix(0.22424874,0,0,0.24192641,-4,938)" />
    <pattern
       inkscape:collect="always"
       xlink:href="#Strips1_1"
       id="pattern7073"
       patternTransform="matrix(0.63083514,0,0,2.9289322,-3.5355341,936.91649)" />
    <pattern
       inkscape:isstock="true"
       inkscape:stockid="Stripes 1:1"
       id="Strips1_1"
       patternTransform="translate(0,0) scale(10,10)"
       height="1"
       width="2"
       patternUnits="userSpaceOnUse"
       inkscape:collect="always">
      <rect
         id="rect6127"
         height="2"
         width="1"
         y="-0.5"
         x="0"
         style="fill:black;stroke:none" />
    </pattern>
    <pattern
       inkscape:collect="always"
       xlink:href="#Polkadots-large"
       id="pattern6979"
       patternTransform="matrix(0.42499998,0,0,0.52499998,-2,938)" />
    <pattern
       inkscape:collect="always"
       xlink:href="#Polkadots-large"
       id="pattern6887"
       patternTransform="matrix(0.36567009,0,0,0.33031475,-5.6568542,936.20938)" />
    <pattern
       inkscape:stockid="Polka dots, large"
       id="Polkadots-large"
       patternTransform="translate(0,0) scale(10,10)"
       height="10"
       width="10"
       patternUnits="userSpaceOnUse"
       inkscape:collect="always">
      <circle
         id="circle6577"
         r="0.45"
         cy="0.810"
         cx="2.567"
         style="fill:black;stroke:none" />
      <circle
         id="circle6579"
         r="0.45"
         cy="2.33"
         cx="3.048"
         style="fill:black;stroke:none" />
      <circle
         id="circle6581"
         r="0.45"
         cy="2.415"
         cx="4.418"
         style="fill:black;stroke:none" />
      <circle
         id="circle6583"
         r="0.45"
         cy="3.029"
         cx="1.844"
         style="fill:black;stroke:none" />
      <circle
         id="circle6585"
         r="0.45"
         cy="1.363"
         cx="6.08"
         style="fill:black;stroke:none" />
      <circle
         id="circle6587"
         r="0.45"
         cy="4.413"
         cx="5.819"
         style="fill:black;stroke:none" />
      <circle
         id="circle6589"
         r="0.45"
         cy="4.048"
         cx="4.305"
         style="fill:black;stroke:none" />
      <circle
         id="circle6591"
         r="0.45"
         cy="3.045"
         cx="5.541"
         style="fill:black;stroke:none" />
      <circle
         id="circle6593"
         r="0.45"
         cy="5.527"
         cx="4.785"
         style="fill:black;stroke:none" />
      <circle
         id="circle6595"
         r="0.45"
         cy="5.184"
         cx="2.667"
         style="fill:black;stroke:none" />
      <circle
         id="circle6597"
         r="0.45"
         cy="1.448"
         cx="7.965"
         style="fill:black;stroke:none" />
      <circle
         id="circle6599"
         r="0.45"
         cy="5.049"
         cx="7.047"
         style="fill:black;stroke:none" />
      <circle
         id="circle6601"
         r="0.45"
         cy="0.895"
         cx="4.340"
         style="fill:black;stroke:none" />
      <circle
         id="circle6603"
         r="0.45"
         cy="0.340"
         cx="7.125"
         style="fill:black;stroke:none" />
      <circle
         id="circle6605"
         r="0.45"
         cy="1.049"
         cx="9.553"
         style="fill:black;stroke:none" />
      <circle
         id="circle6607"
         r="0.45"
         cy="2.689"
         cx="7.006"
         style="fill:black;stroke:none" />
      <circle
         id="circle6609"
         r="0.45"
         cy="2.689"
         cx="8.909"
         style="fill:black;stroke:none" />
      <circle
         id="circle6611"
         r="0.45"
         cy="4.407"
         cx="9.315"
         style="fill:black;stroke:none" />
      <circle
         id="circle6613"
         r="0.45"
         cy="3.870"
         cx="7.820"
         style="fill:black;stroke:none" />
      <circle
         id="circle6615"
         r="0.45"
         cy="5.948"
         cx="8.270"
         style="fill:black;stroke:none" />
      <circle
         id="circle6617"
         r="0.45"
         cy="7.428"
         cx="7.973"
         style="fill:black;stroke:none" />
      <circle
         id="circle6619"
         r="0.45"
         cy="8.072"
         cx="9.342"
         style="fill:black;stroke:none" />
      <circle
         id="circle6621"
         r="0.45"
         cy="9.315"
         cx="8.206"
         style="fill:black;stroke:none" />
      <circle
         id="circle6623"
         r="0.45"
         cy="9.475"
         cx="9.682"
         style="fill:black;stroke:none" />
      <circle
         id="circle6625"
         r="0.45"
         cy="6.186"
         cx="9.688"
         style="fill:black;stroke:none" />
      <circle
         id="circle6627"
         r="0.45"
         cy="6.296"
         cx="3.379"
         style="fill:black;stroke:none" />
      <circle
         id="circle6629"
         r="0.45"
         cy="8.204"
         cx="2.871"
         style="fill:black;stroke:none" />
      <circle
         id="circle6631"
         r="0.45"
         cy="8.719"
         cx="4.59"
         style="fill:black;stroke:none" />
      <circle
         id="circle6633"
         r="0.45"
         cy="9.671"
         cx="3.181"
         style="fill:black;stroke:none" />
      <circle
         id="circle6635"
         r="0.45"
         cy="7.315"
         cx="5.734"
         style="fill:black;stroke:none" />
      <circle
         id="circle6637"
         r="0.45"
         cy="6.513"
         cx="6.707"
         style="fill:black;stroke:none" />
      <circle
         id="circle6639"
         r="0.45"
         cy="9.670"
         cx="5.730"
         style="fill:black;stroke:none" />
      <circle
         id="circle6641"
         r="0.45"
         cy="8.373"
         cx="6.535"
         style="fill:black;stroke:none" />
      <circle
         id="circle6643"
         r="0.45"
         cy="7.154"
         cx="4.37"
         style="fill:black;stroke:none" />
      <circle
         id="circle6645"
         r="0.45"
         cy="7.25"
         cx="0.622"
         style="fill:black;stroke:none" />
      <circle
         id="circle6647"
         r="0.45"
         cy="5.679"
         cx="0.831"
         style="fill:black;stroke:none" />
      <circle
         id="circle6649"
         r="0.45"
         cy="8.519"
         cx="1.257"
         style="fill:black;stroke:none" />
      <circle
         id="circle6651"
         r="0.45"
         cy="6.877"
         cx="1.989"
         style="fill:black;stroke:none" />
      <circle
         id="circle6653"
         r="0.45"
         cy="3.181"
         cx="0.374"
         style="fill:black;stroke:none" />
      <circle
         id="circle6655"
         r="0.45"
         cy="1.664"
         cx="1.166"
         style="fill:black;stroke:none" />
      <circle
         id="circle6657"
         r="0.45"
         cy="0.093"
         cx="1.151"
         style="fill:black;stroke:none" />
      <circle
         id="circle6659"
         r="0.45"
         cy="10.093"
         cx="1.151"
         style="fill:black;stroke:none" />
      <circle
         id="circle6661"
         r="0.45"
         cy="4.451"
         cx="1.302"
         style="fill:black;stroke:none" />
      <circle
         id="circle6663"
         r="0.45"
         cy="3.763"
         cx="3.047"
         style="fill:black;stroke:none" />
    </pattern>
  </defs>
  <sodipodi:namedview
     id="base"
     pagecolor="#ffffff"
     bordercolor="#666666"
     borderopacity="1.0"
     inkscape:pageopacity="0.0"
     inkscape:pageshadow="2"
     inkscape:zoom="1"
     inkscape:cx="61.108383"
     inkscape:cy="36.135315"
     inkscape:document-units="mm"
     inkscape:current-layer="layer1"
     showgrid="false"
     inkscape:window-width="1046"
     inkscape:window-height="638"
     inkscape:window-x="1204"
     inkscape:window-y="376"
     inkscape:window-maximized="0"
     showguides="false"
     inkscape:snap-global="false"
     fit-margin-top="1"
     fit-margin-right="1"
     fit-margin-bottom="1"
     fit-margin-left="1" />
  <metadata
     id="metadata7">
    <rdf:RDF>
      <cc:Work
         rdf:about="">
        <dc:format>image/svg+xml</dc:format>
        <dc:type
           rdf:resource="http://purl.org/dc/dcmitype/StillImage" />
        <dc:title>ship - lineart</dc:title>
        <cc:license
           rdf:resource="http://creativecommons.org/publicdomain/zero/1.0/" />
        <dc:date>2015-02-18</dc:date>
        <dc:creator>
          <cc:Agent>
            <dc:title>Frank Tremmel</dc:title>
          </cc:Agent>
        </dc:creator>
        <dc:language>ship, vehicle, sea, traffic, schiff, fahrzeug, meer, Verkehr, line art, outline,</dc:language>
        <dc:description>line art ship</dc:description>
      </cc:Work>
      <cc:License
         rdf:about="http://creativecommons.org/publicdomain/zero/1.0/">
        <cc:permits
           rdf:resource="http://creativecommons.org/ns#Reproduction" />
        <cc:permits
           rdf:resource="http://creativecommons.org/ns#Distribution" />
        <cc:permits
           rdf:resource="http://creativecommons.org/ns#DerivativeWorks" />
      </cc:License>
    </rdf:RDF>
  </metadata>
  <g
     inkscape:label="Ebene 1"
     inkscape:groupmode="layer"
     id="layer1"
     transform="translate(4.3085435,-936.16434)">
    <path
       style="fill:none;fill-rule:evenodd;stroke:#ff6600;stroke-width:0.35433072;stroke-linecap:butt;stroke-linejoin:miter;stroke-miterlimit:4;stroke-dasharray:none;stroke-opacity:1"
       d="m 43.144916,973.14504 c -0.0925,-0.2249 -0.1231,-2.0664 0,-2.3928 0.0281,-0.1652 0.36489,-0.4062 0.78875,-0.4776 3.86831,-0.6522 8.83067,-2.3665 10.89114,-2.7739 2.06048,-0.4074 4.80527,-1.485 8.93416,-1.4531 5.66463,0.044 14.03099,-0.1859 17.29624,0.3912 0.23802,0.3005 1.901,3.9737 1.78793,4.3407 -0.6635,0.06 -6.39624,-0.288 -12.58918,-3e-4 -2.70476,0.1256 -5.59531,0.1439 -8.27323,0.33 -5.84618,0.4064 -10.79783,1.0186 -11.42947,1.1006 -2.46661,0.3201 -4.93059,0.7025 -7.40634,0.9352 z"
       id="path4156-4"
       inkscape:connector-curvature="0"
       sodipodi:nodetypes="ccczsccsssc" />
    <path
       style="fill:none;fill-rule:evenodd;stroke:#ff0000;stroke-width:0.35433072;stroke-linecap:butt;stroke-linejoin:miter;stroke-miterlimit:4;stroke-dasharray:none;stroke-opacity:1"
       d="m 8.4477157,1020.5771 c 27.5173103,5.8146 55.7120203,7.7907 83.9285703,9.6429 2.28132,0.3726 3.31378,-0.2538 3.21429,-1.7858 1.37774,-7.2024 2.83674,-17.3165 5.627694,-24.4355 1.23281,-3.1446 3.13824,-5.62826 4.82143,-8.21426 2.28817,-1.5691 0.46902,-2.1113 0.17857,-3.0357 l -2.5,-2.5 c -1.42596,-1.7909 -4.138394,-2.0822 -6.071434,-1.7857 l -25.71429,5.3571 c -9.34523,1.3095 -20.48497,3.9262 -27.67857,4.375 l -2.277236,-1.8767 c -13.308035,2.9961 -26.609003,2.8382 -38.380287,3.0599 -0.055177,1.48166 -0.150497,2.96146 -0.2353273,4.44176 0.12191,0.89 0.0435,1.9803 1.07142,1.9643 -0.0302,3.3413 1.3304217,7.4411 2.2276617,9.6231 0.14965,0.8784 -0.3241417,2.6383 0.0018,3.3839 0.34907,0.9235 0.73597,1.7965 1.78571,1.7857 z"
       id="path4168-9"
       inkscape:connector-curvature="0"
       sodipodi:nodetypes="cccsccccccccccccc" />
    <g
       id="g5365"
       transform="translate(-251.37646,37.123106)">
      <path
         sodipodi:nodetypes="cssssssssssssscccc"
         inkscape:connector-curvature="0"
         id="path5260-5"
         d="m 362.91278,981.94419 c -2.29993,-0.065 -3.95957,-2.0415 -4.89232,-1.6313 -1.51286,0.6653 -2.76602,1.3734 -3.8514,1.5063 -3.91002,0.4786 -8.72067,-4.6617 -12.25627,-2.25 -2.25144,1.5357 -3.17018,2.2905 -6.375,2.25 -4.62539,-0.059 -12.79561,-3.9845 -15.43306,-3.5732 -2.64752,0.4128 -4.13897,1.7642 -7.36872,1.5946 -3.60876,-0.1895 -10.96881,-4.1034 -12.44822,-3.1464 -2.22221,1.4376 -3.91516,2.9351 -6.82583,2.9482 -3.71485,0.017 -9.9599,-4.7559 -12.42417,-3.6982 -2.66652,1.1445 -1.9039,2.5095 -4.80178,2.3598 -2.75421,-0.1423 -8.70577,-4.1935 -10.82322,-3.1098 -2.60907,1.3353 -1.98973,2.3903 -4.87501,1.875 -3.92584,-0.7011 -7.47675,-5.4907 -8.77773,-3.6982 -0.59332,0.8174 -4.22227,0.9482 -4.22227,0.9482 l 0.125,18.2499 115.07322,0.1124 z"
         style="fill:#ffffff;fill-opacity:1;fill-rule:evenodd;stroke:none;stroke-width:0.35433072;stroke-linecap:butt;stroke-linejoin:miter;stroke-miterlimit:4;stroke-dasharray:none;stroke-opacity:1" />
      <path
         sodipodi:nodetypes="cssssscccc"
         inkscape:connector-curvature="0"
         id="path5252-26"
         d="m 345.91279,999.11089 c 0,0 3.00329,-4.43006 3.125,-7.48704 0.11995,-3.01281 0.3214,0.98831 -2.48483,-3.0158 -0.91854,-1.31059 0.62592,-3.54366 2.40024,-4.38077 1.27913,-0.60355 2.37011,-0.0264 3.20958,0.57608 2.37958,1.70961 4.07397,6.93191 6.625,6.38046 1.94992,-0.42155 4.125,-1.98014 4.125,-1.98014 l -0.0518,9.91355 -16.94821,0 z"
         style="fill:#ffffff;fill-opacity:1;fill-rule:evenodd;stroke:none;stroke-width:0.35433072;stroke-linecap:butt;stroke-linejoin:miter;stroke-miterlimit:4;stroke-dasharray:none;stroke-opacity:1" />
      <path
         sodipodi:nodetypes="ccccsccscscscscscsccccccccccccsccccccc"
         inkscape:connector-curvature="0"
         id="path5260-4"
         d="m 251.87308,972.43614 c -1.1259,1.0297 -3.75994,1.1636 -4.26507,2.2645 2.04896,1.4174 4.98802,-1.7101 7.22459,1.4427 3.56524,3.032 7.97766,2.8241 11.62362,-0.4356 3.27022,2.4648 6.9368,3.6611 10.31067,3.479 0.8456,-0.046 1.68391,-0.3222 2.51244,-0.94 2.74336,-3.7785 6.91552,1.0099 10.216,1.9835 2.2759,1.3533 5.06128,0.4588 7.25706,-0.3167 1.40643,-0.4967 2.71603,-1.3798 3.82577,-2.5848 3.28355,2.8938 8.16642,3.2379 12.33386,3.5175 1.22293,0.082 2.46037,-0.062 3.72082,-0.5644 1.24291,-1.0686 3.29675,-0.9535 4.68197,-0.9887 2.42586,-0.062 3.9091,1.3959 6.39691,2.1087 3.19575,1.1931 8.17466,2.3662 11.53734,1.6287 1.2925,-0.2834 1.46838,-1.6446 2.59646,-2.6 1.29576,-0.6797 2.58161,-0.7275 3.86655,-0.4714 3.51961,0.7014 6.6788,4.5664 10.36945,3.0859 0.46693,-0.9726 1.15398,-1.8263 1.91744,-1.843 2.04369,-0.045 4.63486,2.6391 5.0167,0.4197 -2.70067,-0.8736 -5.05881,-2.725 -7.50277,-0.2074 -4.98902,0.9038 -9.84868,-4.9706 -14.58341,-1.5859 -4.57237,3.544 -10.27624,0.4897 -15.02341,-0.9531 -4.05242,-2.3752 -7.97403,-0.3519 -11.84096,1.0057 -4.71573,0.028 -8.74692,-3.1047 -13.35274,-3.6062 -3.21219,2.6326 -7.01457,4.3592 -10.97512,1.7563 -3.37855,-1.1057 -7.91362,-4.4776 -10.86152,-0.8589 -3.74713,3.1871 -8.22423,-2.5693 -12.39479,-2.4809 -3.03543,1.4024 -6.22254,3.4642 -9.3946,0.5127 -1.73072,-0.9138 -3.26927,-2.324 -5.21326,-2.7679 z m 98.9375,11.457 c -2.24791,-0.5296 -4.70543,0.8912 -4.88363,2.3496 -0.10742,0.8792 0.61345,1.9407 2.70785,2.1192 -0.2084,1.4236 -4.79975,6.0249 -1.32514,3.8554 2.28228,-1.6704 3.62396,-5.4513 -0.15214,-5.3816 -0.44231,-2.4499 6.01011,-1.668 7.3696,1.0349 1.7569,2.4733 7.81075,1.3135 8.39662,-0.9387 -3.05668,1.169 -7.05018,0.7314 -9.54461,-2.2897 -0.76013,-0.4918 -1.65292,-0.7964 -2.56855,-0.7491 z"
         style="color:#000000;font-style:normal;font-variant:normal;font-weight:normal;font-stretch:normal;font-size:medium;line-height:normal;font-family:sans-serif;text-indent:0;text-align:start;text-decoration:none;text-decoration-line:none;text-decoration-style:solid;text-decoration-color:#000000;letter-spacing:normal;word-spacing:normal;text-transform:none;direction:ltr;block-progression:tb;writing-mode:lr-tb;baseline-shift:baseline;text-anchor:start;white-space:normal;clip-rule:nonzero;display:inline;overflow:visible;visibility:visible;opacity:1;isolation:auto;mix-blend-mode:normal;color-interpolation:sRGB;color-interpolation-filters:linearRGB;solid-color:#000000;solid-opacity:1;fill:#000000;fill-opacity:1;fill-rule:evenodd;stroke:none;stroke-width:1px;stroke-linecap:butt;stroke-linejoin:miter;stroke-miterlimit:4;stroke-dasharray:none;stroke-dashoffset:0;stroke-opacity:1;color-rendering:auto;image-rendering:auto;shape-rendering:auto;text-rendering:auto;enable-background:accumulate" />
    </g>
    <path
       style="fill:#ffffff;fill-rule:evenodd;stroke:#ff6600;stroke-width:0.35433072;stroke-linecap:butt;stroke-linejoin:miter;stroke-miterlimit:4;stroke-dasharray:none;stroke-opacity:1;fill-opacity:1"
       d="m 96.427242,1027.5252 c -0.400321,0.9335 -0.05281,2.0165 -1.502602,2.7401 l -44.105786,-3.2704 c -11.83335,-0.9759 -23.711607,-2.1016 -36.239222,-5.3917 l -7.4246217,-1.9445 c -0.8248132,-1.0607 -0.085342,-2.7472 0.1767767,-4.2427 l -2.2097087,-6.6291 -0.088388,-3.2704 c -0.3988062,0.025 -0.7086209,0.4065 -1.3258252,-0.4419 l 0.265165,-5.74526 -2.5632621,0 c -0.82955702,-0.4311 -1.26176759,-1.1603 -1.14904854,-2.2981 0.2273758,-1.6704 0.79805144,-1.281 1.23743694,-1.6793 l 3.6239222,-0.1768 0.088388,-1.3258 1.8561553,-0.8839 1.1490485,0 0.6187184,-6.09881 3.6239222,-0.26517 0.265165,-6.18718 17.500893,-2.74004 1.679379,-10.25305 0.265165,-6.36396 6.894291,-2.12132 c 1.405905,-0.23752 2.506265,-0.10838 2.740039,1.06066 l 2.209708,10.34144 2.032932,-10.87177 0.441942,-8.92722 c 1.908422,-0.75655 3.709652,-1.83467 5.833631,-1.94455 3.002545,-0.38168 4.384438,0.047 6.540738,0.0884 l 3.800699,17.58928 18.296388,-0.0884 c 1.430749,-0.13869 1.347654,0.73184 1.414213,1.50261 l 1.414214,3.27037 14.672466,2.38648 -0.176777,6.8059 c -0.338548,0.32048 -0.25735,0.74589 -2.386485,0.61872 l -0.53033,8.13173 5.126528,-0.88388 c 1.27003,-0.0483 2.49885,0.15076 3.53553,1.5026 l 3.62393,3.71226 c 0.43708,0.6717 1.15986,1.3116 -0.44195,2.2098 -2.47746,2.5274 -3.7987,5.28596 -5.12652,8.04326 -2.909637,5.2413 -2.535405,9.0752 -3.800703,13.6118 z"
       id="path5221"
       inkscape:connector-curvature="0"
       sodipodi:nodetypes="ccccccccccccccccccccccccccccccccccccccccccccc" />
    <g
       id="g7412"
       style="fill:url(#pattern7541);fill-opacity:1">
      <path
         sodipodi:nodetypes="ccccc"
         inkscape:connector-curvature="0"
         id="rect4204-2-5"
         d="m 7.5693702,995.80314 1.46885,-0.096 0,1.4392 -1.46885,0 z"
         style="color:#000000;display:inline;overflow:visible;visibility:visible;opacity:1;fill:url(#pattern7541);fill-opacity:1;fill-rule:evenodd;stroke:#d40077;stroke-width:0.17716534;stroke-linecap:round;stroke-linejoin:miter;stroke-miterlimit:4;stroke-dasharray:none;stroke-dashoffset:0;stroke-opacity:1;marker:none;enable-background:accumulate" />
      <path
         sodipodi:nodetypes="ccccc"
         inkscape:connector-curvature="0"
         id="rect4204-1-0"
         d="m 11.08183,995.67534 1.59658,-0.096 0,1.4712 -1.56464,0.064 z"
         style="color:#000000;display:inline;overflow:visible;visibility:visible;opacity:1;fill:url(#pattern7541);fill-opacity:1;fill-rule:evenodd;stroke:#d40077;stroke-width:0.17716534;stroke-linecap:round;stroke-linejoin:miter;stroke-miterlimit:4;stroke-dasharray:none;stroke-dashoffset:0;stroke-opacity:1;marker:none;enable-background:accumulate" />
      <path
         sodipodi:nodetypes="ccccc"
         inkscape:connector-curvature="0"
         id="rect4204-0-7"
         d="m 14.53044,995.51534 1.50078,-0.096 0.0639,1.5352 -1.46885,0.032 z"
         style="color:#000000;display:inline;overflow:visible;visibility:visible;opacity:1;fill:url(#pattern7541);fill-opacity:1;fill-rule:evenodd;stroke:#d40077;stroke-width:0.17716534;stroke-linecap:round;stroke-linejoin:miter;stroke-miterlimit:4;stroke-dasharray:none;stroke-dashoffset:0;stroke-opacity:1;marker:none;enable-background:accumulate" />
      <path
         sodipodi:nodetypes="ccccc"
         inkscape:connector-curvature="0"
         id="rect4204-05-7"
         d="m 17.81938,995.29144 1.46885,-0.063 0.0639,1.5992 -1.50078,0.063 z"
         style="color:#000000;display:inline;overflow:visible;visibility:visible;opacity:1;fill:url(#pattern7541);fill-opacity:1;fill-rule:evenodd;stroke:#d40077;stroke-width:0.17716534;stroke-linecap:round;stroke-linejoin:miter;stroke-miterlimit:4;stroke-dasharray:none;stroke-dashoffset:0;stroke-opacity:1;marker:none;enable-background:accumulate" />
      <path
         sodipodi:nodetypes="ccccc"
         inkscape:connector-curvature="0"
         id="rect4204-5-0"
         d="m 21.52344,995.06764 1.59657,-0.16 0.0319,1.6632 c -0.45682,0.035 -1.02011,0.079 -1.56464,0.096 z"
         style="color:#000000;display:inline;overflow:visible;visibility:visible;opacity:1;fill:url(#pattern7541);fill-opacity:1;fill-rule:evenodd;stroke:#d40077;stroke-width:0.17716534;stroke-linecap:round;stroke-linejoin:miter;stroke-miterlimit:4;stroke-dasharray:none;stroke-dashoffset:0;stroke-opacity:1;marker:none;enable-background:accumulate" />
      <path
         sodipodi:nodetypes="ccccc"
         inkscape:connector-curvature="0"
         id="rect4204-4-5"
         d="m 25.16363,994.71584 1.56464,-0.16 0.0639,1.7592 -1.50078,0.1274 z"
         style="color:#000000;display:inline;overflow:visible;visibility:visible;opacity:1;fill:url(#pattern7541);fill-opacity:1;fill-rule:evenodd;stroke:#d40077;stroke-width:0.17716534;stroke-linecap:round;stroke-linejoin:miter;stroke-miterlimit:4;stroke-dasharray:none;stroke-dashoffset:0;stroke-opacity:1;marker:none;enable-background:accumulate" />
      <path
         sodipodi:nodetypes="ccccc"
         inkscape:connector-curvature="0"
         id="rect4204-7-3"
         d="m 29.05927,994.30004 1.69237,-0.192 0.0319,1.8231 -1.69237,0.1599 z"
         style="color:#000000;display:inline;overflow:visible;visibility:visible;opacity:1;fill:url(#pattern7541);fill-opacity:1;fill-rule:evenodd;stroke:#d40077;stroke-width:0.17716534;stroke-linecap:round;stroke-linejoin:miter;stroke-miterlimit:4;stroke-dasharray:none;stroke-dashoffset:0;stroke-opacity:1;marker:none;enable-background:accumulate" />
      <path
         sodipodi:nodetypes="ccccc"
         inkscape:connector-curvature="0"
         id="rect4204-11-8"
         d="m 33.20969,993.82024 1.7243,-0.224 -0.0319,1.7912 -1.66044,0.1919 z"
         style="color:#000000;display:inline;overflow:visible;visibility:visible;opacity:1;fill:url(#pattern7541);fill-opacity:1;fill-rule:evenodd;stroke:#d40077;stroke-width:0.17716534;stroke-linecap:round;stroke-linejoin:miter;stroke-miterlimit:4;stroke-dasharray:none;stroke-dashoffset:0;stroke-opacity:1;marker:none;enable-background:accumulate" />
      <path
         sodipodi:nodetypes="ccccc"
         inkscape:connector-curvature="0"
         id="rect4204-03-8"
         d="m 36.91443,993.14864 1.69237,-0.1919 0.0319,1.7591 -1.62851,0.2878 z"
         style="color:#000000;display:inline;overflow:visible;visibility:visible;opacity:1;fill:url(#pattern7541);fill-opacity:1;fill-rule:evenodd;stroke:#d40077;stroke-width:0.17716534;stroke-linecap:round;stroke-linejoin:miter;stroke-miterlimit:4;stroke-dasharray:none;stroke-dashoffset:0;stroke-opacity:1;marker:none;enable-background:accumulate" />
      <path
         sodipodi:nodetypes="ccccc"
         inkscape:connector-curvature="0"
         id="rect4204-6-10"
         d="m 14.216376,982.53854 1.19443,-0.1326 0.0442,1.4375 -1.26072,0.088 z"
         style="color:#000000;display:inline;overflow:visible;visibility:visible;opacity:1;fill:url(#pattern7541);fill-opacity:1;fill-rule:evenodd;stroke:#d40077;stroke-width:0.17716534;stroke-linecap:round;stroke-linejoin:miter;stroke-miterlimit:4;stroke-dasharray:none;stroke-dashoffset:0;stroke-opacity:1;marker:none;enable-background:accumulate" />
      <path
         sodipodi:nodetypes="ccccc"
         inkscape:connector-curvature="0"
         id="rect4204-6-7-9"
         d="m 17.033756,982.18494 1.34911,-0.1989 -0.0221,1.5701 -1.32701,0.1547 z"
         style="color:#000000;display:inline;overflow:visible;visibility:visible;opacity:1;fill:url(#pattern7541);fill-opacity:1;fill-rule:evenodd;stroke:#d40077;stroke-width:0.17716534;stroke-linecap:round;stroke-linejoin:miter;stroke-miterlimit:4;stroke-dasharray:none;stroke-dashoffset:0;stroke-opacity:1;marker:none;enable-background:accumulate" />
      <path
         sodipodi:nodetypes="ccccc"
         inkscape:connector-curvature="0"
         id="rect4204-6-1-9"
         d="m 20.304126,981.67674 1.4154,-0.2209 0.0442,1.6584 -1.4154,0.221 z"
         style="color:#000000;display:inline;overflow:visible;visibility:visible;opacity:1;fill:url(#pattern7541);fill-opacity:1;fill-rule:evenodd;stroke:#d40077;stroke-width:0.17716534;stroke-linecap:round;stroke-linejoin:miter;stroke-miterlimit:4;stroke-dasharray:none;stroke-dashoffset:0;stroke-opacity:1;marker:none;enable-background:accumulate" />
      <path
         sodipodi:nodetypes="ccccc"
         inkscape:connector-curvature="0"
         id="rect4204-6-18-05"
         d="m 23.972236,981.10224 1.41541,-0.3093 0.0221,1.7026 -1.41541,0.221 z"
         style="color:#000000;display:inline;overflow:visible;visibility:visible;opacity:1;fill:url(#pattern7541);fill-opacity:1;fill-rule:evenodd;stroke:#d40077;stroke-width:0.17716534;stroke-linecap:round;stroke-linejoin:miter;stroke-miterlimit:4;stroke-dasharray:none;stroke-dashoffset:0;stroke-opacity:1;marker:none;enable-background:accumulate" />
      <path
         sodipodi:nodetypes="ccccc"
         inkscape:connector-curvature="0"
         id="rect4204-6-9-5"
         d="m 27.110026,980.50564 1.4596,-0.2652 0,1.7027 -1.4154,0.2873 z"
         style="color:#000000;display:inline;overflow:visible;visibility:visible;opacity:1;fill:url(#pattern7541);fill-opacity:1;fill-rule:evenodd;stroke:#d40077;stroke-width:0.17716534;stroke-linecap:round;stroke-linejoin:miter;stroke-miterlimit:4;stroke-dasharray:none;stroke-dashoffset:0;stroke-opacity:1;marker:none;enable-background:accumulate" />
      <path
         sodipodi:nodetypes="ccccc"
         inkscape:connector-curvature="0"
         id="rect4204-6-5-6"
         d="m 30.336206,979.88684 1.34911,-0.243 0.0221,1.7026 -1.37121,0.2652 z"
         style="color:#000000;display:inline;overflow:visible;visibility:visible;opacity:1;fill:url(#pattern7541);fill-opacity:1;fill-rule:evenodd;stroke:#d40077;stroke-width:0.17716534;stroke-linecap:round;stroke-linejoin:miter;stroke-miterlimit:4;stroke-dasharray:none;stroke-dashoffset:0;stroke-opacity:1;marker:none;enable-background:accumulate" />
      <path
         sodipodi:nodetypes="ccccc"
         inkscape:connector-curvature="0"
         id="rect4204-6-77-1"
         d="m 33.032046,979.37864 1.61428,-0.3535 0,1.8131 -1.54799,0.2652 z"
         style="color:#000000;display:inline;overflow:visible;visibility:visible;opacity:1;fill:url(#pattern7541);fill-opacity:1;fill-rule:evenodd;stroke:#d40077;stroke-width:0.17716534;stroke-linecap:round;stroke-linejoin:miter;stroke-miterlimit:4;stroke-dasharray:none;stroke-dashoffset:0;stroke-opacity:1;marker:none;enable-background:accumulate" />
      <path
         sodipodi:nodetypes="ccccc"
         inkscape:connector-curvature="0"
         id="rect4204-6-17-61"
         d="m 39.152936,989.10124 1.21653,-0.2431 0.0221,1.2386 -1.23862,0.221 z"
         style="color:#000000;display:inline;overflow:visible;visibility:visible;opacity:1;fill:url(#pattern7541);fill-opacity:1;fill-rule:evenodd;stroke:#d40077;stroke-width:0.17716534;stroke-linecap:round;stroke-linejoin:miter;stroke-miterlimit:4;stroke-dasharray:none;stroke-dashoffset:0;stroke-opacity:1;marker:none;enable-background:accumulate" />
      <path
         sodipodi:nodetypes="ccccc"
         inkscape:connector-curvature="0"
         id="rect4204-6-17-6-7"
         d="m 37.914166,985.75554 1.21653,-0.2431 0.0221,1.2386 -1.23863,0.221 z"
         style="color:#000000;display:inline;overflow:visible;visibility:visible;opacity:1;fill:url(#pattern7541);fill-opacity:1;fill-rule:evenodd;stroke:#d40077;stroke-width:0.17716534;stroke-linecap:round;stroke-linejoin:miter;stroke-miterlimit:4;stroke-dasharray:none;stroke-dashoffset:0;stroke-opacity:1;marker:none;enable-background:accumulate" />
      <path
         sodipodi:nodetypes="ccccc"
         inkscape:connector-curvature="0"
         id="rect4204-6-17-3-3"
         d="m 39.217896,981.82224 1.21653,-0.2431 0.0221,1.2386 -1.23863,0.221 z"
         style="color:#000000;display:inline;overflow:visible;visibility:visible;opacity:1;fill:url(#pattern7541);fill-opacity:1;fill-rule:evenodd;stroke:#d40077;stroke-width:0.17716534;stroke-linecap:round;stroke-linejoin:miter;stroke-miterlimit:4;stroke-dasharray:none;stroke-dashoffset:0;stroke-opacity:1;marker:none;enable-background:accumulate" />
      <path
         sodipodi:nodetypes="ccccc"
         inkscape:connector-curvature="0"
         id="rect4204-6-17-8-13"
         d="m 38.577076,977.93314 1.21653,-0.2431 0.0221,1.2386 -1.23862,0.221 z"
         style="color:#000000;display:inline;overflow:visible;visibility:visible;opacity:1;fill:url(#pattern7541);fill-opacity:1;fill-rule:evenodd;stroke:#d40077;stroke-width:0.17716534;stroke-linecap:round;stroke-linejoin:miter;stroke-miterlimit:4;stroke-dasharray:none;stroke-dashoffset:0;stroke-opacity:1;marker:none;enable-background:accumulate" />
      <path
         inkscape:connector-curvature="0"
         id="rect4204-9-06"
         d="m 6.8354615,1003.07 0.96852,0 0,1.0908 -0.96852,0 z"
         style="color:#000000;display:inline;overflow:visible;visibility:visible;opacity:1;fill:url(#pattern7541);fill-opacity:1;fill-rule:evenodd;stroke:#d40077;stroke-width:0.17716534;stroke-linecap:round;stroke-linejoin:miter;stroke-miterlimit:4;stroke-dasharray:none;stroke-dashoffset:0;stroke-opacity:1;marker:none;enable-background:accumulate" />
      <path
         inkscape:connector-curvature="0"
         id="rect4204-9-7-3"
         d="m 9.6583915,1003.0918 0.9685205,0 0,1.0908 -0.9685205,0 z"
         style="color:#000000;display:inline;overflow:visible;visibility:visible;opacity:1;fill:url(#pattern7541);fill-opacity:1;fill-rule:evenodd;stroke:#d40077;stroke-width:0.17716534;stroke-linecap:round;stroke-linejoin:miter;stroke-miterlimit:4;stroke-dasharray:none;stroke-dashoffset:0;stroke-opacity:1;marker:none;enable-background:accumulate" />
      <path
         inkscape:connector-curvature="0"
         id="rect4204-9-1-3"
         d="m 12.272202,1003.0387 1.17763,0 0,1.197 -1.17763,0 z"
         style="color:#000000;display:inline;overflow:visible;visibility:visible;opacity:1;fill:url(#pattern7541);fill-opacity:1;fill-rule:evenodd;stroke:#d40077;stroke-width:0.17716534;stroke-linecap:round;stroke-linejoin:miter;stroke-miterlimit:4;stroke-dasharray:none;stroke-dashoffset:0;stroke-opacity:1;marker:none;enable-background:accumulate" />
      <path
         inkscape:connector-curvature="0"
         id="rect4204-9-9-1"
         d="m 15.147402,1003.0918 1.22991,0 0,1.197 -1.22991,0 z"
         style="color:#000000;display:inline;overflow:visible;visibility:visible;opacity:1;fill:url(#pattern7541);fill-opacity:1;fill-rule:evenodd;stroke:#d40077;stroke-width:0.17716534;stroke-linecap:round;stroke-linejoin:miter;stroke-miterlimit:4;stroke-dasharray:none;stroke-dashoffset:0;stroke-opacity:1;marker:none;enable-background:accumulate" />
      <path
         inkscape:connector-curvature="0"
         id="rect4204-9-76-8"
         d="m 18.022612,1003.07 1.2299,0 0,1.2501 -1.2299,0 z"
         style="color:#000000;display:inline;overflow:visible;visibility:visible;opacity:1;fill:url(#pattern7541);fill-opacity:1;fill-rule:evenodd;stroke:#d40077;stroke-width:0.17716534;stroke-linecap:round;stroke-linejoin:miter;stroke-miterlimit:4;stroke-dasharray:none;stroke-dashoffset:0;stroke-opacity:1;marker:none;enable-background:accumulate" />
      <path
         inkscape:connector-curvature="0"
         id="rect4204-9-5-0"
         d="m 20.897812,1002.9856 1.2299,0 0,1.2501 -1.2299,0 z"
         style="color:#000000;display:inline;overflow:visible;visibility:visible;opacity:1;fill:url(#pattern7541);fill-opacity:1;fill-rule:evenodd;stroke:#d40077;stroke-width:0.17716534;stroke-linecap:round;stroke-linejoin:miter;stroke-miterlimit:4;stroke-dasharray:none;stroke-dashoffset:0;stroke-opacity:1;marker:none;enable-background:accumulate" />
      <path
         inkscape:connector-curvature="0"
         id="rect4204-9-3-9"
         d="m 23.720732,1002.9106 1.17763,0 0,1.3033 -1.17763,0 z"
         style="color:#000000;display:inline;overflow:visible;visibility:visible;opacity:1;fill:url(#pattern7541);fill-opacity:1;fill-rule:evenodd;stroke:#d40077;stroke-width:0.17716534;stroke-linecap:round;stroke-linejoin:miter;stroke-miterlimit:4;stroke-dasharray:none;stroke-dashoffset:0;stroke-opacity:1;marker:none;enable-background:accumulate" />
      <path
         inkscape:connector-curvature="0"
         id="rect4204-9-6-89"
         d="m 26.595932,1002.72 1.17763,0 0,1.197 -1.17763,0 z"
         style="color:#000000;display:inline;overflow:visible;visibility:visible;opacity:1;fill:url(#pattern7541);fill-opacity:1;fill-rule:evenodd;stroke:#d40077;stroke-width:0.17716534;stroke-linecap:round;stroke-linejoin:miter;stroke-miterlimit:4;stroke-dasharray:none;stroke-dashoffset:0;stroke-opacity:1;marker:none;enable-background:accumulate" />
      <path
         inkscape:connector-curvature="0"
         id="rect4204-9-66-6"
         d="m 29.523412,1002.4324 1.22991,0 0,1.25 -1.22991,0 z"
         style="color:#000000;display:inline;overflow:visible;visibility:visible;opacity:1;fill:url(#pattern7541);fill-opacity:1;fill-rule:evenodd;stroke:#d40077;stroke-width:0.17716534;stroke-linecap:round;stroke-linejoin:miter;stroke-miterlimit:4;stroke-dasharray:none;stroke-dashoffset:0;stroke-opacity:1;marker:none;enable-background:accumulate" />
      <path
         inkscape:connector-curvature="0"
         id="rect4204-9-62-84"
         d="m 32.503172,1002.0824 1.2299,0 0,1.2502 -1.2299,0 z"
         style="color:#000000;display:inline;overflow:visible;visibility:visible;opacity:1;fill:url(#pattern7541);fill-opacity:1;fill-rule:evenodd;stroke:#d40077;stroke-width:0.17716534;stroke-linecap:round;stroke-linejoin:miter;stroke-miterlimit:4;stroke-dasharray:none;stroke-dashoffset:0;stroke-opacity:1;marker:none;enable-background:accumulate" />
      <path
         inkscape:connector-curvature="0"
         id="rect4204-9-99-0"
         d="m 35.701672,1001.8228 1.27254,0 0,1.1908 -1.27254,0 z"
         style="color:#000000;display:inline;overflow:visible;visibility:visible;opacity:1;fill:url(#pattern7541);fill-opacity:1;fill-rule:evenodd;stroke:#d40077;stroke-width:0.17716534;stroke-linecap:round;stroke-linejoin:miter;stroke-miterlimit:4;stroke-dasharray:none;stroke-dashoffset:0;stroke-opacity:1;marker:none;enable-background:accumulate" />
      <path
         inkscape:connector-curvature="0"
         id="rect4204-9-0-8"
         d="m 39.142262,1001.1791 1.28218,0 0,1.3033 -1.28218,0 z"
         style="color:#000000;display:inline;overflow:visible;visibility:visible;opacity:1;fill:url(#pattern7541);fill-opacity:1;fill-rule:evenodd;stroke:#d40077;stroke-width:0.17716534;stroke-linecap:round;stroke-linejoin:miter;stroke-miterlimit:4;stroke-dasharray:none;stroke-dashoffset:0;stroke-opacity:1;marker:none;enable-background:accumulate" />
      <path
         inkscape:connector-curvature="0"
         id="rect4204-9-59-2"
         d="m 42.435682,1000.7321 1.33446,0 0,1.3032 -1.33446,0 z"
         style="color:#000000;display:inline;overflow:visible;visibility:visible;opacity:1;fill:url(#pattern7541);fill-opacity:1;fill-rule:evenodd;stroke:#d40077;stroke-width:0.17716534;stroke-linecap:round;stroke-linejoin:miter;stroke-miterlimit:4;stroke-dasharray:none;stroke-dashoffset:0;stroke-opacity:1;marker:none;enable-background:accumulate" />
    </g>
    <path
       style="fill:url(#pattern6979);fill-opacity:1;fill-rule:evenodd;stroke:none;stroke-width:0.35433072;stroke-linecap:butt;stroke-linejoin:miter;stroke-miterlimit:4;stroke-dasharray:none;stroke-opacity:1"
       d="m 81.950406,1003.8058 c -9.23206,1.2675 -18.40785,2.9846 -27.67857,3.9286 -8.12841,0.8277 -16.29413,1.4489 -24.46429,1.5178 -8.57985,0.072 -25.005826,-1.2062 -25.005826,-1.2062 l -0.2665126,-2.2768 c 0,0 10.7986586,0.9315 16.4330586,0.8938 9.99557,-0.067 19.99218,-0.9025 29.91071,-2.1429 10.38078,-1.2982 20.61429,-3.5871 30.89286,-5.53566 3.13112,-0.5936 9.375,-1.875 9.375,-1.875 l 8.21429,-1.4286 c 1.725044,-0.3262 2.805064,-0.1401 3.704014,0.3598 l 1.55936,1.8399 c -0.83333,1.2778 -2.10861,2.68986 -2.94194,4.29646 -0.46776,-0.5545 -0.6487,-0.935 -2.232144,-0.6926 0,0 -4.11977,0.5369 -11.022705,1.4511 -3.860205,0.5144 -5.289905,0.7073 -6.477305,0.8703 z"
       id="path4150-64"
       inkscape:connector-curvature="0"
       sodipodi:nodetypes="sssccssscccccccs" />
    <path
       style="fill:url(#pattern6887);fill-opacity:1;fill-rule:evenodd;stroke:#0000ff;stroke-width:0.35433072;stroke-linecap:butt;stroke-linejoin:miter;stroke-miterlimit:4;stroke-dasharray:none;stroke-opacity:1"
       d="m 6.8781673,1016.4643 c 0,0 13.1839327,2.3923 18.9557227,3.1215 9.31098,1.1764 18.66169,2.1352 28.03571,2.5893 9.49921,0.4601 18.63555,0.764 28.57143,0.5354 3.77888,-0.087 11.16251,-1.5077 11.16251,-1.5077 1.26804,-0.3255 2.97681,-1.2736 3.83031,-2.1357 l -1.79206,9.2192 c 0.12877,1.505 -1.23336,1.9961 -2.57397,1.8967 0,0 -27.18469,-1.5294 -40.71428,-2.978 -10.31196,-1.1041 -20.564454,-2.228 -30.803124,-3.8788 -4.29948,-0.6933 -14.6253629,-3.3164 -14.6253629,-3.3164 -0.4347527,-1.9368 -0.3098852,-2.6238 -0.046886,-3.5455 z"
       id="path4152-4"
       inkscape:connector-curvature="0"
       sodipodi:nodetypes="csssccccsscc" />
    <path
       style="fill:url(#pattern7165);fill-opacity:1;fill-rule:evenodd;stroke:#55d400;stroke-width:0.35433072;stroke-linecap:butt;stroke-linejoin:miter;stroke-miterlimit:4;stroke-dasharray:none;stroke-opacity:1"
       d="m 89.048626,1001.4987 c -1.20825,0.015 -2.38953,1.4217 -2.5,2.625 -0.10461,1.1393 0.73829,2.7449 1.875,2.875 1.43461,0.1642 3.11026,-1.5561 3.125,-3 0.012,-1.1784 -1.32158,-2.5144 -2.5,-2.5 z"
       id="path4200-3"
       inkscape:connector-curvature="0"
       sodipodi:nodetypes="sssss" />
    <path
       style="fill:url(#pattern7637);fill-opacity:1;fill-rule:evenodd;stroke:#00ffff;stroke-width:0.35433072;stroke-linecap:butt;stroke-linejoin:miter;stroke-miterlimit:4;stroke-dasharray:none;stroke-opacity:1"
       d="m 8.3156298,989.49943 c 8.5000002,-0.8245 18.6793792,-1.55737 27.1793792,-3.83237 l -0.0625,2.14678 c -6.85503,1.30759 -13.222753,2.3298 -19.215054,2.85107 -2.685526,0.23362 -5.330967,0.40194 -7.8500485,0.38922 z"
       id="path4202-6"
       inkscape:connector-curvature="0"
       sodipodi:nodetypes="cccscc" />
    <path
       style="fill:none;fill-rule:evenodd;stroke:#0000ff;stroke-width:0.35433072;stroke-linecap:butt;stroke-linejoin:miter;stroke-miterlimit:4;stroke-dasharray:none;stroke-opacity:1"
       d="m 42.057546,996.10584 c -2.03621,1.2104 -16.18272,2.9362 -19.9866,3.0625 -4.13316,0.1372 -12.1566403,0.3025 -16.9682903,0.2957 -2.48567,0 -4.39821003,-0.1627 -4.38439003,-0.2179 -1.3467,-1.0361 -0.24647,-2.9757 0.17857,-3.5688 l 3.75000003,-0.2679 c -0.2979529,-1.5354 0.4633457,-1.884 1.2535841,-1.9652 0,0 11.7767402,-0.7572 17.4513102,-1.34012 3.42985,-0.3523 10.223666,-1.42678 10.223666,-1.42678 2.33801,-0.2873 1.83743,-1.2005 2.05357,-1.9643 l 1.42857,-14.5536 c 0.21643,-1.3637 0.92969,-1.4853 1.60715,-1.6964 l 3.59758,-0.588 z"
       id="path4146-9"
       inkscape:connector-curvature="0"
       sodipodi:nodetypes="cssccccscccccc" />
    <path
       style="fill:none;fill-rule:evenodd;stroke:#ff00ff;stroke-width:0.35433072;stroke-linecap:butt;stroke-linejoin:miter;stroke-miterlimit:4;stroke-dasharray:none;stroke-opacity:1"
       d="m 36.278393,983.05837 c 0,0 -9.754982,1.95877 -14.708232,2.61617 -4.24335,0.5632 -13.0141411,1.48758 -13.0141411,1.48758 l -0.5492742,6.05072 c 0,0 8.4024803,-0.5811 11.9949303,-0.8795 4.89381,-0.4065 13.44829,-1.5177 13.44829,-1.5177 1.63397,-0.01 1.88214,-0.8808 2.20971,-1.7047 z"
       id="path4164-6"
       inkscape:connector-curvature="0"
       sodipodi:nodetypes="csccsccc" />
    <path
       style="fill:url(#pattern7729);fill-opacity:1;fill-rule:evenodd;stroke:#00ffff;stroke-width:0.35433072;stroke-linecap:butt;stroke-linejoin:miter;stroke-miterlimit:4;stroke-dasharray:none;stroke-opacity:1"
       d="m 43.986126,979.87114 c 0,0 16.40828,-2.5296 25.5003,-2.6702 3.61882,-0.056 8.71612,-0.2026 13.43899,0.077 6.32891,0.3755 11.93571,1.2182 11.93571,1.2182 l 0,-2.5 c 0,0 -6.2103,-1.255 -12.80744,-1.7544 -4.46944,-0.3384 -8.98117,-0.1793 -12.37988,-0.1612 -9.13267,0.048 -25.68768,2.2281 -25.68768,2.2281 z"
       id="path4183-81"
       inkscape:connector-curvature="0"
       sodipodi:nodetypes="cssccsscc" />
    <path
       style="fill:none;fill-rule:evenodd;stroke:#ff00ff;stroke-width:0.35433072;stroke-linecap:butt;stroke-linejoin:miter;stroke-miterlimit:4;stroke-dasharray:none;stroke-opacity:1"
       d="m 42.725666,973.35904 c 0,0 13.94484,-2.08 21.0238,-2.3359 6.56224,-0.2372 13.14684,-0.702 19.69797,-0.2526 4.50147,0.3089 14.40099,2.1971 14.40099,2.1971 0.30287,0.1128 0.73397,0.09 0.63134,1.2627 l -0.0631,4.7546 c 0.10273,1.5969 -0.70746,1.3339 -1.70463,1.2627 l -0.88388,0.3788 -0.12627,0.8839 c 0,0 -11.10866,-1.049 -16.16876,-1.187 -3.4924,-0.095 -6.9904,-0.036 -10.48033,0.1263 -4.68222,0.2178 -9.35031,0.6855 -14.01586,1.1364 -4.13145,0.3993 -12.37437,1.764 -12.37437,1.764 z"
       id="path4154-61"
       inkscape:connector-curvature="0"
       sodipodi:nodetypes="cssccccccssscc" />
    <path
       style="fill:url(#pattern7821);fill-opacity:1;fill-rule:evenodd;stroke:#00ffff;stroke-width:0.35433072;stroke-linecap:butt;stroke-linejoin:miter;stroke-miterlimit:4;stroke-dasharray:none;stroke-opacity:1"
       d="m 43.798626,993.52524 c 0,0 16.47078,-2.7866 25.5628,-2.9797 3.61882,-0.077 10.34112,-0.1532 15.06399,0.2308 4.76641,-0.8593 10.24951,-2.1288 10.24951,-2.1288 l 0,-3.4512 c 0,0 -6.1491,-0.1718 -12.74624,-0.4827 -4.48855,-0.2115 -8.98117,-0.2462 -12.37988,-0.2214 -9.13267,0.066 -25.75018,2.3726 -25.75018,2.3726 z"
       id="path4183-0-5"
       inkscape:connector-curvature="0"
       sodipodi:nodetypes="cscccsscc" />
    <path
       style="fill:none;fill-rule:evenodd;stroke:#aad400;stroke-width:0.35433072;stroke-linecap:butt;stroke-linejoin:miter;stroke-miterlimit:4;stroke-dasharray:none;stroke-opacity:1"
       d="m 95.039696,989.26564 0.26785,-7.3026 -13.39285,-1.0714 -8.125,-0.1786 -11.42857,0.625 c -6.69197,0.5404 -13.38393,1.3495 -20.0759,2.4732 l -0.0848,12.7223 2.27679,1.9821 c 6.53708,-0.4323 13.48557,-1.9889 20.94643,-3.2768 6.4334,-1.1106 12.93279,-2.3506 19.25893,-3.741 z"
       id="path4144-6"
       inkscape:connector-curvature="0"
       sodipodi:nodetypes="ccccccccssc" />
    <path
       style="fill:url(#pattern7913);fill-opacity:1;fill-rule:evenodd;stroke:#ff00ff;stroke-width:0.35433072;stroke-linecap:butt;stroke-linejoin:miter;stroke-miterlimit:4;stroke-dasharray:none;stroke-opacity:1"
       d="m 31.736126,965.65684 c 0,0 3.53089,-1.55 5.35714,-1.875 0.80579,-0.1433 1.82142,-0.467 2.81417,-0.4423 0.99274,0.025 2.00726,0.7102 2.00726,0.7102 l 0.44643,2.1875 c 0,0 -0.71697,-0.3108 -2.23451,-0.3467 -0.7229,-0.017 -2.19391,0.3102 -2.72085,0.3914 -2.11629,0.326 -5.98214,2.0982 -5.98214,2.0982 z"
       id="path4166-7"
       inkscape:connector-curvature="0"
       sodipodi:nodetypes="cssccsscc" />
    <path
       style="fill:url(#pattern8005);fill-opacity:1;fill-rule:evenodd;stroke:#ff00ff;stroke-width:0.35433072;stroke-linecap:butt;stroke-linejoin:miter;stroke-miterlimit:4;stroke-dasharray:none;stroke-opacity:1"
       d="m 45.945406,954.73384 c 0,0 3.61477,-1.4554 5.44101,-1.7803 0.8058,-0.1434 3.38614,-0.6841 4.37667,-0.7549 1.52846,-0.1092 3.48048,0 3.48048,0 l 0.58035,3.5714 c -0.37761,-0.37 -2.49006,-0.7298 -4.30749,-0.5961 -0.72115,0.053 -3.29057,0.515 -3.86215,0.6854 -2.05194,0.612 -5.80357,2.0536 -5.80357,2.0536 z"
       id="path4166-8-5"
       inkscape:connector-curvature="0"
       sodipodi:nodetypes="cssccsscc" />
    <path
       style="fill:none;fill-rule:evenodd;stroke:#aad400;stroke-width:0.35433072;stroke-linecap:butt;stroke-linejoin:miter;stroke-miterlimit:4;stroke-dasharray:none;stroke-opacity:1"
       d="m 29.780766,977.39494 c 1.1295,-4.6068 1.60124,-10.1975 1.91964,-15.6282 0.0325,-0.3274 -0.0145,-0.6547 0.35714,-0.9821 0,0 2.72413,-1.3592 4.24108,-1.7411 1.31359,-0.3307 4.02341,-0.2568 4.10714,-0.089 0.45496,0.2306 0.89487,0.5138 1.11607,1.5625 l 1.85078,10.5973 -4.84666,0.695 c -0.70018,0.3214 -1.2753,0.4989 -1.54983,1.7903 l -0.3063,2.3779 z"
       id="path4160-4"
       inkscape:connector-curvature="0"
       sodipodi:nodetypes="cccsccccccc" />
    <path
       style="fill:none;fill-rule:evenodd;stroke:#aad400;stroke-width:0.35433072;stroke-linecap:butt;stroke-linejoin:miter;stroke-miterlimit:4;stroke-dasharray:none;stroke-opacity:1"
       d="m 44.379616,970.46704 c 0,0 1.10733,-7.0498 1.41008,-10.6021 0.23395,-2.745 0.3125,-8.2589 0.3125,-8.2589 -0.031,-0.5335 0.15111,-0.9391 0.71428,-1.1161 3.62702,-1.7068 6.73983,-1.5281 10.04465,-2.0535 1.551,-0.1204 1.97317,1.0934 2.23214,2.5 0.47789,2.1636 0.84917,4.4694 1.25103,6.7344 0.53501,3.0156 1.12423,5.9588 2.09138,8.3982 -3.02079,0.2696 -4.0512,0.7442 -5.62718,1.1358 -4.37501,1.0874 -8.28592,2.1748 -12.42888,3.2622 z"
       id="path4158-3"
       inkscape:connector-curvature="0"
       sodipodi:nodetypes="csccccscsc" />
    <path
       style="fill:none;fill-rule:evenodd;stroke:#c83737;stroke-width:0.35433072;stroke-linecap:butt;stroke-linejoin:miter;stroke-miterlimit:4;stroke-dasharray:none;stroke-opacity:1"
       d="m 36.569798,976.57289 c 0,0 -8.12088,1.7048 -12.09293,2.4089 -3.9829,0.7059 -11.9487,1.86528 -11.9487,1.86528 l -0.151488,5.81837 c 0,0 6.346965,-0.67406 9.369525,-1.05206 4.84159,-0.6055 14.35643,-2.50239 14.35643,-2.50239 z"
       id="path4162-8"
       inkscape:connector-curvature="0"
       sodipodi:nodetypes="csccscc" />
    <path
       style="color:#000000;font-style:normal;font-variant:normal;font-weight:normal;font-stretch:normal;font-size:medium;line-height:normal;font-family:sans-serif;text-indent:0;text-align:start;text-decoration:none;text-decoration-line:none;text-decoration-style:solid;text-decoration-color:#000000;letter-spacing:normal;word-spacing:normal;text-transform:none;direction:ltr;block-progression:tb;writing-mode:lr-tb;baseline-shift:baseline;text-anchor:start;white-space:normal;clip-rule:nonzero;display:inline;overflow:visible;visibility:visible;opacity:1;isolation:auto;mix-blend-mode:normal;color-interpolation:sRGB;color-interpolation-filters:linearRGB;solid-color:#000000;solid-opacity:1;fill:#000000;fill-opacity:1;fill-rule:evenodd;stroke:none;stroke-width:1.77165353;stroke-linecap:butt;stroke-linejoin:miter;stroke-miterlimit:4;stroke-dasharray:none;stroke-dashoffset:0;stroke-opacity:1;color-rendering:auto;image-rendering:auto;shape-rendering:auto;text-rendering:auto;enable-background:accumulate"
       d="m 45.157205,950.41558 c -0.253149,0.42976 -0.302664,0.89035 -0.29198,1.05356 0.02381,0.36365 -0.07248,5.70175 -0.297909,8.3468 -0.181288,2.1271 -0.598166,5.10504 -0.947266,7.48047 l -1.255876,-7.07623 c -0.09734,-0.54846 -0.581234,-1.16551 -1.062636,-1.45536 -0.481397,-0.28984 -0.643219,-0.36774 -1.064819,-0.41984 -0.421601,-0.0521 -0.921099,-0.1297 -1.368616,-0.1287 -0.895034,0.002 -1.887431,0.18041 -2.699219,0.38477 -1.756028,0.44207 -4.403206,1.79325 -4.669452,2.00651 -0.24953,0.19987 -0.449805,0.57564 -0.521956,0.88026 -0.07215,0.30461 -0.06303,0.51434 -0.221804,3.19071 -0.158773,2.67636 -0.616933,8.01957 -1.639575,12.43237 -1.692019,0.33607 -3.346729,0.65893 -4.587891,0.87891 -3.940024,0.69833 -11.916014,1.86133 -11.916016,1.86133 -0.423744,0.13607 -0.939872,0.16656 -0.804687,0.9414 l -0.17578,5.43946 c -1.354917,0.12486 -3.109375,0.28711 -3.109375,0.28711 -0.6319491,0.10015 -0.7083981,0.43837 -0.7695313,0.78315 l -0.4707031,4.72852 c -0.09883,0.006 -1.110079,0.0735 -1.1100791,0.0735 -0.4592233,0.25416 -0.6255742,0.63236 -0.990234,0.86196 -0.1554631,0.098 -0.3469692,0.1688 -0.6125775,0.1915 l -0.7203204,0.096 -0.066789,1.1264 -3.00017476,0.1215 c -0.57676709,0.047 -1.5310007,1.5008 -1.54647032,2.4064 -0.0126549,0.7408 0.14457932,1.6123 0.43161292,1.9929 0.2870336,0.3806 0.44279736,0.6862 1.02773184,0.8947 0.58493452,0.20846 0.90873252,0.23346 1.31191022,0.25746 0.2517885,0.015 0.5796496,0.028 0.8867187,0.041 l -0.1776794,3.8986 c -0.010514,0.2307 0.021854,0.7504 0.2108827,1.3319 0.2201041,0.6706 0.4924889,0.635 1.0004977,0.8557 0.095545,3.0516 0.8676021,5.3837 1.6323148,7.3924 0.093818,0.2464 0.5335437,1.3464 0.5845198,2.4643 0.026014,0.5705 -0.3056191,1.2292 -0.338426,1.7251 -0.041052,0.6206 -0.1434552,1.1729 0.030982,1.6069 0.1877247,0.467 0.4814386,0.8805 0.9807365,1.1353 0.5559352,0.2837 1.0800606,0.8751 15.1687747,3.7769 14.088732,2.9019 42.324954,4.878 57.012336,5.8995 9.449067,0.6571 13.23794,0.8868 14.959264,0.8418 0.954256,-0.025 1.273094,-0.1344 1.568614,-0.3022 0.364045,-0.2068 0.64023,-0.5152 0.904012,-1.2162 0.292503,-0.7774 0.569755,-2.0375 0.934641,-4.1773 0.693942,-4.0693 2.165976,-14.1505 4.889818,-21.0984 1.17565,-2.9988 2.88822,-5.51586 4.73242,-8.04096 0.3431,-0.4698 0.87503,-0.6846 1.08594,-1.0957 0.25641,-0.4998 0.22526,-1.1275 0.041,-1.5293 -0.18423,-0.4017 -0.42792,-0.644 -0.66611,-1.0115 -0.16584,-0.1938 -2.89053,-3.02171 -2.89053,-3.02171 -1.74706,-2.11027 -4.716206,-2.35968 -6.832042,-2.03515 l 0,0.01 -0.02344,0 -1.77539,0.36914 0.21875,-5.92578 0.07617,-0.53711 0.291015,-0.125 c 0.386917,0.054 0.786851,0.18087 1.378906,-0.0547 0.355485,-0.14144 0.7052,-0.49141 0.855469,-0.8789 0.150235,-0.38741 0.154829,-0.78522 0.156811,-0.98856 l 0.04831,-4.95675 c 0.0065,-0.66321 -0.02171,-1.20263 -0.376953,-1.61719 -0.367575,-0.42895 -0.825757,-0.48667 -0.900182,-0.50703 -0.332179,-0.0909 -10.83123,-1.69828 -13.498124,-2.13407 -0.41299,-0.74516 -0.60009,-1.23589 -0.82044,-1.7476 -0.22035,-0.51171 -0.54068,-0.97862 -0.797595,-1.68205 -0.21494,-0.58851 -0.735345,-1.06511 -1.137952,-1.04843 -1.81142,-0.0959 -4.426043,-0.32549 -7.646484,-0.34571 -3.220442,-0.0202 -6.729924,0.0257 -9.546875,0.004 -0.379093,-0.003 -0.73395,0.0115 -1.091797,0.0254 -0.837827,-2.24379 -1.402407,-4.97726 -1.908203,-7.82812 -0.397655,-2.24134 -0.768691,-4.54541 -1.080344,-6.02041 -0.311654,-1.475 -0.586062,-2.19515 -0.984156,-2.96801 -0.399283,-0.77517 -1.248064,-0.91506 -2.289149,-0.93287 -2.255715,-0.0386 -6.73399,0.16314 -8.873572,1.11334 -2.139582,0.9502 -2.590562,1.2693 -2.842978,1.69781 z m 6.097692,2.05424 c -1.36861,0.25319 -3.117801,0.88287 -4.298829,1.33594 -0.01631,-0.93916 -0.0089,-1.67036 -0.07751,-2.57813 1.731764,-0.87555 3.798432,-1.33458 5.75797,-1.53893 3.393639,-0.35391 4.453772,-0.0104 4.79802,0.0839 0.329996,0.6941 0.381876,1.4719 0.484412,1.87848 -0.647465,0.0316 -1.467072,-0.0211 -2.631793,0.0978 -1.164722,0.11891 -2.456714,0.42946 -4.03227,0.72093 z m 4.18551,2.05476 c -0.854043,0.0629 -3.238895,0.64132 -3.976563,0.86132 -1.623993,0.48434 -3.611499,1.23892 -4.607422,1.61915 0.02816,-0.68774 0.05324,-1.3807 0.07227,-2.03321 0.859288,-0.33569 3.132344,-1.19631 4.513672,-1.45508 1.497403,-0.28052 2.772002,-0.51353 4.320312,-0.74804 0.858441,-0.13002 1.669323,0.066 2.431091,0.13685 0.169914,0.35567 0.374199,1.84498 0.374199,1.84498 0,0 -2.169025,-0.29657 -3.127559,-0.22597 z m 3.205078,1.28121 c 0.110742,0.6352 0.377282,1.45515 0.490234,2.09179 0.456199,2.57131 1.004653,5.0658 1.767578,7.35157 -2.032891,0.28762 -3.297968,0.66269 -4.513672,0.96484 -3.850925,0.95711 -7.323561,1.91117 -10.910156,2.86328 0.245469,-1.58833 0.942277,-5.97564 1.207031,-9.08203 0.04477,-0.52525 0.07941,-1.19333 0.113281,-1.84766 0.986766,-0.37326 2.840187,-1.19398 4.46875,-1.67968 0.4055,-0.12093 3.721696,-0.85044 4.310547,-0.88477 1.193723,-0.0696 2.00576,-2e-5 3.066407,0.22266 z m -18.116198,4.4544 0.561557,2.85034 c -0.360044,-0.13411 -0.76239,-0.2506 -1.208984,-0.26171 -1.117171,-0.0278 -2.174115,0.3165 -2.919922,0.44921 -1.491213,0.26535 -3.390325,1.03743 -4.46875,1.49414 0.06149,-0.84139 0.06012,-2.14699 0.200373,-2.78597 0.317029,-0.46221 2.680863,-1.37949 3.909045,-1.68867 0.501806,-0.12632 1.494247,-0.30399 2.098435,-0.36089 0.939778,-0.0885 1.436839,0.14432 1.828246,0.30355 z m -0.672865,3.65107 c 0.630195,0.0156 1.116428,0.25076 1.339844,0.38476 l 0.332031,1.31836 c -0.305891,-0.0961 -0.532147,-0.19362 -1.427734,-0.21484 -0.450123,-0.0107 -1.0005,0.0743 -1.535156,0.16601 -0.534657,0.0917 -1.048517,0.19492 -1.279297,0.23047 -1.153238,0.17767 -2.650816,0.71356 -3.896485,1.20313 -0.627794,0.24673 -0.832715,0.34429 -1.121094,0.47265 0.04572,-0.49293 0.102296,-0.97907 0.142579,-1.47461 0.594782,-0.25449 3.25663,-1.3887 4.738281,-1.65234 0.865779,-0.15406 1.838707,-0.45515 2.707031,-0.43359 z m 1.853516,2.73632 0.716797,4.10938 c 0,0 -0.89705,0.14636 -1.345704,0.21875 -0.957548,0.15449 -2.468729,0.27599 -2.873192,0.46007 -0.152489,0.0694 -0.554066,0.0525 -1.187295,0.6063 -0.63323,0.55376 -0.690803,1.16118 -0.76144,1.49271 l -0.299152,2.1167 -5.00586,1.03125 c 0.536896,-2.51406 0.912361,-5.23071 1.199219,-8.00977 0.327062,-0.14614 0.714905,-0.32786 1.625,-0.68554 1.216335,-0.47803 2.706868,-0.99228 3.669922,-1.14063 0.296155,-0.0456 0.783564,-0.14441 1.296875,-0.23242 0.513309,-0.088 1.057305,-0.1588 1.611167,-0.14567 0.553863,0.0131 1.038217,0.0998 1.353663,0.17887 z m 31.288478,3.27511 c -3.134169,0.0865 -6.423786,0.26294 -9.694728,0.38119 -5.193394,0.18774 -9.102318,0.71821 -13.546875,1.33203 -0.237248,0.0328 -6.144696,0.92625 -6.227472,0.91935 -2.07e-4,-0.0105 -0.04456,-0.53134 -0.04456,-0.53134 0.134382,-0.2421 1.178606,-0.42174 3.045181,-0.97765 2.109644,-0.60009 5.919633,-1.84312 10.27757,-2.92624 1.653516,-0.41097 1.874759,-0.53227 4.818359,-0.97656 0.595886,-0.0899 1.94264,-0.14394 2.619141,-0.1387 2.847676,0.0221 6.32237,-0.11753 9.435901,-0.0978 3.11353,0.0197 6.247207,-0.0902 7.180928,0.35756 0.528246,0.88607 1.220084,2.19031 1.249661,2.80148 -1.564174,0.0487 -5.978935,-0.22983 -9.113106,-0.14332 z m 24.355265,9.55589 c -0.170957,0.0809 -0.519717,0.084 -0.862926,0.0592 l -1.882272,0.6334 -0.07227,0.50977 -6.338868,-0.50781 c -0.04852,-0.004 -4.801062,-0.47152 -6.274414,-0.50194 -1.454039,-0.03 -2.994334,-0.16699 -4.35363,-0.18609 -1.473522,-0.0207 -2.577285,-0.0405 -3.831917,0.006 -1.687065,0.063 -3.566275,0.17561 -5.138671,0.23629 -1.604051,0.0619 -3.201936,0.18649 -4.798829,0.3086 -1.598248,0.12221 -1.024166,0.07 -2.492099,0.17436 -1.467932,0.10435 -3.879384,0.3484 -5.525243,0.52238 -1.645859,0.17398 -2.147188,0.24309 -2.593987,0.29543 -0.483159,0.0566 -0.966254,0.11051 -3.036574,0.38186 -2.070319,0.27135 -5.335155,0.75069 -7.008348,1.03025 l -0.05664,-8.36328 c -0.0015,-0.22312 1.232937,-0.1899 2.042969,-0.30469 2.016927,-0.23051 3.861678,-0.48131 5.841797,-0.73828 0.603665,-0.0784 5.71389,-0.69117 11.533203,-1.0957 2.637922,-0.18337 5.428196,-0.26387 8.158203,-0.39063 1.533635,-0.0712 3.041863,-0.0312 4.451137,-0.0489 1.108879,-0.0139 2.725538,0.0178 4.109344,0.0897 1.393403,0.0724 2.185492,0.0467 5.413431,0.3847 2.850026,0.29843 11.973308,1.77829 12.71161,2.01761 0.01955,0.73932 0.005,5.48777 0.005,5.48777 z m -55.926983,-5.95982 c 0.02546,3.4225 -0.06642,10.26758 -0.06642,10.26758 l -0.0073,11.8185 c -1.86421,0.6477 -3.96408,0.9584 -5.746323,1.2546 -1.583214,0.2631 -3.264371,0.4591 -4.740502,0.6445 -3.983732,0.5003 -7.841543,0.8283 -11.840074,0.959 -4.321041,0.1412 -9.9884779,0.2632 -13.8357073,0.259 -1.2235068,0 -2.6839577,0 -3.6180215,-0.021 -0.69099594,-0.1354 -0.95318208,-0.9591 -0.89346736,-1.5172 0.0409142,-0.3824 0.32791556,-0.776 0.86891076,-0.8678 l 3.9179687,-0.1699 0.078125,-1.6473 c 0.03737,-0.4344 0.244993,-0.5813 0.6747158,-0.6413 0,0 1.5195813,-0.067 1.9366154,-0.094 0.809606,-0.052 1.5176578,-0.1128 2.4277345,-0.1719 3.595963,-0.2333 8.934316,-0.5846 12.902343,-0.9922 3.460364,-0.3555 10.274878,-1.2513 10.285157,-1.25196 0.475364,-0.0303 0.893829,-0.13654 1.431779,-0.36985 0.537949,-0.23331 0.875506,-0.54567 1.062361,-0.89187 0.202886,-0.3759 0.258722,-0.68459 0.307355,-0.89185 0.0041,-0.0174 0.35663,-3.79942 0.545189,-5.69813 0.271423,-2.73312 0.620924,-5.45886 0.843751,-8.19637 0.03634,-0.44647 0.08039,-1.34144 0.08039,-1.34144 0.02082,-0.13148 -0.01914,-0.37479 0.18449,-0.57847 0.203629,-0.20368 0.459805,-0.2191 0.743907,-0.26278 l 2.440467,-0.37521 c 0,0 0.01467,0.51818 0.0166,0.77735 z m 25.250413,0.14085 c -0.534006,0.0124 -1.629587,0.096 -2.785533,0.16361 l -2.650748,0.15512 c -1.127722,0.066 -3.399837,0.27671 -4.501448,0.38934 l -5.479343,0.56022 c -0.835916,0.0855 -2.326252,0.28898 -3.577445,0.43047 l -1.96423,0.22212 c -0.799984,0.0905 -2.070927,0.27105 -2.070927,0.27105 l 0.0752,4.63189 c 0,0 3.828938,-0.54916 6.056903,-0.83928 l 5.283917,-0.68807 c 1.506459,-0.19617 3.042875,-0.36554 4.615235,-0.50586 1.040821,-0.0929 1.627881,-0.1372 3.564947,-0.32197 3.080617,-0.29386 3.753179,-0.31777 6.212396,-0.35582 1.369375,-0.0212 2.917507,-0.11198 4.603516,-0.0976 l 2.241967,0.019 c 0.468673,0.004 2.275919,0.0213 3.240455,0.0122 1.769543,-0.0166 2.949385,0.0755 4.556508,0.21122 3.759687,0.31753 7.52237,0.68168 11.255992,1.23599 l 0.05227,-3.50729 c 0,0 -1.311902,-0.28775 -1.877401,-0.40388 0,0 -2.621098,-0.46051 -3.938546,-0.6454 -1.533092,-0.21515 -3.281241,-0.4376 -4.61049,-0.5754 -1.053794,-0.10924 -1.98204,-0.18599 -2.924666,-0.26837 -0.999384,-0.0873 -1.999696,-0.11949 -3.001953,-0.1543 -1.067144,-0.0371 -2.112503,-0.0795 -4.101624,-0.0593 -1.98912,0.0202 -3.065231,-8.6e-4 -3.317005,0.005 z m 8.088026,2.98026 c -0.209088,0.002 -1.412626,0.004 -1.412626,0.004 l 0.06055,-2.01172 1.391506,-0.003 c 0.03611,0.37465 -0.03943,2.01109 -0.03943,2.01109 z m 2.157691,-2.02155 -0.01953,2.01172 c -0.347956,-9.8e-4 -0.706186,-0.009 -1.048828,-0.008 l 0.01069,-1.97281 c 0.168549,5.8e-4 0.715235,-0.0346 1.057668,-0.0309 z m -4.636715,2.05292 c -0.477622,0.008 -0.990643,0.0116 -1.4375,0.0195 l 0.01953,-2.05078 c 0.464832,-0.005 1.238531,-0.0383 1.485476,-0.0416 z m -2.500002,0.0156 -1.513672,0.0352 0,-2.03125 c 0.449293,-0.0108 1.255496,-0.0589 1.549029,-0.061 0.02685,0.39749 -0.03536,2.05708 -0.03536,2.05708 z m 9.625,-0.0332 c -0.486758,-0.006 -0.938517,-0.0174 -1.445313,-0.0295 l 0.01953,-1.97453 c 0.474473,-0.005 0.932542,-0.076 1.434691,0.0423 0.0334,0.46203 0.0296,1.25615 -0.0089,1.96169 z m -12.201173,0.14643 c -0.449461,0.0207 -0.857046,0.0246 -1.324219,0.0527 l 0.04102,-2.0918 c 0.452441,-0.0218 1.113314,-0.003 1.330839,-0.011 z m 14.5625,-1.99808 0,1.94141 c -0.43235,-0.0195 -0.864482,-0.0352 -1.298828,-0.0488 l -0.04811,-2.01025 c 0.21361,0.0112 0.919539,0.0867 1.346938,0.11764 z m -16.910157,0.0488 -0.04102,2.04883 -1.392578,0.10742 0.03221,-2.10645 c 0.141011,-0.009 1.40139,-0.0498 1.401388,-0.0498 z m 17.972657,0.0566 1.173828,0.0996 0.03906,1.83984 -1.21289,-0.0996 z m -20.46875,0.0703 0,2.14063 c -0.485689,0.0418 -0.965484,0.0886 -1.455078,0.13476 l 0.02148,-2.16211 c 0.481263,-0.0378 0.956451,-0.0792 1.433598,-0.11328 z m 23.605464,2.04102 c -0.277271,-0.0231 -0.571509,-0.0425 -0.857422,-0.0645 l 0.008,-1.85654 c 0.157526,0.0171 0.783225,0.0947 0.93627,0.11267 z m -26.124991,0.33984 c -0.448814,0.048 -0.831573,0.0758 -1.292969,0.1152 l 0,-2.16016 1.314451,-0.11912 z m 27.224605,-2.01771 c 0.380012,0.0484 0.70273,0.0971 1.0625,0.14649 l 0.03906,1.70117 -1.140625,-0.0957 z m -29.580078,0.041 0,2.2168 c -0.653911,0.0718 -1.281424,0.14623 -1.917969,0.2207 l 0.04297,-2.25586 c 0.622493,-0.0613 1.236265,-0.12269 1.874999,-0.18164 z m 32.449221,2.01562 c -0.216374,-0.0242 -0.582677,-0.0699 -0.811657,-0.0944 l 0.04181,-1.6493 c 0.12311,0.0181 0.701391,0.0852 0.817649,0.10296 z m -35.390628,-1.73049 -0.04297,2.2754 c -0.519717,0.0627 -0.912192,0.11523 -1.410156,0.17773 l 0.04297,-2.30273 c 0.498577,-0.0528 0.890051,-0.0975 1.410156,-0.1504 z m 36.490235,0.2461 c 0.317898,0.0517 0.594056,0.0972 0.871094,0.14453 l 0.01758,1.54492 -0.925781,-0.11523 z m -38.966797,0.0234 -0.04297,2.32421 c -0.731538,0.0945 -1.379671,0.17922 -2.033203,0.26758 l 0.04297,-2.36523 c 0.656072,-0.0751 1.298951,-0.14646 2.033203,-0.22656 z m 40.904297,0.29882 c 0.699466,0.12585 1.15938,0.21732 1.314453,0.24805 l 0,1.46484 c -0.09506,-0.014 -0.945312,-0.12036 -1.296875,-0.16992 z m -44.003906,0.0625 -0.04297,2.32227 -1.41211,0.19531 0.04297,-2.375 z m -2.478516,0.27344 -0.04297,2.44141 c -0.800578,0.11723 -1.810365,0.26418 -1.972656,0.28906 l 0,-2.47852 c 0.12976,-0.0169 1.161881,-0.14595 2.015626,-0.25195 z m -6.503906,0.88086 -1.566407,0.38574 0,1.50098 1.595704,-0.28516 z m -0.345703,0.42969 0.01563,0.87695 -0.882813,0.15625 0,-0.85937 z m -4.265625,4.66796 c -0.940714,0.1734 -8.548221,1.7614 -13.048829,2.32422 -2.568362,0.32118 -8.265661,1.28394 -9.457031,1.21289 l 0.16215,-4.89844 c 1.041913,-0.1522 7.983177,-1.00794 11.707031,-1.66797 3.542986,-0.62797 10.375543,-1.84061 11.144783,-2.00136 z M 32.874,979.21575 c 0.02727,0.69138 0.0535,1.38281 0.08012,2.07422 l 1.894532,-0.32422 -2.1e-5,-2.18359 z m 1.619141,0.008 0,1.44335 -1.201172,0.20508 -0.05273,-1.37304 z m -2.609375,0.18554 -1.699219,0.30664 0,2.08789 1.726563,-0.33398 z m -0.349609,0.42383 0.01953,1.3457 -1.015625,0.19532 0,-1.36133 z m -2.763672,0.17383 -1.816407,0.33008 c 0.0178,0.6953 0.03519,1.39062 0.05273,2.08593 l 1.763672,-0.35742 z m -0.353516,0.42187 0,1.34766 -1.066406,0.2168 -0.03516,-1.36328 z m -4.599609,0.50977 c 0.0091,0.6543 0.01825,1.30859 0.02739,1.96289 l 1.769532,-0.27734 -0.02737,-2.07227 z m 1.419921,0.0527 0.01758,1.33008 -1.060547,0.16602 -0.01758,-1.26563 z m -3.322265,0.23633 -1.767578,0.27539 c 0.01744,0.6719 0.03633,1.34376 0.05468,2.01563 l 1.767578,-0.27539 z m 72.435547,1.25605 -0.07031,2.18849 c -0.07253,-0.002 -0.865234,-0.047 -2.078126,-0.0459 -2.101,0.002 -5.139573,-0.17776 -8.69922,-0.33364 -3.559647,-0.15588 -4.93309,-0.29589 -7.945794,-0.33479 -3.012705,-0.0389 -3.943716,0.019 -4.269769,0.0273 -1.410084,0.036 -3.252556,0.0398 -4.588439,0.0951 -1.204162,0.0498 -2.195985,0.12227 -3.463622,0.21746 -1.8953,0.14232 -3.835271,0.2751 -4.794769,0.37537 l -4.257965,0.44498 c -1.84612,0.19293 -3.24647,0.38054 -4.746094,0.55273 0,0 -2.059439,0.28284 -3.012141,0.39507 -0.95628,0.11266 -2.114767,0.24373 -3.06989,0.37648 l 0,7.75192 c 3.828585,-0.4156 7.49992,-1.2193 11.277522,-1.7702 4.922823,-0.71775 9.938375,-1.17417 14.827947,-1.3079 2.626525,-0.0718 6.89304,-0.10737 10.826172,0.0137 l -6.035157,1.2577 c -1.210645,0.2523 -2.424206,0.4954 -3.646484,0.6836 -8.961586,1.3799 -19.156877,3.9184 -25.855469,4.3828 l -1.728515,-1.2501 0.10742,-11.92947 c 0.84975,-0.16691 2.837413,-0.46669 5.751953,-0.88477 2.23928,-0.32122 4.4782,-0.60824 6.720703,-0.83984 2.766324,-0.2857 5.528176,-0.59329 8.292968,-0.74414 l 6.658204,-0.36328 c 3.008998,-0.16417 5.959979,-0.11562 6.519078,-0.10365 2.172802,0.0465 1.714045,0.0367 3.252804,0.0696 1.538759,0.0329 5.385306,0.33741 8.520879,0.59545 3.135572,0.25804 4.890704,0.42264 5.506114,0.47988 z m -53.71875,-1.14303 -1.566406,0.38672 0,1.5 1.595703,-0.28515 z m -19.058594,0.29883 0.0332,1.30078 -1.0625,0.16602 -0.03516,-1.30078 z m -2.986328,0.11914 -1.705078,0.25 0,1.87891 1.677734,-0.19531 z m 21.699219,0.0137 0.01563,0.875 -0.882813,0.15821 0,-0.86133 z m -22.058594,0.39844 -0.01758,1.20508 -0.97461,0.11328 0,-1.17187 z m -4.162109,0.18552 c -0.0081,0.58074 -0.01809,1.16146 -0.02739,1.74219 l 1.623047,-0.11329 -0.05467,-1.79882 z m 1.199218,0.22265 c 0.01096,0.35939 0.02211,0.71878 0.0332,1.07817 l -0.898437,0.0625 0.01758,-1.04688 c 0.282529,-0.0312 0.565278,-0.0625 0.847657,-0.0938 z m 20.019532,1.31055 -0.12695,1.24414 c -4.178484,1.11388 -8.67551,2.02149 -13.183556,2.56472 -4.422101,0.53287 -8.886056,0.98928 -13.0390997,1.32395 l 0.105469,-1.3125 c 0.8859876,-0.078 8.3888407,-0.85721 12.4374997,-1.39453 4.610061,-0.61183 12.482376,-2.19881 13.806637,-2.42578 z m 34.720705,6.14068 -2.408203,0.0684 0.146484,-4.97461 c 0.636733,-0.0212 1.969118,-0.0563 2.400574,-0.0575 z m 3.10156,-0.0271 c -0.753478,0.006 -1.381292,0.0149 -2.039062,0.0254 l 0.238572,-4.96008 c 0.324511,-10e-4 1.471103,0.005 1.823297,0.007 z m 2.601563,-4.90638 -0.119141,4.88281 -1.419922,-0.0156 -0.06055,-4.88089 z m 3.326172,0.0742 -0.04102,4.875 c -0.783545,-0.017 -1.565801,-0.0407 -2.341797,-0.0469 l 0.120127,-4.81251 c 0.374034,0.008 1.494776,-0.0397 2.26269,-0.0156 z m -12.355469,-0.0137 -0.146485,5.03516 c -0.736819,0.0456 -1.491237,0.10371 -2.265625,0.16796 l 0.01563,-5.06836 c 0.820238,-0.0527 1.62099,-0.1 2.39648,-0.13476 z m 15.512695,0.12105 -0.0068,4.79105 -2.128906,-0.041 0.04297,-4.78518 z m -42.862305,-0.004 -1.568359,0.38671 0,1.50001 1.595703,-0.28516 z m 43.783203,0.0547 c 0.741863,0.0334 1.290988,0.0528 1.992188,0.082 l 0.03516,4.70703 -0.767578,0.16015 c -0.347673,-0.0272 -0.753659,-0.0379 -1.11914,-0.0605 z m -19.910158,5.10942 c -0.733688,0.071 -1.552053,0.14938 -2.22851,0.21489 l 0.146484,-5.11523 2.099607,-0.17386 z m 24.400393,-4.8555 0.05859,4.00977 -1.458985,0.30468 -0.0332,-4.36327 z m 2.511719,0.0332 0.105468,3.43946 -0.845703,0.18164 -0.652343,0.13476 -0.05778,-3.77718 c 0.215662,0.008 1.060022,0.008 1.450357,0.0213 z m -30.060547,-0.002 -0.148438,5.16992 c -0.844091,0.0934 -1.676861,0.18328 -2.509765,0.28516 l 0.07031,-5.22266 c 0.859939,-0.0841 1.717672,-0.15626 2.587893,-0.23242 z m 32.410156,0.0801 -0.03906,2.88476 -1.146484,0.24805 -0.09766,-3.15821 z m -53.482422,0.01 0.01563,0.87696 -0.880859,0.15625 0,-0.85938 z m 55.25,0.0449 -0.08984,2.46093 -0.65039,0.14063 0.09492,-2.62348 c 0.05976,0.002 0.603186,0.0207 0.645312,0.0219 z m -37.900388,5.42582 -2.230468,0.30078 -0.113282,-5.26563 c 0.783412,-0.0933 1.569661,-0.15942 2.355593,-0.22576 z m -21.279299,-4.94141 -0.12109,1.39063 c -4.271222,0.90162 -8.64865,1.56241 -12.938734,2.0932 -4.272326,0.52859 -9.301779,0.96027 -13.2097034,0.9693 l 0.068359,-0.86133 c 4.3742004,-0.41774 9.6230764,-0.86346 14.2147174,-1.42613 3.959792,-0.48524 8.168852,-1.18969 11.986451,-2.16567 z m 17.873046,0.0977 0.115235,5.3125 c -0.964533,0.13397 -1.715557,0.24719 -2.568359,0.37304 l -0.113282,-5.38281 c 0.847466,-0.10154 1.604817,-0.19452 2.566406,-0.30273 z m -3.628906,0.42773 0.113282,5.39456 -2.052735,0.3105 -0.06055,-5.46678 c 0.546755,-0.0696 1.332893,-0.15659 2.000003,-0.23828 z m -3.0625,0.37695 0.0625,5.50781 c -0.734882,0.1188 -1.723068,0.2785 -1.878906,0.3047 l 0,-5.57422 c 0.116244,-0.016 1.104394,-0.14456 1.816406,-0.23829 z m -11.394038,1.30733 c 0.0031,0.36861 -0.14039,1.38528 -0.315087,1.50057 -0.174697,0.1153 -0.586514,0.25044 -3.084376,0.61253 -2.497862,0.36209 -6.609578,1.07824 -11.456542,1.4686 -3.614081,0.29108 -7.78217,0.47378 -11.3496089,0.70118 l 0.152344,-1.38285 c 7.9746849,0.0144 17.4208879,-1.29307 21.7145299,-2.02813 4.293642,-0.73506 3.66612,-0.67549 4.33874,-0.8719 z m 5.728023,0.17705 -1.566407,0.38671 0,1.50001 1.595704,-0.28516 z m -0.345703,0.42969 0.01562,0.87695 -0.882812,0.15625 0,-0.85937 z m 66.038303,4.64204 c 0.34799,0.5198 -0.006,0.9329 -0.55346,1.4972 -0.54748,0.5643 -0.91478,1.1046 -1.28186,1.6483 l -1.17934,-1.2006 c -0.40888,-0.4163 -1.67156,-0.8039 -2.59279,-0.631 0,0 -6.103796,1.0322 -9.145831,1.6027 -3.130906,0.5871 -6.250451,1.2815 -9.371088,1.8731 -10.28997,1.95066 -20.514208,4.23526 -30.861328,5.52926 -4.176666,0.5223 -8.365997,1.1052 -12.562131,1.4563 -5.754086,0.4815 -11.520966,0.6438 -17.285525,0.6823 -5.155578,0.034 -14.4441296,-0.7478 -15.8925783,-0.9043 -0.5169528,-0.056 -0.9382827,-0.067 -1.1825174,-0.1325 -0.037109,-0.099 -0.1954345,-1.2452 -0.1549104,-1.7177 0.071707,-0.8361 -0.087213,-1.6232 0.4142152,-2.7074 l 1.1662456,0 0.2447896,-0.6226 c 1.2921381,-0.05 5.2285067,0.037 6.9288107,0 3.081294,-0.067 6.202013,-0.12006 9.235713,-0.21916 1.999299,-0.065 6.460976,-0.5311 10.75,-1.1328 2.144511,-0.3008 4.23622,-0.6372 5.935547,-0.9766 1.190914,-0.2378 2.34693,-0.5008 2.732057,-0.6372 0.0091,0 1.321778,1.1166 2.815754,1.8969 3.993976,-0.063 13.682449,-1.9431 21.116248,-3.2263 1.779506,-0.3072 3.563609,-0.6339 5.162215,-0.8968 0.458298,-0.075 0.916416,-0.1802 4.226452,-0.818 3.325303,-0.6407 6.63847,-1.3151 9.90625,-2.0332 3.292358,-0.7235 2.764415,-0.60202 4.148438,-0.89453 3.07635,-0.65018 9.236965,-1.9127 9.236965,-1.9127 -1.576303,0.32641 0.776792,-0.23878 1.746433,-0.20428 0.969646,0.0345 2.440086,0.65751 2.656506,0.9294 z m -69.522685,-0.7445 0.109369,2.2626 1.976562,-0.3476 -0.03906,-2.1055 z m 1.699225,0.204 0.02539,1.4141 -1.28125,0.2266 -0.07813,-1.4903 z m -5.432593,0.4659 0.03616,2.1572 2.009765,-0.2305 0.03708,-2.1523 z m 1.721656,0.1787 -0.02539,1.4316 -1.3125,0.1524 -0.02539,-1.4063 z m -5.841797,0.3437 c 0.01057,0.7143 0.02449,1.4285 0.03716,2.1426 l 2.046875,-0.1934 -0.03909,-2.1816 z m 1.699219,0.1641 0.02344,1.4648 -1.337891,0.127 -0.02539,-1.4395 z m -3.681641,0.055 -1.923828,0.1953 c 0.05353,0.6926 0.103191,1.3854 0.154295,2.0781 l 1.847656,-0.1562 z m -5.558594,0.5469 c 0.02863,0.6471 0.05248,1.2943 0.07811,1.9414 0.640829,-0.026 1.278612,-0.096 1.916229,-0.16 l -0.03927,-1.9772 z m 5.26953,1.244 -1.154296,0.098 -0.101563,-1.375 1.205078,-0.1232 z m -7.150389,-1.1074 -1.820313,0.078 c 0.01409,0.6511 0.02621,1.3021 0.03906,1.9531 l 1.859375,-0.078 z m 3.513671,1.3597 c -0.372828,0.029 -0.791728,0.057 -1.214844,0.074 l -0.05078,-1.252 1.240234,-0.1228 z m -8.628905,-1.0546 c 0.03529,0.6063 0.07754,1.2122 0.117222,1.8183 l 1.820313,-0.039 -0.0801,-1.8985 z m -3.441407,0.1601 c 0.01346,0.5964 0.02611,1.1927 0.03906,1.7891 l 1.914062,-0.078 2e-6,-1.8283 z m 8.265627,1.148 -1.142578,0.018 -0.02344,-1.2148 c 0.389136,-0.016 0.971734,-0.033 1.138211,-0.04 z m -9.9511734,-1.1407 -1.8242188,0.1192 0,1.6875 1.8242188,0 z m 6.6933544,1.2638 -1.117188,0.025 -0.07226,-1.125 1.142578,-0.074 z m -3.408198,0.1 -1.214844,0.049 -0.02344,-1.0859 1.238283,-0.076 z m -3.6406252,0.088 -1.1132812,0 0,-1 1.1132812,-0.072 z m 94.1855452,-0.2129 0.75196,1.0274 c -0.70832,1.063 -1.5437,2.31186 -2.16635,3.45066 -0.24765,0 -0.48036,-0.4517 -0.75863,-0.5634 -0.45016,-0.1807 -0.908472,-0.054 -1.610723,0.152 -0.0131,0 -8.060016,1.2891 -8.060016,1.2891 -0.667819,-0.5601 -1.168093,-1.1659 -2.201171,-1.1016 -0.806689,0.05 -1.518127,0.4598 -2.048829,1.0411 -0.192268,0.2106 -0.353847,0.4452 -0.498046,0.6894 -1.51387,0.2026 -2.93612,0.3965 -4.117188,0.5586 -9.249132,1.2698 -18.418893,2.9848 -27.660156,3.9258 -8.119384,0.8268 -16.269812,1.4474 -24.416016,1.5156 -4.074143,0.034 -9.935129,-0.1144 -14.925318,-0.4176 -4.834491,-0.2937 -8.8503188,-0.7407 -9.7153066,-0.809 -0.041124,-0.3805 -0.066467,-0.7816 -0.078125,-1.2011 1.5153278,0.1352 10.6398046,0.9374 15.8886716,0.9023 5.905059,-0.04 11.852242,-0.2365 17.737234,-0.7366 4.103757,-0.3487 8.154568,-0.9015 12.235422,-1.4118 10.414424,-1.3024 20.658621,-3.5927 30.925782,-5.53906 3.136447,-0.5946 9.34691,-1.8698 9.364788,-1.8729 l 8.416937,-1.4683 c 0.19611,-0.034 0.53155,-0.069 1.13156,-0.069 0.60001,-2e-4 1.37688,0.055 1.80352,0.6384 z m -60.792967,3.79486 0,1.6563 1.689453,0 0,-1.6563 z m 0.353515,0.3536 0.980469,0 0,0.9493 -0.980469,0 z m -3.646484,0.1231 0,1.6582 1.636719,0 0,-1.6582 z m 0.353516,0.3555 0.927734,0 0,0.9492 -0.927734,0 z m -3.792701,0.2811 0,1.5525 1.624732,0 0,-1.5525 z m 0.312911,0.3112 1.000629,0 0,0.9301 -1.000629,0 z m -3.512398,-0.044 0,1.6035 1.583985,0 0,-1.6035 z m 60.945293,18.7065 c -0.04448,0.011 -7.398258,1.4102 -11.048828,1.4942 -9.917556,0.2283 -19.039152,-0.075 -28.533204,-0.5352 -9.354966,-0.4532 -18.693292,-1.3959 -27.99414,-2.5859 -5.860239,-0.7498 -11.736617,-1.8399 -17.5378795,-2.8077 -0.3298707,-0.045 -0.7856265,-0.124 -0.7082189,-0.7663 -0.031504,-0.8698 -0.2824145,-1.5098 -0.4591368,-2.2569 -0.3751531,-1.586 -0.96309,-3.0635 -1.2751227,-4.72 1.3770888,0.1075 5.3119489,0.5693 9.8897479,0.8751 4.944424,0.3302 10.638894,0.5004 14.670684,0.4665 8.194106,-0.069 16.376237,-0.6909 24.513672,-1.5195 9.300181,-0.947 18.482262,-2.6665 27.697265,-3.9317 1.015657,-0.1394 3.015939,-0.3514 3.55434,-0.4393 -0.08032,0.6855 0.09333,1.6939 0.488634,2.3456 0.395309,0.6517 0.997862,1.2211 1.796875,1.3125 0.948875,0.1086 1.888288,-0.3382 2.527344,-1.0469 0.503719,-0.5586 1.179993,-1.5512 1.189453,-2.4766 0.0034,-0.3307 -0.0784,-0.6463 -0.201172,-0.9472 4.213547,-0.5562 6.352062,-1.033 7.085265,-1.1648 0.489315,-0.088 0.986829,-0.279 1.547017,-0.1127 0.57816,0.1715 0.43723,0.4399 0.68846,0.7104 -0.3305,0.4603 -0.34897,0.5358 -1.325417,3.0265 -0.976406,2.4906 -2.390886,10.6074 -3.289949,13.5961 -1.429393,1.2872 -2.208395,1.2097 -3.275689,1.4838 z m -4.253887,-18.564 c 0.38309,-0.047 0.913084,0.2449 1.314453,0.6465 0.401369,0.4016 0.652387,0.9297 0.648438,1.3164 -0.0053,0.5186 -0.240916,1.3059 -0.760609,1.8169 -0.519693,0.511 -1.021712,0.848 -1.507429,0.7922 -0.337714,-0.039 -0.615092,-0.4707 -0.899281,-0.9392 -0.284143,-0.4684 -0.302234,-1.141 -0.263901,-1.5585 0.0412,-0.4487 0.201068,-0.9101 0.590687,-1.3368 0.389619,-0.4267 0.676439,-0.7129 0.877642,-0.7375 z m -59.671875,0.1758 0,1.6054 1.583985,0 0,-1.6054 z m 3.333985,0.035 0.875,0 0,0.8965 -0.875,0 z m -6.261719,0.2832 0,1.5527 1.53125,0 0,-1.5527 z m 3.28125,0.037 0.876953,0 0,0.8946 -0.876953,0 z m -6.15625,0.1231 0,1.6582 1.53125,0 0,-1.6582 z m -2.822266,0.1054 0,1.6055 1.583985,0 0,-1.6055 z m -14.0624994,0.055 0,1.4434 1.3222656,0 0,-1.4434 z m 5.4355464,0 0,1.5508 1.533203,0 0,-1.5508 z m 5.751953,0 0,1.6035 1.583985,0 0,-1.6035 z m 8.927735,0.035 0.822265,0 0,0.8418 -0.822265,0 z m -17.2929688,0.018 0,1.4453 1.3222658,0 0,-1.4453 z m 5.4882808,0 0,1.5507 1.585938,0 0,-1.5507 z m 8.927735,0.1406 0.824218,0 0,0.9492 -0.824218,0 z m -2.822266,0.1074 0.875,0 0,0.8945 -0.875,0 z m -14.0624998,0.053 0.6152344,0 0,0.7364 -0.6152344,0 z m 5.4374998,0 0.822266,0 0,0.8418 -0.822266,0 z m 5.75,0 0.875,0 0,0.8965 -0.875,0 z m -8.3652338,0.053 0.6152338,0 0,0.7363 -0.6152338,0 z m 5.4902338,0 0.875,0 0,0.8437 -0.875,0 z m 10.236328,16.7734 c 9.31766,1.19 18.685051,2.1387 28.078125,2.5938 9.504355,0.4604 18.655189,0.7646 28.609375,0.5351 3.89607,-0.09 10.506292,-1.3303 11.384706,-1.5485 0.488262,-0.1213 1.940813,-0.4848 2.753976,-1.3577 -0.374169,2.0293 -0.73103,3.9337 -1.064453,5.7636 l -0.398955,2.4364 c 0.02292,0.2704 -0.308511,0.8745 -0.794171,0.7561 -0.253741,0.1257 -3.61149,0.036 -15.044953,-0.8324 -14.644362,-1.1127 -42.818547,-2.8876 -56.778673,-5.7649 -3.864542,-0.7965 -6.737972,-1.4061 -8.834794,-1.8427 -4.5148785,-0.9402 -5.4874437,-1.2919 -5.5886343,-1.416 -0.4277941,-0.5946 -0.3442698,-0.6709 -0.444312,-1.352 -0.027507,-0.1873 -0.095003,-0.6208 0.039094,-0.9314 5.8268673,1.0259 12.1321103,2.2005 18.0836693,2.9606 z"
       id="path4168"
       inkscape:connector-curvature="0"
       sodipodi:nodetypes="ssscsssssssscscccccccsccccsssscsccsssssssscscsssccccccccccsssssscsscsscsssssssccsccssscccssccscccssscsscccsssccsscsccssssccsscssscccccsssscscssssssscccscssssssssssssscssssssssccscccssscscsccssscsssscssscssccssssssssssssssssssssssssscccccccccccccccccccccccccccccccccccccccccccccccccccccccccccccccccccccccccccccccccccccscccscccscccscccscccccccccccccccccccscccccccccccccccscccscccscccscccscccscccscccscccsccsssssssssscsssscsscccsssssscccscccscccscccsccccccccccccccccccccccccsccccccccccccccccccccccccccccccccccccccccccccccscccscccscccccscccscccccccccccccccccccccccccsccccccccccccccccccccccsccccccccccccccccccsssssssscscscssssccsssscccccccccccccccccccccccccccccccccccccccccccccccccccccccccccccccccccccccccccccccccccccccccccccccsccsscsscssssccsssssssscccccccccccccccccccccccccccccccccccssssccscsssscsssscsscscsssssssssscccccccccccccccccccccccccccccccccccccccccccccccccccccccccccccccccccccccccccccccccccccscccssccssssssccsscsscscs" />
    <path
       style="fill:#ffffff;fill-opacity:1;fill-rule:evenodd;stroke:#ff6600;stroke-width:0.17716534;stroke-linecap:butt;stroke-linejoin:miter;stroke-miterlimit:4;stroke-dasharray:none;stroke-opacity:1"
       d="m 88.689943,1003.1561 c -0.44703,0.022 -0.94845,0.2501 -0.98828,0.75 -0.0246,0.3093 0.44868,0.9336 0.42578,1.0176 -0.10954,0.4044 -0.74112,3.6613 -1.00196,3.6113 -1.04338,-0.1999 -1.58945,-0.2777 -2.64843,-0.6992 -0.51256,-0.2872 -0.31531,-1.2992 -0.85937,-1.3672 -0.12473,-0.016 -0.38789,0.4258 -0.42969,0.7559 -0.0418,0.3302 0.0939,0.8505 0.32617,1.1172 0.88682,0.904 1.9374,1.8404 3.09375,2.1875 0.12789,0.7756 0.48953,1.2106 0.73828,1.2422 0.4591,0.02 0.62566,-0.3098 1.01172,-0.8359 1.95361,0.3016 3.46157,-0.1563 5.25,-0.5938 0.65902,-0.1717 0.95426,-0.817 0.91406,-1.1582 -0.0374,-0.3175 -0.17663,-0.7282 -0.36328,-0.7462 -0.15786,-0.015 -0.46655,0.1384 -0.74219,0.7306 -1.29818,0.203 -2.97327,0.232 -4.68945,-0.3321 -0.0629,-0.01 0.61749,-3.4164 0.64648,-3.4844 0.16182,-0.3815 0.95069,-0.2838 0.98829,-0.7266 0.0598,-0.7036 -0.37337,-1.0773 -0.94336,-1.371 -0.31955,-0.1269 -0.55227,-0.089 -0.72852,-0.098 z m 0.37109,0.7168 c 0.23301,0 0.42189,0.1609 0.42188,0.3594 1e-5,0.1985 -0.18887,0.3594 -0.42188,0.3594 -0.23301,0 -0.42189,-0.1609 -0.42187,-0.3594 -2e-5,-0.1985 0.18886,-0.3594 0.42187,-0.3594 z"
       id="path5223-3"
       inkscape:connector-curvature="0"
       sodipodi:nodetypes="scccccccccccccccccccssscss" />
    <path
       style="fill:url(#pattern7257);fill-opacity:1;fill-rule:evenodd;stroke:#ff6600;stroke-width:0.17716534;stroke-linecap:butt;stroke-linejoin:miter;stroke-miterlimit:4;stroke-dasharray:none;stroke-opacity:1"
       d="m 88.675776,1003.1902 c -0.44703,0.022 -0.94845,0.2501 -0.98828,0.75 -0.0246,0.3093 0.44868,0.9336 0.42578,1.0176 -0.10954,0.4044 -0.741115,3.6613 -1.001955,3.6113 -1.04338,-0.1999 -1.58945,-0.2777 -2.648435,-0.6992 -0.51256,-0.2872 -0.31531,-1.2992 -0.85937,-1.3672 -0.12473,-0.016 -0.38789,0.4258 -0.42969,0.7559 -0.0418,0.3302 0.0939,0.8505 0.32617,1.1172 0.88682,0.904 1.9374,1.8404 3.09375,2.1875 0.12789,0.7756 0.48953,1.2106 0.738285,1.2422 0.459095,0.02 0.625655,-0.3098 1.011715,-0.8359 1.95361,0.3016 3.46157,-0.1563 5.25,-0.5938 0.65902,-0.1717 0.95426,-0.817 0.91406,-1.1582 -0.0374,-0.3175 -0.17663,-0.7282 -0.36328,-0.7462 -0.15786,-0.015 -0.46655,0.1384 -0.74219,0.7306 -1.29818,0.203 -2.97327,0.232 -4.68945,-0.3321 -0.0629,-0.01 0.61749,-3.4164 0.64648,-3.4844 0.16182,-0.3815 0.95069,-0.2838 0.98829,-0.7266 0.0598,-0.7036 -0.373365,-1.0773 -0.94336,-1.371 -0.319544,-0.1269 -0.552271,-0.089 -0.72852,-0.098 z m 0.37109,0.7168 c 0.233009,0 0.421896,0.1609 0.42188,0.3594 1.6e-5,0.1985 -0.188871,0.3594 -0.42188,0.3594 -0.233005,0 -0.421886,-0.1609 -0.42187,-0.3594 -1.6e-5,-0.1985 0.188865,-0.3594 0.42187,-0.3594 z"
       id="path5223"
       inkscape:connector-curvature="0"
       sodipodi:nodetypes="scccccccccccccccccccssscss" />
    <path
       style="color:#000000;font-style:normal;font-variant:normal;font-weight:normal;font-stretch:normal;font-size:medium;line-height:normal;font-family:sans-serif;text-indent:0;text-align:start;text-decoration:none;text-decoration-line:none;text-decoration-style:solid;text-decoration-color:#000000;letter-spacing:normal;word-spacing:normal;text-transform:none;direction:ltr;block-progression:tb;writing-mode:lr-tb;baseline-shift:baseline;text-anchor:start;white-space:normal;clip-rule:nonzero;display:inline;overflow:visible;visibility:visible;opacity:1;isolation:auto;mix-blend-mode:normal;color-interpolation:sRGB;color-interpolation-filters:linearRGB;solid-color:#000000;solid-opacity:1;fill:#000000;fill-opacity:1;fill-rule:evenodd;stroke:none;stroke-width:0.35433072;stroke-linecap:butt;stroke-linejoin:miter;stroke-miterlimit:4;stroke-dasharray:none;stroke-dashoffset:0;stroke-opacity:1;color-rendering:auto;image-rendering:auto;shape-rendering:auto;text-rendering:auto;enable-background:accumulate"
       d="m 87.875416,1005.0379 c -0.25516,1.1506 -0.39465,2.1815 -0.78171,3.2959 -0.98349,-0.1851 -1.81241,-0.2 -2.64443,-0.8021 -0.18829,-0.3905 -0.28497,-1.5886 -0.94157,-1.3834 -0.634,0.5341 -0.77101,1.6238 -0.41661,2.1312 0.40656,0.5294 0.91997,0.9962 1.41979,1.4395 0.50143,0.4448 1.32837,0.7426 1.75655,1.1399 0.1026,0.4578 0.49076,1.2653 1.05573,1.3124 0.98412,0.082 1.016635,-0.8989 1.78231,-0.7455 1.631863,0.327 3.150533,-0.205 4.72229,-0.7073 0.66445,-0.2123 1.07676,-1.3876 0.77613,-2.0449 -0.0995,-0.4759 -0.87999,-0.4763 -1.05862,-0.064 -0.1255,0.5313 -0.652168,0.3914 -1.10703,0.4197 -1.250621,0.078 -2.146265,-0.01 -3.346315,-0.3775 0.17445,-1.1418 0.270865,-1.9054 0.500125,-3.0346 0.37501,-0.3001 0.95238,-0.097 1.06995,-0.9252 0.10277,-0.7239 -0.9334,-1.7005 -1.55999,-1.7645 -0.52016,-0.053 -1.48726,0.087 -1.567385,0.7141 -0.08012,0.6272 0.157225,0.9316 0.340785,1.3963 z m 2.00888,-0.6209 c -0.0493,0.51 -0.96409,0.4533 -0.89033,1.0973 -0.21134,1.1322 -0.46343,2.2609 -0.59779,3.4047 0.25482,0.3699 0.866564,0.3629 1.29053,0.4594 1.249618,0.2844 2.56122,0.2358 3.82508,0.028 0.10819,-0.2383 0.50529,-1.1415 0.64547,-0.4762 0.18885,0.6185 -0.40293,1.1917 -0.99348,1.2377 -1.61674,0.4162 -3.31268,0.661 -4.97228,0.3572 -0.27527,0.3265 -0.49515,0.8002 -0.94288,0.8972 -0.4045,-0.2238 -0.40013,-0.7905 -0.49993,-1.1987 -0.3886,-0.241 -0.99067,-0.3614 -1.38605,-0.6889 -0.6548,-0.4513 -1.27908,-0.9709 -1.78526,-1.5859 -0.25778,-0.2761 -0.16261,-1.0918 0.15896,-1.0952 0.0968,0.4946 0.2163,1.0741 0.78672,1.2268 0.85761,0.4344 1.82579,0.5814 2.76444,0.7174 0.41456,-0.2763 0.3861,-0.8944 0.54021,-1.3346 0.19008,-0.8565 0.34932,-1.7204 0.51507,-2.5811 -0.097,-0.4002 -0.38677,-0.5735 -0.3294,-1.0802 0.0319,-0.2816 0.4577,-0.3867 0.89467,-0.4374 0.43698,-0.051 1.03555,0.4385 0.97625,1.0525 z m -0.9741,-0.7839 c -0.347136,-0.025 -0.517842,0.2182 -0.537119,0.4929 -0.02545,0.3628 0.213141,0.78 0.658219,0.7037 0.379702,-0.015 0.530708,-0.3376 0.490168,-0.6439 -0.03884,-0.2935 -0.253484,-0.5723 -0.611268,-0.5527 z m 0.0781,0.3086 c 0.186292,0.1025 0.241801,0.2168 0.22562,0.3086 -0.01866,0.1059 -0.132688,0.1819 -0.251414,0.1753 -0.118727,-0.01 -0.242155,-0.096 -0.279626,-0.3201 0.0434,-0.081 0.30542,-0.1638 0.30542,-0.1638 z"
       id="path5223-7"
       inkscape:connector-curvature="0"
       sodipodi:nodetypes="cccccscsssccsccsssccccsccccccccccccsssccscsccsscc" />
    <path
       style="fill:url(#pattern7073);fill-opacity:1;fill-rule:evenodd;stroke:none;stroke-width:0.35433072;stroke-linecap:butt;stroke-linejoin:miter;stroke-miterlimit:4;stroke-dasharray:none;stroke-opacity:1"
       d="m 101.86757,988.6527 c 0.41564,7.65334 -1.60519,14.0097 -2.872625,20.8817 2.369195,-5.242 4.671255,-10.76506 8.617865,-15.55636 z"
       id="path5246"
       inkscape:connector-curvature="0"
       sodipodi:nodetypes="cccc" />
    <g
       id="g5361"
       transform="translate(-0.70710678,0)">
      <path
         sodipodi:nodetypes="cccccccccscsccccscsscc"
         inkscape:connector-curvature="0"
         id="path5254-7"
         d="m -3.2002902,1017.0181 c 0.008,8.3139 0.10205,20.535 0.051,24.83 38.5871902,0.081 77.1743202,0.184 115.7614302,0.295 l -0.0625,-5.625 c 0,0 -8.19404,-10.486 -12.99805,-8 -1.15171,-1.5961 -3.17002,-3.9768 -5.37695,-4.625 -1.88194,-0.5527 -5.4986,0.2926 -5.625,2.25 -0.0798,1.2363 1.82052,-0.8855 3.75,-0.25 1.80877,0.5958 0.73108,3.2062 -1,4 -2.37735,1.0902 -13.63228,-8.2577 -14.375,-5.75 -0.81576,2.7544 0.35115,4.3505 -3.375,4 -3.49743,-0.3289 -10.29527,-7.5665 -11,-4.125 -0.36342,1.7748 -2.04414,3.1635 -3.02586,3.2364 -1.37984,0.3764 -12.3379,-6.5236 -12.34914,-4.3614 -0.01,1.9224 -1.97547,2.1203 -3.74805,1.9707 -1.60514,-0.5312 -3.13668,-1.0024 -4.43359,-1.2715 -2.61914,-1.479 -6.82809,-3.9954 -7.56836,-1.8242 -0.86264,2.5301 -5.12284,0.9808 -8.375,0.625 -3.54977,-0.3884 -9.48552,-5.5302 -10.25,-4.375 -1.61538,2.441 -5.4110702,2.3378 -7.2500002,0.75 -1.89589,-1.637 -4.83987,-1.9131 -6.39294,-1.8935 -1.55306,0.019 -2.35697,0.1435 -2.35697,0.1435 z"
         style="fill:#ffffff;fill-opacity:1;fill-rule:evenodd;stroke:none;stroke-width:0.35433072;stroke-linecap:butt;stroke-linejoin:miter;stroke-miterlimit:4;stroke-dasharray:none;stroke-opacity:1" />
      <path
         sodipodi:nodetypes="cccscccsccccsccccccccccccccccccccsssscscccccccsccscscscccccsccssccccccccsccccccccccscsccccscsccccccccccccccccsccccccscsccccccccssccccsccccscccssccsccccccsssccccccscccccccccccccccccscccssccccsccsccccccsccccccccccccccccccccccccsccccsccccsccccsccscccccccscccccc"
         inkscape:connector-curvature="0"
         id="path5254-5"
         d="m -1.2413129,1016.2545 -2.43095,0.8074 0.19459,1.0767 c 0,0 1.73188,-0.9615 3.48441,-0.8548 1.75254,0.1067 3.83838,0.5481 5.21679,1.7383 1.04421,0.9016 2.73918,1.874 4.24124,1.7861 1.4734399,-0.086 2.7723299,-1.2608 3.3544999,-1.9114 0.58216,-0.6506 0.86189,-0.5626 1.19918,-0.4099 0.67459,0.3054 1.59714,0.8482 2.60937,1.4434 0.61851,0.3636 1.27075,0.7411 1.09519,0.8656 -0.17556,0.1244 -0.89221,0.4182 -1.29443,0.9309 -0.40222,0.5128 -0.51468,1.1324 -0.60937,1.6953 -0.0947,0.563 -0.17427,1.0867 -0.31446,1.373 -0.14019,0.2863 -0.20212,0.3791 -0.67382,0.3496 -2.40169,-0.1504 -4.57896,-1.5285 -6.5136799,-2.9648 -1.93472,-1.4364 -3.54611,-2.9631 -5.20898,-3.1582 l 0,0 c -0.67022,-0.079 -1.36839,0.1572 -2.09766,0.4922 -0.72927,0.3351 -1.48298,0.7926 -2.16992,1.2539 -1.37388,0.9227 -2.48828,1.8711 -2.48828,1.8711 l 0.64648,0.7617 c 0,0 1.08186,-0.9172 2.4004,-1.8027 0.65927,-0.4427 1.37564,-0.8763 2.02734,-1.1758 0.65169,-0.2994 1.24451,-0.4438 1.56445,-0.4062 1.05991,0.1244 2.75423,1.501 4.72852,2.9668 1.9743,1.4657 4.3093699,2.9886 7.0488299,3.1601 0.77177,0.048 1.77378,-0.2471 2.03251,-0.7756 0.25873,-0.5284 0.26859,-1.1583 0.35815,-1.6907 0.0896,-0.5325 0.0784,-0.9926 0.27562,-1.2441 0.19723,-0.2514 0.71074,-0.1846 1.42337,-0.1071 1.35128,0.147 3.12336,1.2007 5.35957,2.5831 2.23622,1.3823 4.45127,3.0631 6.3164,3.1266 1.18231,0.04 2.75739,0.054 3.39071,-0.4153 0.63331,-0.4698 1.24353,-1.2099 1.60182,-1.7458 0.35829,-0.5359 -0.0676,-1.2626 0.3737,-1.5601 0.44128,-0.2975 0.84176,-0.6536 1.84861,-0.5479 1.80512,0.1895 4.59759,1.1317 7.38868,2.0742 2.7911,0.9425 5.57957,1.8878 7.62304,2.0527 1.94517,0.1571 5.17351,0.6369 7.13707,0.1307 1.96356,-0.5062 2.74117,-2.0705 3.14223,-4.0291 0.0688,-0.3359 0.16186,-0.4263 0.26563,-0.4785 0.10377,-0.052 0.31501,-0.074 0.64648,0.01 0.66293,0.1673 1.68003,0.7365 2.78125,1.4395 1.10122,0.7031 2.17321,1.8878 3.33617,2.5723 1.16296,0.6844 2.40384,1.2813 3.43336,1.3781 0.96434,0.091 2.57523,0.1996 3.11949,0.017 0.54426,-0.1826 0.8341,-0.8956 1.01122,-1.3445 0.35425,-0.8978 -1.00809,-2.7569 -0.36775,-3.4318 0.64034,-0.6749 1.28935,0.074 1.69014,0.3166 1.14395,0.4844 2.51425,1.643 4.11423,2.5855 1.59998,0.9425 3.25712,2.245 4.68945,2.9441 0.71618,0.3496 1.50743,0.4941 2.09549,0.6545 0.58806,0.1604 1.87251,-0.1662 2.36067,-0.3877 1.01856,-0.467 1.56717,-1.312 1.87473,-2.2906 0.15378,-0.4893 -0.29344,-1.3157 -0.47054,-1.7937 -0.17704,-0.4779 -0.5948,-0.7002 -1.16406,-0.8877 -1.16811,-0.3847 -2.26101,0.062 -2.97852,0.3633 -0.14034,0.059 -0.15692,0.058 -0.26758,0.1 0.0775,-0.2129 0.12681,-0.4286 0.3418,-0.6211 0.31623,-0.2832 0.78253,-0.5315 1.3125,-0.709 1.05993,-0.355 2.37817,-0.4122 3.16992,-0.1797 1.79519,0.5273 3.63803,2.4924 4.80078,4.0235 -0.11537,0.099 -0.4809,0.1164 -0.55814,0.2338 -0.16869,0.2564 -0.22278,0.7117 -0.24023,0.9425 -0.0349,0.4616 0.72841,1.0563 0.50203,1.5796 -0.63368,1.4649 -2.40044,2.6245 -3.82475,2.873 -1.71685,0.2996 -4.60212,-0.6754 -7.04688,-1.6367 -1.22238,-0.4806 -2.07511,-1.1224 -2.95162,-1.3975 -0.43825,-0.1376 -1.16378,-0.5427 -1.51177,-0.5535 -0.174,-0.01 -0.92442,0.054 -1.37289,0.3089 -0.18331,0.081 0.12097,0.5311 0.0525,0.7398 -0.63003,1.9214 -1.99819,3.2322 -5.11861,2.6641 -1.15448,-0.2102 -3.32791,-1.0108 -5.48047,-1.8242 -2.15256,-0.8134 -4.02299,-1.9043 -5.36569,-2.1891 -0.94136,-0.1997 -2.48113,-1.0934 -2.90414,-0.6589 -0.42302,0.4342 0.0882,2.2663 0.008,2.7269 -0.0801,0.4606 -0.16768,0.8464 -0.34375,1.0683 -0.17607,0.2218 -0.44828,0.3977 -1.23437,0.3692 -1.56759,-0.057 -4.91818,-1.3471 -7.90625,-2.461 -1.49403,-0.557 -2.91362,-1.0665 -4.06446,-1.3476 -0.57542,-0.1405 -1.08293,-0.226 -1.52929,-0.2207 -0.44635,0.01 -1.38669,-0.075 -1.66192,0.3115 0.33034,1.987 -1.08515,2.7658 -1.66621,3.2666 -0.27246,0.2556 -0.55324,0.4169 -1.01953,0.5332 -0.4663,0.1163 -1.11649,0.1733 -2.04297,0.168 -2.3754,-0.014 -5.97457,-1.4041 -9.07226,-2.6133 -1.54884,-0.6046 -2.9761,-1.1591 -4.12891,-1.4648 -0.57641,-0.1529 -1.08239,-0.2473 -1.53516,-0.2383 -0.45277,0.01 -0.92363,0.1428 -1.18554,0.541 -0.50705,0.771 -0.90852,1.2639 -1.24805,1.5527 -0.33954,0.2889 -0.5955,0.3883 -0.93945,0.4238 -0.68788,0.071 -1.79466,-0.2589 -3.71875,-0.4492 -1.80667,-0.1788 -5.68659,-0.4348 -9.15894,-1.2772 -1.7361799,-0.4212 -3.2794299,-0.9896 -4.5170799,-1.2393 -0.61883,-0.1249 -2.15413,-1.274 -2.55552,-1.3146 -0.2007,-0.02 -0.36958,-0.031 -0.53125,-0.02 -0.38265,-0.032 -0.37027,-0.024 -0.58203,0.2832 -0.29153,2.7211 -1.92116,3.0313 -3.18057,3.1436 -1.2261,0.139 -2.85873,-0.4832 -2.85872,-0.4832 l 0.0638,1.1624 c 0,0 1.45513,0.4796 2.90824,0.3149 3.57133,0.1058 4.79102,-2.8845 4.79102,-2.8845 0,0 1.0544,0.701 1.65747,0.8227 1.20613,0.2433 2.70144,0.6762 4.4357699,1.097 3.46866,0.8415 7.42156,1.1906 9.42824,1.3891 1.83822,0.1818 2.88024,0.5566 3.91992,0.4492 0.51983,-0.054 1.02169,-0.2628 1.48438,-0.6563 0.46268,-0.3936 1.14257,-0.5347 1.75103,-0.9792 0.60845,-0.4445 1.00509,-0.4135 1.53439,-0.2737 1.05861,0.2807 2.16703,0.87 3.71408,1.4739 3.09411,1.2078 6.77685,2.2243 9.51807,2.2398 0.96761,0.01 1.69103,-0.048 2.29102,-0.1973 0.59998,-0.1496 1.07746,-0.4119 1.46289,-0.7734 0.77085,-0.7231 1.20329,-1.0651 2.28125,-2.5774 -0.005,0.01 0.0761,-0.065 0.375,-0.068 0.29891,0 0.74586,0.064 1.27734,0.1933 1.06296,0.2596 2.51151,0.6702 3.99732,1.2241 2.97163,1.1078 6.16189,1.8761 8.17456,1.949 0.97525,0.035 1.66586,-0.2562 2.05469,-0.7461 0.38884,-0.4899 0.46704,-1.0602 0.54687,-1.5195 0.0798,-0.4593 0.041,-1.0125 0.1643,-1.139 0.12328,-0.1265 0.62302,0.1093 1.40578,0.2756 1.15995,0.2461 3.19677,0.9339 5.3518,1.7482 2.15504,0.8144 4.2476,2.067 5.6101,2.315 6.23538,1.2389 5.84201,-1.3662 6.36408,-2.5036 0.52208,-1.1373 0.84738,-1.0753 1.24654,-0.9501 0.7983,0.2506 1.91539,0.7145 3.14844,1.1993 2.4661,0.9697 5.36832,2.0764 7.58593,1.6894 1.01693,-0.1775 2.57774,-0.5373 3.39272,-1.2908 0.75238,-0.6956 1.40295,-1.5384 1.752663,-2.3468 0.31688,-0.7326 -0.754523,-1.5046 -0.731313,-1.8116 0.0116,-0.1535 0.0292,-0.2216 0.0762,-0.293 0.047,-0.071 0.1481,-0.1739 0.4043,-0.3066 1.022013,-0.5296 2.215233,0.057 3.582763,0.6567 1.36753,0.5998 2.37099,1.3841 3.67328,2.5201 2.60457,2.2719 5.56285,5.4378 5.56285,5.4378 l 0.34517,-1.3666 c 0,0 -2.06919,-2.6516 -4.76367,-5.0019 -1.34724,-1.1752 -2.85078,-2.2805 -4.3711,-2.9473 -0.76016,-0.3334 -1.53721,-0.5588 -2.22481,-0.6065 -0.6876,-0.048 -1.28907,0.031 -1.863083,0.2491 -1.20694,-1.6131 -3.12333,-3.8178 -5.40625,-4.4882 -1.09018,-0.3201 -2.51905,-0.2294 -3.76953,0.1894 -0.62524,0.2094 -1.20586,0.5035 -1.66211,0.9121 -0.45625,0.4086 -0.7907,0.9556 -0.83203,1.5957 -0.0138,0.2136 -0.006,0.4409 0.16406,0.6582 0.16984,0.2173 0.46593,0.2802 0.6543,0.2657 0.37675,-0.029 0.64855,-0.1843 0.99609,-0.3301 0.69507,-0.2918 1.51598,-0.5868 2.27735,-0.336 0.33513,0.1104 0.46355,0.259 0.53906,0.4629 0.0755,0.2039 0.0746,0.5009 -0.0312,0.8379 -0.21186,0.674 -0.84607,1.4429 -1.55859,1.7696 -0.10618,0.049 -0.4443,0.069 -0.92969,-0.062 -0.48538,-0.1324 -1.10221,-0.3865 -1.78711,-0.7208 -1.3698,-0.6686 -3.01929,-1.6529 -4.62305,-2.5976 -1.60376,-0.9447 -3.15866,-1.8499 -4.4082,-2.3789 -0.62476,-0.2645 -1.16541,-0.4434 -1.66797,-0.461 -0.25129,-0.01 -0.50513,0.023 -0.73828,0.1543 -0.23314,0.1309 -0.41536,0.3715 -0.49219,0.6309 -0.43378,1.4647 0.14607,2.887 -0.0517,3.3883 -0.0989,0.2506 -0.57561,0.6159 -1.0628,0.6317 -0.31041,0.1041 -0.83638,-0.2925 -1.73511,-0.3779 -0.7192,-0.068 -1.77136,-0.5436 -2.88867,-1.2012 -1.11731,-0.6576 -2.31204,-1.482 -3.43555,-2.1992 -1.12351,-0.7173 -2.15701,-1.3344 -3.07617,-1.5664 -0.45958,-0.1161 -0.9233,-0.1408 -1.33984,0.068 -0.41654,0.2095 -0.68753,0.6456 -0.79493,1.17 -0.29599,1.4455 -1.49175,2.2619 -3.18554,2.7285 l 0.0391,-0.07 c 0,0 -2.88195,-1.5784 -5.7793,-2.8907 -1.44867,-0.6561 -2.89592,-1.2464 -4.03125,-1.5468 -0.56766,-0.1501 -1.04841,-0.2381 -1.48632,-0.1895 -0.21895,0.024 -0.44354,0.086 -0.63672,0.252 -0.19317,0.1657 -0.30536,0.4394 -0.30664,0.6855 -0.003,0.6299 -0.19063,0.8614 -0.54102,1.0469 -0.3504,0.1854 -0.93362,0.255 -1.58984,0.2148 -0.65621,-0.04 -1.37723,-0.1767 -2.01172,-0.3144 -0.63448,-0.1378 -1.1578,-0.2766 -1.55664,-0.3164 -0.0146,0 -0.26628,-0.074 -0.57031,-0.211 -0.30404,-0.1369 -0.6909,-0.3292 -1.125,-0.5507 -0.86821,-0.4428 -1.66708,-1.1763 -2.73679,-1.6417 -1.06971,-0.4654 -2.31265,-1.112 -3.26272,-1.185 -0.47503,-0.036 -1.24187,10e-5 -1.6492,0.1973 -0.40734,0.194 -0.51809,1.0038 -0.67942,1.477 -0.17007,0.4988 -0.44762,0.7404 -0.91016,0.9063 -0.46254,0.1659 -1.11687,0.2075 -1.87109,0.1523 -1.50845,-0.1104 -3.3858,-0.5857 -5.06641,-0.7695 -1.5677,-0.1716 -3.55098,-1.7755 -5.57295,-2.9644 -1.01099,-0.5944 -2.24817,-1.1463 -3.01248,-1.4922 -0.38215,-0.173 -0.80688,-0.2552 -1.14113,-0.2976 -0.16713,-0.021 -0.33823,0.199 -0.51758,0.252 -0.17935,0.053 -0.36415,0.1778 -0.47656,0.3477 -0.70644,1.0675 -1.89494,1.5903 -3.1542999,1.664 -1.25936,0.074 -2.55684,-0.3294 -3.35156,-1.0156 -1.65502,-1.429 -3.94644,-1.865 -5.11151,-1.9357 -1.16506,-0.071 -2.00763,-0.074 -2.00763,-0.074 z m 38.5429699,6.4981 c -0.8954,-0.01 -1.60186,0.1941 -2.13672,0.5546 -0.64213,0.4329 -0.32832,1.3378 -0.68937,1.8778 -0.36104,0.54 -1.17718,0.939 -1.63263,1.2768 -0.45545,0.3378 -1.35468,0.1217 -2.36405,0.087 -1.33486,-0.045 -3.50334,-1.1111 -5.73387,-2.4899 -0.77673,-0.4802 -1.54324,-0.9515 -2.29883,-1.3945 0.18464,0.038 0.36984,0.078 0.54883,0.098 1.57155,0.1719 3.40702,0.9602 5.05737,1.0809 0.82517,0.06 1.86786,-0.051 2.54836,-0.2954 0.6805,-0.2441 1.03732,-0.9802 1.29857,-1.7464 0.0872,-0.2557 0.19819,-0.3672 0.38281,-0.4551 0.18463,-0.088 0.46749,-0.1315 1.01429,-0.09 0.5468,0.042 1.55858,0.3819 2.30915,0.7086 0.75057,0.3268 1.22951,0.5572 1.69609,0.7876 z m 10.42578,0.066 c 0.19253,-0.021 0.6101,0.027 1.12109,0.1621 1.02198,0.2704 2.45008,0.8469 3.875,1.4922 2.06686,0.9361 3.74556,1.8149 4.72852,2.3378 -1.50135,0.2127 -3.15734,0.2033 -4.61133,0.086 -1.74828,-0.1412 -4.43265,-1.01 -7.13867,-1.9219 0.31607,-0.051 0.62051,-0.1349 0.90039,-0.2812 0.611,-0.3233 1.0297,-0.9966 1.05664,-1.8633 0.004,-7e-4 -5.3e-4,3e-4 0.0684,-0.012 z m -37.62891,12.2404 c -5.8179499,2.5644 -13.7597699,6.2559 -13.7597599,6.2559 0.17936,0.4046 -0.11566,0.9448 1.61511,0.9062 0.35922,0.011 7.49023,-1.9387 12.6373399,-5.8042 3.02363,-2.2707 8.01089,-0.5546 12.83349,1.3179 4.8226,1.8725 11.22702,4.4403 15.47598,4.2984 2.92712,-0.098 4.4739,-0.8307 6.54852,-1.8714 2.07462,-1.0408 3.2308,-2.6489 6.12393,-3.5423 0.29689,-0.092 0.91469,-0.1223 1.71094,-0.049 0.79625,0.074 1.77928,0.2386 2.88086,0.4668 2.20316,0.4564 4.88245,1.1698 7.56836,1.9238 2.6859,0.7539 5.37957,1.5484 7.63086,2.17 2.25128,0.6215 6.31599,1.3377 7.32935,1.3999 5.74008,0.3529 8.0825,-2.8771 11.77026,-5.48 0.2792,-0.1971 0.86008,-0.3454 1.65625,-0.3574 0.79618,-0.012 1.79585,0.095 2.91016,0.2929 2.22862,0.3967 4.92068,1.1535 7.509763,1.9864 5.17816,1.6657 9.94531,3.6308 9.94531,3.6308 l 0.38086,-0.9238 c 0,0 -4.79334,-1.977 -10.01953,-3.6582 -2.6131,-0.8406 -5.333373,-1.6088 -7.640623,-2.0195 -1.15362,-0.2054 -2.20284,-0.3222 -3.09961,-0.3086 -0.89676,0.014 -1.6523,0.1412 -2.21875,0.541 -3.65606,2.5805 -8.06801,5.3629 -13.43164,5.0332 -0.76401,-0.047 -2.58645,-0.4837 -4.82422,-1.1016 -2.23777,-0.6178 -4.93453,-1.4117 -7.62891,-2.168 -2.69439,-0.7564 -5.38682,-1.4758 -7.63476,-1.9414 -1.12397,-0.2329 -2.13652,-0.4012 -2.99219,-0.4804 -0.85566,-0.079 -1.54382,-0.083 -2.09766,0.088 -3.00963,0.9294 -5.13155,2.1863 -7.16211,3.205 -2.03056,1.0186 -3.95764,1.8067 -6.70703,1.8985 -3.85141,0.1286 -8.76038,-2.0795 -13.62109,-3.9668 -3.18983,-1.2386 -6.38476,-2.3537 -8.06333,-2.4261 -1.67858,-0.072 -2.09274,-0.07 -2.84144,-0.024 -0.74871,0.046 -1.79562,0.2723 -2.78469,0.7082 z"
         style="color:#000000;font-style:normal;font-variant:normal;font-weight:normal;font-stretch:normal;font-size:medium;line-height:normal;font-family:sans-serif;text-indent:0;text-align:start;text-decoration:none;text-decoration-line:none;text-decoration-style:solid;text-decoration-color:#000000;letter-spacing:normal;word-spacing:normal;text-transform:none;direction:ltr;block-progression:tb;writing-mode:lr-tb;baseline-shift:baseline;text-anchor:start;white-space:normal;clip-rule:nonzero;display:inline;overflow:visible;visibility:visible;opacity:1;isolation:auto;mix-blend-mode:normal;color-interpolation:sRGB;color-interpolation-filters:linearRGB;solid-color:#000000;solid-opacity:1;fill:#000000;fill-opacity:1;fill-rule:evenodd;stroke:none;stroke-width:1px;stroke-linecap:butt;stroke-linejoin:miter;stroke-miterlimit:4;stroke-dasharray:none;stroke-dashoffset:0;stroke-opacity:1;color-rendering:auto;image-rendering:auto;shape-rendering:auto;text-rendering:auto;enable-background:accumulate" />
    </g>
  </g>
</svg>
